G04 EAGLE Gerber RS-274X export*
G75*
%MOMM*%
%FSLAX34Y34*%
%LPD*%
%INBoard Outline*%
%IPPOS*%
%AMOC8*
5,1,8,0,0,1.08239X$1,22.5*%
G01*
%ADD10C,0.000000*%
%ADD11C,0.254000*%


D10*
X3231Y1271D02*
X465255Y1575D01*
X464993Y392202D01*
X2537Y393369D01*
X3231Y1271D01*
X112857Y377241D02*
X112859Y377379D01*
X112865Y377516D01*
X112875Y377653D01*
X112889Y377790D01*
X112907Y377926D01*
X112929Y378062D01*
X112954Y378197D01*
X112984Y378331D01*
X113017Y378465D01*
X113055Y378597D01*
X113096Y378728D01*
X113141Y378858D01*
X113190Y378987D01*
X113242Y379114D01*
X113298Y379240D01*
X113358Y379364D01*
X113421Y379486D01*
X113488Y379606D01*
X113558Y379724D01*
X113631Y379841D01*
X113708Y379955D01*
X113789Y380066D01*
X113872Y380176D01*
X113958Y380283D01*
X114048Y380387D01*
X114141Y380489D01*
X114236Y380588D01*
X114334Y380684D01*
X114435Y380777D01*
X114539Y380867D01*
X114645Y380955D01*
X114754Y381039D01*
X114865Y381120D01*
X114979Y381198D01*
X115094Y381272D01*
X115212Y381343D01*
X115332Y381411D01*
X115454Y381475D01*
X115577Y381535D01*
X115702Y381592D01*
X115829Y381646D01*
X115957Y381695D01*
X116087Y381741D01*
X116218Y381783D01*
X116350Y381822D01*
X116483Y381856D01*
X116617Y381887D01*
X116752Y381913D01*
X116888Y381936D01*
X117024Y381955D01*
X117161Y381970D01*
X117298Y381981D01*
X117435Y381988D01*
X117573Y381991D01*
X117710Y381990D01*
X117848Y381985D01*
X117985Y381976D01*
X118122Y381963D01*
X118258Y381946D01*
X118394Y381925D01*
X118529Y381901D01*
X118664Y381872D01*
X118798Y381839D01*
X118930Y381803D01*
X119062Y381763D01*
X119192Y381719D01*
X119321Y381671D01*
X119449Y381619D01*
X119575Y381564D01*
X119699Y381506D01*
X119821Y381443D01*
X119942Y381377D01*
X120061Y381308D01*
X120178Y381235D01*
X120292Y381159D01*
X120405Y381080D01*
X120515Y380997D01*
X120622Y380911D01*
X120727Y380823D01*
X120829Y380731D01*
X120929Y380636D01*
X121026Y380538D01*
X121120Y380438D01*
X121211Y380335D01*
X121299Y380229D01*
X121384Y380121D01*
X121466Y380011D01*
X121545Y379898D01*
X121620Y379783D01*
X121692Y379665D01*
X121760Y379546D01*
X121825Y379425D01*
X121887Y379302D01*
X121944Y379177D01*
X121999Y379051D01*
X122049Y378923D01*
X122096Y378794D01*
X122139Y378663D01*
X122178Y378531D01*
X122214Y378398D01*
X122245Y378264D01*
X122273Y378130D01*
X122297Y377994D01*
X122317Y377858D01*
X122333Y377722D01*
X122345Y377585D01*
X122353Y377447D01*
X122357Y377310D01*
X122357Y377172D01*
X122353Y377035D01*
X122345Y376897D01*
X122333Y376760D01*
X122317Y376624D01*
X122297Y376488D01*
X122273Y376352D01*
X122245Y376218D01*
X122214Y376084D01*
X122178Y375951D01*
X122139Y375819D01*
X122096Y375688D01*
X122049Y375559D01*
X121999Y375431D01*
X121944Y375305D01*
X121887Y375180D01*
X121825Y375057D01*
X121760Y374936D01*
X121692Y374817D01*
X121620Y374699D01*
X121545Y374584D01*
X121466Y374471D01*
X121384Y374361D01*
X121299Y374253D01*
X121211Y374147D01*
X121120Y374044D01*
X121026Y373944D01*
X120929Y373846D01*
X120829Y373751D01*
X120727Y373659D01*
X120622Y373571D01*
X120515Y373485D01*
X120405Y373402D01*
X120292Y373323D01*
X120178Y373247D01*
X120061Y373174D01*
X119942Y373105D01*
X119821Y373039D01*
X119699Y372976D01*
X119575Y372918D01*
X119449Y372863D01*
X119321Y372811D01*
X119192Y372763D01*
X119062Y372719D01*
X118930Y372679D01*
X118798Y372643D01*
X118664Y372610D01*
X118529Y372581D01*
X118394Y372557D01*
X118258Y372536D01*
X118122Y372519D01*
X117985Y372506D01*
X117848Y372497D01*
X117710Y372492D01*
X117573Y372491D01*
X117435Y372494D01*
X117298Y372501D01*
X117161Y372512D01*
X117024Y372527D01*
X116888Y372546D01*
X116752Y372569D01*
X116617Y372595D01*
X116483Y372626D01*
X116350Y372660D01*
X116218Y372699D01*
X116087Y372741D01*
X115957Y372787D01*
X115829Y372836D01*
X115702Y372890D01*
X115577Y372947D01*
X115454Y373007D01*
X115332Y373071D01*
X115212Y373139D01*
X115094Y373210D01*
X114979Y373284D01*
X114865Y373362D01*
X114754Y373443D01*
X114645Y373527D01*
X114539Y373615D01*
X114435Y373705D01*
X114334Y373798D01*
X114236Y373894D01*
X114141Y373993D01*
X114048Y374095D01*
X113958Y374199D01*
X113872Y374306D01*
X113789Y374416D01*
X113708Y374527D01*
X113631Y374641D01*
X113558Y374758D01*
X113488Y374876D01*
X113421Y374996D01*
X113358Y375118D01*
X113298Y375242D01*
X113242Y375368D01*
X113190Y375495D01*
X113141Y375624D01*
X113096Y375754D01*
X113055Y375885D01*
X113017Y376017D01*
X112984Y376151D01*
X112954Y376285D01*
X112929Y376420D01*
X112907Y376556D01*
X112889Y376692D01*
X112875Y376829D01*
X112865Y376966D01*
X112859Y377103D01*
X112857Y377241D01*
X82857Y377241D02*
X82859Y377379D01*
X82865Y377516D01*
X82875Y377653D01*
X82889Y377790D01*
X82907Y377926D01*
X82929Y378062D01*
X82954Y378197D01*
X82984Y378331D01*
X83017Y378465D01*
X83055Y378597D01*
X83096Y378728D01*
X83141Y378858D01*
X83190Y378987D01*
X83242Y379114D01*
X83298Y379240D01*
X83358Y379364D01*
X83421Y379486D01*
X83488Y379606D01*
X83558Y379724D01*
X83631Y379841D01*
X83708Y379955D01*
X83789Y380066D01*
X83872Y380176D01*
X83958Y380283D01*
X84048Y380387D01*
X84141Y380489D01*
X84236Y380588D01*
X84334Y380684D01*
X84435Y380777D01*
X84539Y380867D01*
X84645Y380955D01*
X84754Y381039D01*
X84865Y381120D01*
X84979Y381198D01*
X85094Y381272D01*
X85212Y381343D01*
X85332Y381411D01*
X85454Y381475D01*
X85577Y381535D01*
X85702Y381592D01*
X85829Y381646D01*
X85957Y381695D01*
X86087Y381741D01*
X86218Y381783D01*
X86350Y381822D01*
X86483Y381856D01*
X86617Y381887D01*
X86752Y381913D01*
X86888Y381936D01*
X87024Y381955D01*
X87161Y381970D01*
X87298Y381981D01*
X87435Y381988D01*
X87573Y381991D01*
X87710Y381990D01*
X87848Y381985D01*
X87985Y381976D01*
X88122Y381963D01*
X88258Y381946D01*
X88394Y381925D01*
X88529Y381901D01*
X88664Y381872D01*
X88798Y381839D01*
X88930Y381803D01*
X89062Y381763D01*
X89192Y381719D01*
X89321Y381671D01*
X89449Y381619D01*
X89575Y381564D01*
X89699Y381506D01*
X89821Y381443D01*
X89942Y381377D01*
X90061Y381308D01*
X90178Y381235D01*
X90292Y381159D01*
X90405Y381080D01*
X90515Y380997D01*
X90622Y380911D01*
X90727Y380823D01*
X90829Y380731D01*
X90929Y380636D01*
X91026Y380538D01*
X91120Y380438D01*
X91211Y380335D01*
X91299Y380229D01*
X91384Y380121D01*
X91466Y380011D01*
X91545Y379898D01*
X91620Y379783D01*
X91692Y379665D01*
X91760Y379546D01*
X91825Y379425D01*
X91887Y379302D01*
X91944Y379177D01*
X91999Y379051D01*
X92049Y378923D01*
X92096Y378794D01*
X92139Y378663D01*
X92178Y378531D01*
X92214Y378398D01*
X92245Y378264D01*
X92273Y378130D01*
X92297Y377994D01*
X92317Y377858D01*
X92333Y377722D01*
X92345Y377585D01*
X92353Y377447D01*
X92357Y377310D01*
X92357Y377172D01*
X92353Y377035D01*
X92345Y376897D01*
X92333Y376760D01*
X92317Y376624D01*
X92297Y376488D01*
X92273Y376352D01*
X92245Y376218D01*
X92214Y376084D01*
X92178Y375951D01*
X92139Y375819D01*
X92096Y375688D01*
X92049Y375559D01*
X91999Y375431D01*
X91944Y375305D01*
X91887Y375180D01*
X91825Y375057D01*
X91760Y374936D01*
X91692Y374817D01*
X91620Y374699D01*
X91545Y374584D01*
X91466Y374471D01*
X91384Y374361D01*
X91299Y374253D01*
X91211Y374147D01*
X91120Y374044D01*
X91026Y373944D01*
X90929Y373846D01*
X90829Y373751D01*
X90727Y373659D01*
X90622Y373571D01*
X90515Y373485D01*
X90405Y373402D01*
X90292Y373323D01*
X90178Y373247D01*
X90061Y373174D01*
X89942Y373105D01*
X89821Y373039D01*
X89699Y372976D01*
X89575Y372918D01*
X89449Y372863D01*
X89321Y372811D01*
X89192Y372763D01*
X89062Y372719D01*
X88930Y372679D01*
X88798Y372643D01*
X88664Y372610D01*
X88529Y372581D01*
X88394Y372557D01*
X88258Y372536D01*
X88122Y372519D01*
X87985Y372506D01*
X87848Y372497D01*
X87710Y372492D01*
X87573Y372491D01*
X87435Y372494D01*
X87298Y372501D01*
X87161Y372512D01*
X87024Y372527D01*
X86888Y372546D01*
X86752Y372569D01*
X86617Y372595D01*
X86483Y372626D01*
X86350Y372660D01*
X86218Y372699D01*
X86087Y372741D01*
X85957Y372787D01*
X85829Y372836D01*
X85702Y372890D01*
X85577Y372947D01*
X85454Y373007D01*
X85332Y373071D01*
X85212Y373139D01*
X85094Y373210D01*
X84979Y373284D01*
X84865Y373362D01*
X84754Y373443D01*
X84645Y373527D01*
X84539Y373615D01*
X84435Y373705D01*
X84334Y373798D01*
X84236Y373894D01*
X84141Y373993D01*
X84048Y374095D01*
X83958Y374199D01*
X83872Y374306D01*
X83789Y374416D01*
X83708Y374527D01*
X83631Y374641D01*
X83558Y374758D01*
X83488Y374876D01*
X83421Y374996D01*
X83358Y375118D01*
X83298Y375242D01*
X83242Y375368D01*
X83190Y375495D01*
X83141Y375624D01*
X83096Y375754D01*
X83055Y375885D01*
X83017Y376017D01*
X82984Y376151D01*
X82954Y376285D01*
X82929Y376420D01*
X82907Y376556D01*
X82889Y376692D01*
X82875Y376829D01*
X82865Y376966D01*
X82859Y377103D01*
X82857Y377241D01*
X72800Y155950D02*
X61800Y155950D01*
X61689Y155948D01*
X61578Y155942D01*
X61468Y155933D01*
X61357Y155920D01*
X61248Y155903D01*
X61139Y155882D01*
X61031Y155858D01*
X60923Y155829D01*
X60817Y155798D01*
X60712Y155762D01*
X60608Y155723D01*
X60505Y155681D01*
X60404Y155635D01*
X60305Y155586D01*
X60207Y155533D01*
X60111Y155477D01*
X60018Y155418D01*
X59926Y155355D01*
X59836Y155290D01*
X59749Y155221D01*
X59664Y155150D01*
X59582Y155075D01*
X59502Y154998D01*
X59425Y154918D01*
X59350Y154836D01*
X59279Y154751D01*
X59210Y154664D01*
X59145Y154574D01*
X59082Y154482D01*
X59023Y154389D01*
X58967Y154293D01*
X58914Y154195D01*
X58865Y154096D01*
X58819Y153995D01*
X58777Y153892D01*
X58738Y153788D01*
X58702Y153683D01*
X58671Y153577D01*
X58642Y153469D01*
X58618Y153361D01*
X58597Y153252D01*
X58580Y153143D01*
X58567Y153032D01*
X58558Y152922D01*
X58552Y152811D01*
X58550Y152700D01*
X58552Y152589D01*
X58558Y152478D01*
X58567Y152368D01*
X58580Y152257D01*
X58597Y152148D01*
X58618Y152039D01*
X58642Y151931D01*
X58671Y151823D01*
X58702Y151717D01*
X58738Y151612D01*
X58777Y151508D01*
X58819Y151405D01*
X58865Y151304D01*
X58914Y151205D01*
X58967Y151107D01*
X59023Y151011D01*
X59082Y150918D01*
X59145Y150826D01*
X59210Y150736D01*
X59279Y150649D01*
X59350Y150564D01*
X59425Y150482D01*
X59502Y150402D01*
X59582Y150325D01*
X59664Y150250D01*
X59749Y150179D01*
X59836Y150110D01*
X59926Y150045D01*
X60018Y149982D01*
X60111Y149923D01*
X60207Y149867D01*
X60305Y149814D01*
X60404Y149765D01*
X60505Y149719D01*
X60608Y149677D01*
X60712Y149638D01*
X60817Y149602D01*
X60923Y149571D01*
X61031Y149542D01*
X61139Y149518D01*
X61248Y149497D01*
X61357Y149480D01*
X61468Y149467D01*
X61578Y149458D01*
X61689Y149452D01*
X61800Y149450D01*
X72800Y149450D01*
X72911Y149452D01*
X73022Y149458D01*
X73132Y149467D01*
X73243Y149480D01*
X73352Y149497D01*
X73461Y149518D01*
X73569Y149542D01*
X73677Y149571D01*
X73783Y149602D01*
X73888Y149638D01*
X73992Y149677D01*
X74095Y149719D01*
X74196Y149765D01*
X74295Y149814D01*
X74393Y149867D01*
X74489Y149923D01*
X74582Y149982D01*
X74674Y150045D01*
X74764Y150110D01*
X74851Y150179D01*
X74936Y150250D01*
X75018Y150325D01*
X75098Y150402D01*
X75175Y150482D01*
X75250Y150564D01*
X75321Y150649D01*
X75390Y150736D01*
X75455Y150826D01*
X75518Y150918D01*
X75577Y151011D01*
X75633Y151107D01*
X75686Y151205D01*
X75735Y151304D01*
X75781Y151405D01*
X75823Y151508D01*
X75862Y151612D01*
X75898Y151717D01*
X75929Y151823D01*
X75958Y151931D01*
X75982Y152039D01*
X76003Y152148D01*
X76020Y152257D01*
X76033Y152368D01*
X76042Y152478D01*
X76048Y152589D01*
X76050Y152700D01*
X76048Y152811D01*
X76042Y152922D01*
X76033Y153032D01*
X76020Y153143D01*
X76003Y153252D01*
X75982Y153361D01*
X75958Y153469D01*
X75929Y153577D01*
X75898Y153683D01*
X75862Y153788D01*
X75823Y153892D01*
X75781Y153995D01*
X75735Y154096D01*
X75686Y154195D01*
X75633Y154293D01*
X75577Y154389D01*
X75518Y154482D01*
X75455Y154574D01*
X75390Y154664D01*
X75321Y154751D01*
X75250Y154836D01*
X75175Y154918D01*
X75098Y154998D01*
X75018Y155075D01*
X74936Y155150D01*
X74851Y155221D01*
X74764Y155290D01*
X74674Y155355D01*
X74582Y155418D01*
X74489Y155477D01*
X74393Y155533D01*
X74295Y155586D01*
X74196Y155635D01*
X74095Y155681D01*
X73992Y155723D01*
X73888Y155762D01*
X73783Y155798D01*
X73677Y155829D01*
X73569Y155858D01*
X73461Y155882D01*
X73352Y155903D01*
X73243Y155920D01*
X73132Y155933D01*
X73022Y155942D01*
X72911Y155948D01*
X72800Y155950D01*
X72800Y69550D02*
X61800Y69550D01*
X61689Y69548D01*
X61578Y69542D01*
X61468Y69533D01*
X61357Y69520D01*
X61248Y69503D01*
X61139Y69482D01*
X61031Y69458D01*
X60923Y69429D01*
X60817Y69398D01*
X60712Y69362D01*
X60608Y69323D01*
X60505Y69281D01*
X60404Y69235D01*
X60305Y69186D01*
X60207Y69133D01*
X60111Y69077D01*
X60018Y69018D01*
X59926Y68955D01*
X59836Y68890D01*
X59749Y68821D01*
X59664Y68750D01*
X59582Y68675D01*
X59502Y68598D01*
X59425Y68518D01*
X59350Y68436D01*
X59279Y68351D01*
X59210Y68264D01*
X59145Y68174D01*
X59082Y68082D01*
X59023Y67989D01*
X58967Y67893D01*
X58914Y67795D01*
X58865Y67696D01*
X58819Y67595D01*
X58777Y67492D01*
X58738Y67388D01*
X58702Y67283D01*
X58671Y67177D01*
X58642Y67069D01*
X58618Y66961D01*
X58597Y66852D01*
X58580Y66743D01*
X58567Y66632D01*
X58558Y66522D01*
X58552Y66411D01*
X58550Y66300D01*
X58552Y66189D01*
X58558Y66078D01*
X58567Y65968D01*
X58580Y65857D01*
X58597Y65748D01*
X58618Y65639D01*
X58642Y65531D01*
X58671Y65423D01*
X58702Y65317D01*
X58738Y65212D01*
X58777Y65108D01*
X58819Y65005D01*
X58865Y64904D01*
X58914Y64805D01*
X58967Y64707D01*
X59023Y64611D01*
X59082Y64518D01*
X59145Y64426D01*
X59210Y64336D01*
X59279Y64249D01*
X59350Y64164D01*
X59425Y64082D01*
X59502Y64002D01*
X59582Y63925D01*
X59664Y63850D01*
X59749Y63779D01*
X59836Y63710D01*
X59926Y63645D01*
X60018Y63582D01*
X60111Y63523D01*
X60207Y63467D01*
X60305Y63414D01*
X60404Y63365D01*
X60505Y63319D01*
X60608Y63277D01*
X60712Y63238D01*
X60817Y63202D01*
X60923Y63171D01*
X61031Y63142D01*
X61139Y63118D01*
X61248Y63097D01*
X61357Y63080D01*
X61468Y63067D01*
X61578Y63058D01*
X61689Y63052D01*
X61800Y63050D01*
X72800Y63050D01*
X72911Y63052D01*
X73022Y63058D01*
X73132Y63067D01*
X73243Y63080D01*
X73352Y63097D01*
X73461Y63118D01*
X73569Y63142D01*
X73677Y63171D01*
X73783Y63202D01*
X73888Y63238D01*
X73992Y63277D01*
X74095Y63319D01*
X74196Y63365D01*
X74295Y63414D01*
X74393Y63467D01*
X74489Y63523D01*
X74582Y63582D01*
X74674Y63645D01*
X74764Y63710D01*
X74851Y63779D01*
X74936Y63850D01*
X75018Y63925D01*
X75098Y64002D01*
X75175Y64082D01*
X75250Y64164D01*
X75321Y64249D01*
X75390Y64336D01*
X75455Y64426D01*
X75518Y64518D01*
X75577Y64611D01*
X75633Y64707D01*
X75686Y64805D01*
X75735Y64904D01*
X75781Y65005D01*
X75823Y65108D01*
X75862Y65212D01*
X75898Y65317D01*
X75929Y65423D01*
X75958Y65531D01*
X75982Y65639D01*
X76003Y65748D01*
X76020Y65857D01*
X76033Y65968D01*
X76042Y66078D01*
X76048Y66189D01*
X76050Y66300D01*
X76048Y66411D01*
X76042Y66522D01*
X76033Y66632D01*
X76020Y66743D01*
X76003Y66852D01*
X75982Y66961D01*
X75958Y67069D01*
X75929Y67177D01*
X75898Y67283D01*
X75862Y67388D01*
X75823Y67492D01*
X75781Y67595D01*
X75735Y67696D01*
X75686Y67795D01*
X75633Y67893D01*
X75577Y67989D01*
X75518Y68082D01*
X75455Y68174D01*
X75390Y68264D01*
X75321Y68351D01*
X75250Y68436D01*
X75175Y68518D01*
X75098Y68598D01*
X75018Y68675D01*
X74936Y68750D01*
X74851Y68821D01*
X74764Y68890D01*
X74674Y68955D01*
X74582Y69018D01*
X74489Y69077D01*
X74393Y69133D01*
X74295Y69186D01*
X74196Y69235D01*
X74095Y69281D01*
X73992Y69323D01*
X73888Y69362D01*
X73783Y69398D01*
X73677Y69429D01*
X73569Y69458D01*
X73461Y69482D01*
X73352Y69503D01*
X73243Y69520D01*
X73132Y69533D01*
X73022Y69542D01*
X72911Y69548D01*
X72800Y69550D01*
X28500Y155950D02*
X22500Y155950D01*
X22389Y155948D01*
X22278Y155942D01*
X22168Y155933D01*
X22057Y155920D01*
X21948Y155903D01*
X21839Y155882D01*
X21731Y155858D01*
X21623Y155829D01*
X21517Y155798D01*
X21412Y155762D01*
X21308Y155723D01*
X21205Y155681D01*
X21104Y155635D01*
X21005Y155586D01*
X20907Y155533D01*
X20811Y155477D01*
X20718Y155418D01*
X20626Y155355D01*
X20536Y155290D01*
X20449Y155221D01*
X20364Y155150D01*
X20282Y155075D01*
X20202Y154998D01*
X20125Y154918D01*
X20050Y154836D01*
X19979Y154751D01*
X19910Y154664D01*
X19845Y154574D01*
X19782Y154482D01*
X19723Y154389D01*
X19667Y154293D01*
X19614Y154195D01*
X19565Y154096D01*
X19519Y153995D01*
X19477Y153892D01*
X19438Y153788D01*
X19402Y153683D01*
X19371Y153577D01*
X19342Y153469D01*
X19318Y153361D01*
X19297Y153252D01*
X19280Y153143D01*
X19267Y153032D01*
X19258Y152922D01*
X19252Y152811D01*
X19250Y152700D01*
X19252Y152589D01*
X19258Y152478D01*
X19267Y152368D01*
X19280Y152257D01*
X19297Y152148D01*
X19318Y152039D01*
X19342Y151931D01*
X19371Y151823D01*
X19402Y151717D01*
X19438Y151612D01*
X19477Y151508D01*
X19519Y151405D01*
X19565Y151304D01*
X19614Y151205D01*
X19667Y151107D01*
X19723Y151011D01*
X19782Y150918D01*
X19845Y150826D01*
X19910Y150736D01*
X19979Y150649D01*
X20050Y150564D01*
X20125Y150482D01*
X20202Y150402D01*
X20282Y150325D01*
X20364Y150250D01*
X20449Y150179D01*
X20536Y150110D01*
X20626Y150045D01*
X20718Y149982D01*
X20811Y149923D01*
X20907Y149867D01*
X21005Y149814D01*
X21104Y149765D01*
X21205Y149719D01*
X21308Y149677D01*
X21412Y149638D01*
X21517Y149602D01*
X21623Y149571D01*
X21731Y149542D01*
X21839Y149518D01*
X21948Y149497D01*
X22057Y149480D01*
X22168Y149467D01*
X22278Y149458D01*
X22389Y149452D01*
X22500Y149450D01*
X28500Y149450D01*
X28611Y149452D01*
X28722Y149458D01*
X28832Y149467D01*
X28943Y149480D01*
X29052Y149497D01*
X29161Y149518D01*
X29269Y149542D01*
X29377Y149571D01*
X29483Y149602D01*
X29588Y149638D01*
X29692Y149677D01*
X29795Y149719D01*
X29896Y149765D01*
X29995Y149814D01*
X30093Y149867D01*
X30189Y149923D01*
X30282Y149982D01*
X30374Y150045D01*
X30464Y150110D01*
X30551Y150179D01*
X30636Y150250D01*
X30718Y150325D01*
X30798Y150402D01*
X30875Y150482D01*
X30950Y150564D01*
X31021Y150649D01*
X31090Y150736D01*
X31155Y150826D01*
X31218Y150918D01*
X31277Y151011D01*
X31333Y151107D01*
X31386Y151205D01*
X31435Y151304D01*
X31481Y151405D01*
X31523Y151508D01*
X31562Y151612D01*
X31598Y151717D01*
X31629Y151823D01*
X31658Y151931D01*
X31682Y152039D01*
X31703Y152148D01*
X31720Y152257D01*
X31733Y152368D01*
X31742Y152478D01*
X31748Y152589D01*
X31750Y152700D01*
X31748Y152811D01*
X31742Y152922D01*
X31733Y153032D01*
X31720Y153143D01*
X31703Y153252D01*
X31682Y153361D01*
X31658Y153469D01*
X31629Y153577D01*
X31598Y153683D01*
X31562Y153788D01*
X31523Y153892D01*
X31481Y153995D01*
X31435Y154096D01*
X31386Y154195D01*
X31333Y154293D01*
X31277Y154389D01*
X31218Y154482D01*
X31155Y154574D01*
X31090Y154664D01*
X31021Y154751D01*
X30950Y154836D01*
X30875Y154918D01*
X30798Y154998D01*
X30718Y155075D01*
X30636Y155150D01*
X30551Y155221D01*
X30464Y155290D01*
X30374Y155355D01*
X30282Y155418D01*
X30189Y155477D01*
X30093Y155533D01*
X29995Y155586D01*
X29896Y155635D01*
X29795Y155681D01*
X29692Y155723D01*
X29588Y155762D01*
X29483Y155798D01*
X29377Y155829D01*
X29269Y155858D01*
X29161Y155882D01*
X29052Y155903D01*
X28943Y155920D01*
X28832Y155933D01*
X28722Y155942D01*
X28611Y155948D01*
X28500Y155950D01*
X28500Y69550D02*
X22500Y69550D01*
X22389Y69548D01*
X22278Y69542D01*
X22168Y69533D01*
X22057Y69520D01*
X21948Y69503D01*
X21839Y69482D01*
X21731Y69458D01*
X21623Y69429D01*
X21517Y69398D01*
X21412Y69362D01*
X21308Y69323D01*
X21205Y69281D01*
X21104Y69235D01*
X21005Y69186D01*
X20907Y69133D01*
X20811Y69077D01*
X20718Y69018D01*
X20626Y68955D01*
X20536Y68890D01*
X20449Y68821D01*
X20364Y68750D01*
X20282Y68675D01*
X20202Y68598D01*
X20125Y68518D01*
X20050Y68436D01*
X19979Y68351D01*
X19910Y68264D01*
X19845Y68174D01*
X19782Y68082D01*
X19723Y67989D01*
X19667Y67893D01*
X19614Y67795D01*
X19565Y67696D01*
X19519Y67595D01*
X19477Y67492D01*
X19438Y67388D01*
X19402Y67283D01*
X19371Y67177D01*
X19342Y67069D01*
X19318Y66961D01*
X19297Y66852D01*
X19280Y66743D01*
X19267Y66632D01*
X19258Y66522D01*
X19252Y66411D01*
X19250Y66300D01*
X19252Y66189D01*
X19258Y66078D01*
X19267Y65968D01*
X19280Y65857D01*
X19297Y65748D01*
X19318Y65639D01*
X19342Y65531D01*
X19371Y65423D01*
X19402Y65317D01*
X19438Y65212D01*
X19477Y65108D01*
X19519Y65005D01*
X19565Y64904D01*
X19614Y64805D01*
X19667Y64707D01*
X19723Y64611D01*
X19782Y64518D01*
X19845Y64426D01*
X19910Y64336D01*
X19979Y64249D01*
X20050Y64164D01*
X20125Y64082D01*
X20202Y64002D01*
X20282Y63925D01*
X20364Y63850D01*
X20449Y63779D01*
X20536Y63710D01*
X20626Y63645D01*
X20718Y63582D01*
X20811Y63523D01*
X20907Y63467D01*
X21005Y63414D01*
X21104Y63365D01*
X21205Y63319D01*
X21308Y63277D01*
X21412Y63238D01*
X21517Y63202D01*
X21623Y63171D01*
X21731Y63142D01*
X21839Y63118D01*
X21948Y63097D01*
X22057Y63080D01*
X22168Y63067D01*
X22278Y63058D01*
X22389Y63052D01*
X22500Y63050D01*
X28500Y63050D01*
X28611Y63052D01*
X28722Y63058D01*
X28832Y63067D01*
X28943Y63080D01*
X29052Y63097D01*
X29161Y63118D01*
X29269Y63142D01*
X29377Y63171D01*
X29483Y63202D01*
X29588Y63238D01*
X29692Y63277D01*
X29795Y63319D01*
X29896Y63365D01*
X29995Y63414D01*
X30093Y63467D01*
X30189Y63523D01*
X30282Y63582D01*
X30374Y63645D01*
X30464Y63710D01*
X30551Y63779D01*
X30636Y63850D01*
X30718Y63925D01*
X30798Y64002D01*
X30875Y64082D01*
X30950Y64164D01*
X31021Y64249D01*
X31090Y64336D01*
X31155Y64426D01*
X31218Y64518D01*
X31277Y64611D01*
X31333Y64707D01*
X31386Y64805D01*
X31435Y64904D01*
X31481Y65005D01*
X31523Y65108D01*
X31562Y65212D01*
X31598Y65317D01*
X31629Y65423D01*
X31658Y65531D01*
X31682Y65639D01*
X31703Y65748D01*
X31720Y65857D01*
X31733Y65968D01*
X31742Y66078D01*
X31748Y66189D01*
X31750Y66300D01*
X31748Y66411D01*
X31742Y66522D01*
X31733Y66632D01*
X31720Y66743D01*
X31703Y66852D01*
X31682Y66961D01*
X31658Y67069D01*
X31629Y67177D01*
X31598Y67283D01*
X31562Y67388D01*
X31523Y67492D01*
X31481Y67595D01*
X31435Y67696D01*
X31386Y67795D01*
X31333Y67893D01*
X31277Y67989D01*
X31218Y68082D01*
X31155Y68174D01*
X31090Y68264D01*
X31021Y68351D01*
X30950Y68436D01*
X30875Y68518D01*
X30798Y68598D01*
X30718Y68675D01*
X30636Y68750D01*
X30551Y68821D01*
X30464Y68890D01*
X30374Y68955D01*
X30282Y69018D01*
X30189Y69077D01*
X30093Y69133D01*
X29995Y69186D01*
X29896Y69235D01*
X29795Y69281D01*
X29692Y69323D01*
X29588Y69362D01*
X29483Y69398D01*
X29377Y69429D01*
X29269Y69458D01*
X29161Y69482D01*
X29052Y69503D01*
X28943Y69520D01*
X28832Y69533D01*
X28722Y69542D01*
X28611Y69548D01*
X28500Y69550D01*
X58500Y138400D02*
X58502Y138518D01*
X58508Y138636D01*
X58518Y138754D01*
X58532Y138871D01*
X58550Y138988D01*
X58572Y139105D01*
X58597Y139220D01*
X58627Y139334D01*
X58661Y139448D01*
X58698Y139560D01*
X58739Y139671D01*
X58784Y139780D01*
X58832Y139888D01*
X58884Y139994D01*
X58940Y140099D01*
X58999Y140201D01*
X59061Y140301D01*
X59127Y140399D01*
X59196Y140495D01*
X59269Y140589D01*
X59344Y140680D01*
X59423Y140768D01*
X59504Y140854D01*
X59589Y140937D01*
X59676Y141017D01*
X59765Y141094D01*
X59858Y141168D01*
X59952Y141238D01*
X60049Y141306D01*
X60149Y141370D01*
X60250Y141431D01*
X60353Y141488D01*
X60459Y141542D01*
X60566Y141593D01*
X60674Y141639D01*
X60784Y141682D01*
X60896Y141721D01*
X61009Y141757D01*
X61123Y141788D01*
X61238Y141816D01*
X61353Y141840D01*
X61470Y141860D01*
X61587Y141876D01*
X61705Y141888D01*
X61823Y141896D01*
X61941Y141900D01*
X62059Y141900D01*
X62177Y141896D01*
X62295Y141888D01*
X62413Y141876D01*
X62530Y141860D01*
X62647Y141840D01*
X62762Y141816D01*
X62877Y141788D01*
X62991Y141757D01*
X63104Y141721D01*
X63216Y141682D01*
X63326Y141639D01*
X63434Y141593D01*
X63541Y141542D01*
X63647Y141488D01*
X63750Y141431D01*
X63851Y141370D01*
X63951Y141306D01*
X64048Y141238D01*
X64142Y141168D01*
X64235Y141094D01*
X64324Y141017D01*
X64411Y140937D01*
X64496Y140854D01*
X64577Y140768D01*
X64656Y140680D01*
X64731Y140589D01*
X64804Y140495D01*
X64873Y140399D01*
X64939Y140301D01*
X65001Y140201D01*
X65060Y140099D01*
X65116Y139994D01*
X65168Y139888D01*
X65216Y139780D01*
X65261Y139671D01*
X65302Y139560D01*
X65339Y139448D01*
X65373Y139334D01*
X65403Y139220D01*
X65428Y139105D01*
X65450Y138988D01*
X65468Y138871D01*
X65482Y138754D01*
X65492Y138636D01*
X65498Y138518D01*
X65500Y138400D01*
X65498Y138282D01*
X65492Y138164D01*
X65482Y138046D01*
X65468Y137929D01*
X65450Y137812D01*
X65428Y137695D01*
X65403Y137580D01*
X65373Y137466D01*
X65339Y137352D01*
X65302Y137240D01*
X65261Y137129D01*
X65216Y137020D01*
X65168Y136912D01*
X65116Y136806D01*
X65060Y136701D01*
X65001Y136599D01*
X64939Y136499D01*
X64873Y136401D01*
X64804Y136305D01*
X64731Y136211D01*
X64656Y136120D01*
X64577Y136032D01*
X64496Y135946D01*
X64411Y135863D01*
X64324Y135783D01*
X64235Y135706D01*
X64142Y135632D01*
X64048Y135562D01*
X63951Y135494D01*
X63851Y135430D01*
X63750Y135369D01*
X63647Y135312D01*
X63541Y135258D01*
X63434Y135207D01*
X63326Y135161D01*
X63216Y135118D01*
X63104Y135079D01*
X62991Y135043D01*
X62877Y135012D01*
X62762Y134984D01*
X62647Y134960D01*
X62530Y134940D01*
X62413Y134924D01*
X62295Y134912D01*
X62177Y134904D01*
X62059Y134900D01*
X61941Y134900D01*
X61823Y134904D01*
X61705Y134912D01*
X61587Y134924D01*
X61470Y134940D01*
X61353Y134960D01*
X61238Y134984D01*
X61123Y135012D01*
X61009Y135043D01*
X60896Y135079D01*
X60784Y135118D01*
X60674Y135161D01*
X60566Y135207D01*
X60459Y135258D01*
X60353Y135312D01*
X60250Y135369D01*
X60149Y135430D01*
X60049Y135494D01*
X59952Y135562D01*
X59858Y135632D01*
X59765Y135706D01*
X59676Y135783D01*
X59589Y135863D01*
X59504Y135946D01*
X59423Y136032D01*
X59344Y136120D01*
X59269Y136211D01*
X59196Y136305D01*
X59127Y136401D01*
X59061Y136499D01*
X58999Y136599D01*
X58940Y136701D01*
X58884Y136806D01*
X58832Y136912D01*
X58784Y137020D01*
X58739Y137129D01*
X58698Y137240D01*
X58661Y137352D01*
X58627Y137466D01*
X58597Y137580D01*
X58572Y137695D01*
X58550Y137812D01*
X58532Y137929D01*
X58518Y138046D01*
X58508Y138164D01*
X58502Y138282D01*
X58500Y138400D01*
X58500Y80600D02*
X58502Y80718D01*
X58508Y80836D01*
X58518Y80954D01*
X58532Y81071D01*
X58550Y81188D01*
X58572Y81305D01*
X58597Y81420D01*
X58627Y81534D01*
X58661Y81648D01*
X58698Y81760D01*
X58739Y81871D01*
X58784Y81980D01*
X58832Y82088D01*
X58884Y82194D01*
X58940Y82299D01*
X58999Y82401D01*
X59061Y82501D01*
X59127Y82599D01*
X59196Y82695D01*
X59269Y82789D01*
X59344Y82880D01*
X59423Y82968D01*
X59504Y83054D01*
X59589Y83137D01*
X59676Y83217D01*
X59765Y83294D01*
X59858Y83368D01*
X59952Y83438D01*
X60049Y83506D01*
X60149Y83570D01*
X60250Y83631D01*
X60353Y83688D01*
X60459Y83742D01*
X60566Y83793D01*
X60674Y83839D01*
X60784Y83882D01*
X60896Y83921D01*
X61009Y83957D01*
X61123Y83988D01*
X61238Y84016D01*
X61353Y84040D01*
X61470Y84060D01*
X61587Y84076D01*
X61705Y84088D01*
X61823Y84096D01*
X61941Y84100D01*
X62059Y84100D01*
X62177Y84096D01*
X62295Y84088D01*
X62413Y84076D01*
X62530Y84060D01*
X62647Y84040D01*
X62762Y84016D01*
X62877Y83988D01*
X62991Y83957D01*
X63104Y83921D01*
X63216Y83882D01*
X63326Y83839D01*
X63434Y83793D01*
X63541Y83742D01*
X63647Y83688D01*
X63750Y83631D01*
X63851Y83570D01*
X63951Y83506D01*
X64048Y83438D01*
X64142Y83368D01*
X64235Y83294D01*
X64324Y83217D01*
X64411Y83137D01*
X64496Y83054D01*
X64577Y82968D01*
X64656Y82880D01*
X64731Y82789D01*
X64804Y82695D01*
X64873Y82599D01*
X64939Y82501D01*
X65001Y82401D01*
X65060Y82299D01*
X65116Y82194D01*
X65168Y82088D01*
X65216Y81980D01*
X65261Y81871D01*
X65302Y81760D01*
X65339Y81648D01*
X65373Y81534D01*
X65403Y81420D01*
X65428Y81305D01*
X65450Y81188D01*
X65468Y81071D01*
X65482Y80954D01*
X65492Y80836D01*
X65498Y80718D01*
X65500Y80600D01*
X65498Y80482D01*
X65492Y80364D01*
X65482Y80246D01*
X65468Y80129D01*
X65450Y80012D01*
X65428Y79895D01*
X65403Y79780D01*
X65373Y79666D01*
X65339Y79552D01*
X65302Y79440D01*
X65261Y79329D01*
X65216Y79220D01*
X65168Y79112D01*
X65116Y79006D01*
X65060Y78901D01*
X65001Y78799D01*
X64939Y78699D01*
X64873Y78601D01*
X64804Y78505D01*
X64731Y78411D01*
X64656Y78320D01*
X64577Y78232D01*
X64496Y78146D01*
X64411Y78063D01*
X64324Y77983D01*
X64235Y77906D01*
X64142Y77832D01*
X64048Y77762D01*
X63951Y77694D01*
X63851Y77630D01*
X63750Y77569D01*
X63647Y77512D01*
X63541Y77458D01*
X63434Y77407D01*
X63326Y77361D01*
X63216Y77318D01*
X63104Y77279D01*
X62991Y77243D01*
X62877Y77212D01*
X62762Y77184D01*
X62647Y77160D01*
X62530Y77140D01*
X62413Y77124D01*
X62295Y77112D01*
X62177Y77104D01*
X62059Y77100D01*
X61941Y77100D01*
X61823Y77104D01*
X61705Y77112D01*
X61587Y77124D01*
X61470Y77140D01*
X61353Y77160D01*
X61238Y77184D01*
X61123Y77212D01*
X61009Y77243D01*
X60896Y77279D01*
X60784Y77318D01*
X60674Y77361D01*
X60566Y77407D01*
X60459Y77458D01*
X60353Y77512D01*
X60250Y77569D01*
X60149Y77630D01*
X60049Y77694D01*
X59952Y77762D01*
X59858Y77832D01*
X59765Y77906D01*
X59676Y77983D01*
X59589Y78063D01*
X59504Y78146D01*
X59423Y78232D01*
X59344Y78320D01*
X59269Y78411D01*
X59196Y78505D01*
X59127Y78601D01*
X59061Y78699D01*
X58999Y78799D01*
X58940Y78901D01*
X58884Y79006D01*
X58832Y79112D01*
X58784Y79220D01*
X58739Y79329D01*
X58698Y79440D01*
X58661Y79552D01*
X58627Y79666D01*
X58597Y79780D01*
X58572Y79895D01*
X58550Y80012D01*
X58532Y80129D01*
X58518Y80246D01*
X58508Y80364D01*
X58502Y80482D01*
X58500Y80600D01*
X250650Y388350D02*
X250652Y388472D01*
X250658Y388594D01*
X250668Y388716D01*
X250682Y388837D01*
X250700Y388958D01*
X250721Y389078D01*
X250747Y389197D01*
X250776Y389316D01*
X250810Y389433D01*
X250847Y389549D01*
X250888Y389664D01*
X250933Y389778D01*
X250981Y389890D01*
X251033Y390001D01*
X251088Y390109D01*
X251147Y390216D01*
X251210Y390321D01*
X251276Y390424D01*
X251345Y390524D01*
X251417Y390623D01*
X251493Y390719D01*
X251571Y390812D01*
X251653Y390903D01*
X251738Y390991D01*
X251825Y391076D01*
X251915Y391158D01*
X252008Y391238D01*
X252103Y391314D01*
X252201Y391387D01*
X252301Y391457D01*
X252403Y391524D01*
X252507Y391587D01*
X252614Y391647D01*
X252722Y391704D01*
X252832Y391756D01*
X252944Y391806D01*
X253057Y391851D01*
X253172Y391893D01*
X253288Y391931D01*
X253405Y391966D01*
X253523Y391996D01*
X253642Y392023D01*
X253762Y392045D01*
X253883Y392064D01*
X254004Y392079D01*
X254126Y392090D01*
X254247Y392097D01*
X254369Y392100D01*
X254492Y392099D01*
X254614Y392094D01*
X254735Y392085D01*
X254857Y392072D01*
X254978Y392055D01*
X255098Y392034D01*
X255217Y392010D01*
X255336Y391981D01*
X255454Y391949D01*
X255570Y391913D01*
X255686Y391873D01*
X255800Y391829D01*
X255912Y391782D01*
X256023Y391731D01*
X256132Y391676D01*
X256240Y391618D01*
X256345Y391556D01*
X256448Y391491D01*
X256550Y391423D01*
X256648Y391351D01*
X256745Y391276D01*
X256839Y391199D01*
X256930Y391118D01*
X257019Y391034D01*
X257105Y390947D01*
X257188Y390858D01*
X257268Y390766D01*
X257345Y390671D01*
X257419Y390574D01*
X257490Y390474D01*
X257558Y390373D01*
X257622Y390269D01*
X257683Y390163D01*
X257740Y390055D01*
X257794Y389946D01*
X257844Y389834D01*
X257890Y389721D01*
X257933Y389607D01*
X257972Y389491D01*
X258007Y389375D01*
X258039Y389257D01*
X258066Y389138D01*
X258090Y389018D01*
X258110Y388897D01*
X258126Y388776D01*
X258138Y388655D01*
X258146Y388533D01*
X258150Y388411D01*
X258150Y388289D01*
X258146Y388167D01*
X258138Y388045D01*
X258126Y387924D01*
X258110Y387803D01*
X258090Y387682D01*
X258066Y387562D01*
X258039Y387443D01*
X258007Y387325D01*
X257972Y387209D01*
X257933Y387093D01*
X257890Y386979D01*
X257844Y386866D01*
X257794Y386754D01*
X257740Y386645D01*
X257683Y386537D01*
X257622Y386431D01*
X257558Y386327D01*
X257490Y386226D01*
X257419Y386126D01*
X257345Y386029D01*
X257268Y385934D01*
X257188Y385842D01*
X257105Y385753D01*
X257019Y385666D01*
X256930Y385582D01*
X256839Y385501D01*
X256745Y385424D01*
X256648Y385349D01*
X256550Y385277D01*
X256448Y385209D01*
X256345Y385144D01*
X256240Y385082D01*
X256132Y385024D01*
X256023Y384969D01*
X255912Y384918D01*
X255800Y384871D01*
X255686Y384827D01*
X255570Y384787D01*
X255454Y384751D01*
X255336Y384719D01*
X255217Y384690D01*
X255098Y384666D01*
X254978Y384645D01*
X254857Y384628D01*
X254735Y384615D01*
X254614Y384606D01*
X254492Y384601D01*
X254369Y384600D01*
X254247Y384603D01*
X254126Y384610D01*
X254004Y384621D01*
X253883Y384636D01*
X253762Y384655D01*
X253642Y384677D01*
X253523Y384704D01*
X253405Y384734D01*
X253288Y384769D01*
X253172Y384807D01*
X253057Y384849D01*
X252944Y384894D01*
X252832Y384944D01*
X252722Y384996D01*
X252614Y385053D01*
X252507Y385113D01*
X252403Y385176D01*
X252301Y385243D01*
X252201Y385313D01*
X252103Y385386D01*
X252008Y385462D01*
X251915Y385542D01*
X251825Y385624D01*
X251738Y385709D01*
X251653Y385797D01*
X251571Y385888D01*
X251493Y385981D01*
X251417Y386077D01*
X251345Y386176D01*
X251276Y386276D01*
X251210Y386379D01*
X251147Y386484D01*
X251088Y386591D01*
X251033Y386699D01*
X250981Y386810D01*
X250933Y386922D01*
X250888Y387036D01*
X250847Y387151D01*
X250810Y387267D01*
X250776Y387384D01*
X250747Y387503D01*
X250721Y387622D01*
X250700Y387742D01*
X250682Y387863D01*
X250668Y387984D01*
X250658Y388106D01*
X250652Y388228D01*
X250650Y388350D01*
X250650Y360850D02*
X250652Y360972D01*
X250658Y361094D01*
X250668Y361216D01*
X250682Y361337D01*
X250700Y361458D01*
X250721Y361578D01*
X250747Y361697D01*
X250776Y361816D01*
X250810Y361933D01*
X250847Y362049D01*
X250888Y362164D01*
X250933Y362278D01*
X250981Y362390D01*
X251033Y362501D01*
X251088Y362609D01*
X251147Y362716D01*
X251210Y362821D01*
X251276Y362924D01*
X251345Y363024D01*
X251417Y363123D01*
X251493Y363219D01*
X251571Y363312D01*
X251653Y363403D01*
X251738Y363491D01*
X251825Y363576D01*
X251915Y363658D01*
X252008Y363738D01*
X252103Y363814D01*
X252201Y363887D01*
X252301Y363957D01*
X252403Y364024D01*
X252507Y364087D01*
X252614Y364147D01*
X252722Y364204D01*
X252832Y364256D01*
X252944Y364306D01*
X253057Y364351D01*
X253172Y364393D01*
X253288Y364431D01*
X253405Y364466D01*
X253523Y364496D01*
X253642Y364523D01*
X253762Y364545D01*
X253883Y364564D01*
X254004Y364579D01*
X254126Y364590D01*
X254247Y364597D01*
X254369Y364600D01*
X254492Y364599D01*
X254614Y364594D01*
X254735Y364585D01*
X254857Y364572D01*
X254978Y364555D01*
X255098Y364534D01*
X255217Y364510D01*
X255336Y364481D01*
X255454Y364449D01*
X255570Y364413D01*
X255686Y364373D01*
X255800Y364329D01*
X255912Y364282D01*
X256023Y364231D01*
X256132Y364176D01*
X256240Y364118D01*
X256345Y364056D01*
X256448Y363991D01*
X256550Y363923D01*
X256648Y363851D01*
X256745Y363776D01*
X256839Y363699D01*
X256930Y363618D01*
X257019Y363534D01*
X257105Y363447D01*
X257188Y363358D01*
X257268Y363266D01*
X257345Y363171D01*
X257419Y363074D01*
X257490Y362974D01*
X257558Y362873D01*
X257622Y362769D01*
X257683Y362663D01*
X257740Y362555D01*
X257794Y362446D01*
X257844Y362334D01*
X257890Y362221D01*
X257933Y362107D01*
X257972Y361991D01*
X258007Y361875D01*
X258039Y361757D01*
X258066Y361638D01*
X258090Y361518D01*
X258110Y361397D01*
X258126Y361276D01*
X258138Y361155D01*
X258146Y361033D01*
X258150Y360911D01*
X258150Y360789D01*
X258146Y360667D01*
X258138Y360545D01*
X258126Y360424D01*
X258110Y360303D01*
X258090Y360182D01*
X258066Y360062D01*
X258039Y359943D01*
X258007Y359825D01*
X257972Y359709D01*
X257933Y359593D01*
X257890Y359479D01*
X257844Y359366D01*
X257794Y359254D01*
X257740Y359145D01*
X257683Y359037D01*
X257622Y358931D01*
X257558Y358827D01*
X257490Y358726D01*
X257419Y358626D01*
X257345Y358529D01*
X257268Y358434D01*
X257188Y358342D01*
X257105Y358253D01*
X257019Y358166D01*
X256930Y358082D01*
X256839Y358001D01*
X256745Y357924D01*
X256648Y357849D01*
X256550Y357777D01*
X256448Y357709D01*
X256345Y357644D01*
X256240Y357582D01*
X256132Y357524D01*
X256023Y357469D01*
X255912Y357418D01*
X255800Y357371D01*
X255686Y357327D01*
X255570Y357287D01*
X255454Y357251D01*
X255336Y357219D01*
X255217Y357190D01*
X255098Y357166D01*
X254978Y357145D01*
X254857Y357128D01*
X254735Y357115D01*
X254614Y357106D01*
X254492Y357101D01*
X254369Y357100D01*
X254247Y357103D01*
X254126Y357110D01*
X254004Y357121D01*
X253883Y357136D01*
X253762Y357155D01*
X253642Y357177D01*
X253523Y357204D01*
X253405Y357234D01*
X253288Y357269D01*
X253172Y357307D01*
X253057Y357349D01*
X252944Y357394D01*
X252832Y357444D01*
X252722Y357496D01*
X252614Y357553D01*
X252507Y357613D01*
X252403Y357676D01*
X252301Y357743D01*
X252201Y357813D01*
X252103Y357886D01*
X252008Y357962D01*
X251915Y358042D01*
X251825Y358124D01*
X251738Y358209D01*
X251653Y358297D01*
X251571Y358388D01*
X251493Y358481D01*
X251417Y358577D01*
X251345Y358676D01*
X251276Y358776D01*
X251210Y358879D01*
X251147Y358984D01*
X251088Y359091D01*
X251033Y359199D01*
X250981Y359310D01*
X250933Y359422D01*
X250888Y359536D01*
X250847Y359651D01*
X250810Y359767D01*
X250776Y359884D01*
X250747Y360003D01*
X250721Y360122D01*
X250700Y360242D01*
X250682Y360363D01*
X250668Y360484D01*
X250658Y360606D01*
X250652Y360728D01*
X250650Y360850D01*
D11*
X2537Y393369D02*
X3231Y1271D01*
X465255Y1575D01*
X464993Y392202D01*
X2537Y393369D01*
X19250Y66300D02*
X19262Y66017D01*
X19299Y65736D01*
X19361Y65459D01*
X19446Y65188D01*
X19555Y64927D01*
X19685Y64675D01*
X19838Y64436D01*
X20010Y64211D01*
X20202Y64002D01*
X20411Y63810D01*
X20636Y63638D01*
X20875Y63485D01*
X21127Y63355D01*
X21388Y63246D01*
X21659Y63161D01*
X21936Y63099D01*
X22217Y63062D01*
X22500Y63050D01*
X28500Y63050D01*
X28783Y63062D01*
X29064Y63099D01*
X29341Y63161D01*
X29612Y63246D01*
X29874Y63355D01*
X30125Y63485D01*
X30364Y63638D01*
X30589Y63810D01*
X30798Y64002D01*
X30990Y64211D01*
X31162Y64436D01*
X31315Y64675D01*
X31446Y64927D01*
X31554Y65188D01*
X31639Y65459D01*
X31701Y65736D01*
X31738Y66017D01*
X31750Y66300D01*
X31738Y66583D01*
X31701Y66864D01*
X31639Y67141D01*
X31554Y67412D01*
X31446Y67674D01*
X31315Y67925D01*
X31162Y68164D01*
X30990Y68389D01*
X30798Y68598D01*
X30589Y68790D01*
X30364Y68962D01*
X30125Y69115D01*
X29874Y69246D01*
X29612Y69354D01*
X29341Y69439D01*
X29064Y69501D01*
X28783Y69538D01*
X28500Y69550D01*
X22500Y69550D01*
X22217Y69538D01*
X21936Y69501D01*
X21659Y69439D01*
X21388Y69354D01*
X21127Y69246D01*
X20875Y69115D01*
X20636Y68962D01*
X20411Y68790D01*
X20202Y68598D01*
X20010Y68389D01*
X19838Y68164D01*
X19685Y67925D01*
X19555Y67674D01*
X19446Y67412D01*
X19361Y67141D01*
X19299Y66864D01*
X19262Y66583D01*
X19250Y66300D01*
X19250Y152700D02*
X19262Y152417D01*
X19299Y152136D01*
X19361Y151859D01*
X19446Y151588D01*
X19555Y151327D01*
X19685Y151075D01*
X19838Y150836D01*
X20010Y150611D01*
X20202Y150402D01*
X20411Y150210D01*
X20636Y150038D01*
X20875Y149885D01*
X21127Y149755D01*
X21388Y149646D01*
X21659Y149561D01*
X21936Y149499D01*
X22217Y149462D01*
X22500Y149450D01*
X28500Y149450D01*
X28783Y149462D01*
X29064Y149499D01*
X29341Y149561D01*
X29612Y149646D01*
X29874Y149755D01*
X30125Y149885D01*
X30364Y150038D01*
X30589Y150210D01*
X30798Y150402D01*
X30990Y150611D01*
X31162Y150836D01*
X31315Y151075D01*
X31446Y151327D01*
X31554Y151588D01*
X31639Y151859D01*
X31701Y152136D01*
X31738Y152417D01*
X31750Y152700D01*
X31738Y152983D01*
X31701Y153264D01*
X31639Y153541D01*
X31554Y153812D01*
X31446Y154074D01*
X31315Y154325D01*
X31162Y154564D01*
X30990Y154789D01*
X30798Y154998D01*
X30589Y155190D01*
X30364Y155362D01*
X30125Y155515D01*
X29874Y155646D01*
X29612Y155754D01*
X29341Y155839D01*
X29064Y155901D01*
X28783Y155938D01*
X28500Y155950D01*
X22500Y155950D01*
X22217Y155938D01*
X21936Y155901D01*
X21659Y155839D01*
X21388Y155754D01*
X21127Y155646D01*
X20875Y155515D01*
X20636Y155362D01*
X20411Y155190D01*
X20202Y154998D01*
X20010Y154789D01*
X19838Y154564D01*
X19685Y154325D01*
X19555Y154074D01*
X19446Y153812D01*
X19361Y153541D01*
X19299Y153264D01*
X19262Y152983D01*
X19250Y152700D01*
X58550Y66300D02*
X58562Y66017D01*
X58599Y65736D01*
X58661Y65459D01*
X58746Y65188D01*
X58855Y64927D01*
X58985Y64675D01*
X59138Y64436D01*
X59310Y64211D01*
X59502Y64002D01*
X59711Y63810D01*
X59936Y63638D01*
X60175Y63485D01*
X60427Y63355D01*
X60688Y63246D01*
X60959Y63161D01*
X61236Y63099D01*
X61517Y63062D01*
X61800Y63050D01*
X72800Y63050D01*
X73083Y63062D01*
X73364Y63099D01*
X73641Y63161D01*
X73912Y63246D01*
X74174Y63355D01*
X74425Y63485D01*
X74664Y63638D01*
X74889Y63810D01*
X75098Y64002D01*
X75290Y64211D01*
X75462Y64436D01*
X75615Y64675D01*
X75746Y64927D01*
X75854Y65188D01*
X75939Y65459D01*
X76001Y65736D01*
X76038Y66017D01*
X76050Y66300D01*
X76038Y66583D01*
X76001Y66864D01*
X75939Y67141D01*
X75854Y67412D01*
X75746Y67674D01*
X75615Y67925D01*
X75462Y68164D01*
X75290Y68389D01*
X75098Y68598D01*
X74889Y68790D01*
X74664Y68962D01*
X74425Y69115D01*
X74174Y69246D01*
X73912Y69354D01*
X73641Y69439D01*
X73364Y69501D01*
X73083Y69538D01*
X72800Y69550D01*
X61800Y69550D01*
X61517Y69538D01*
X61236Y69501D01*
X60959Y69439D01*
X60688Y69354D01*
X60427Y69246D01*
X60175Y69115D01*
X59936Y68962D01*
X59711Y68790D01*
X59502Y68598D01*
X59310Y68389D01*
X59138Y68164D01*
X58985Y67925D01*
X58855Y67674D01*
X58746Y67412D01*
X58661Y67141D01*
X58599Y66864D01*
X58562Y66583D01*
X58550Y66300D01*
X58550Y152700D02*
X58562Y152417D01*
X58599Y152136D01*
X58661Y151859D01*
X58746Y151588D01*
X58855Y151327D01*
X58985Y151075D01*
X59138Y150836D01*
X59310Y150611D01*
X59502Y150402D01*
X59711Y150210D01*
X59936Y150038D01*
X60175Y149885D01*
X60427Y149755D01*
X60688Y149646D01*
X60959Y149561D01*
X61236Y149499D01*
X61517Y149462D01*
X61800Y149450D01*
X72800Y149450D01*
X73083Y149462D01*
X73364Y149499D01*
X73641Y149561D01*
X73912Y149646D01*
X74174Y149755D01*
X74425Y149885D01*
X74664Y150038D01*
X74889Y150210D01*
X75098Y150402D01*
X75290Y150611D01*
X75462Y150836D01*
X75615Y151075D01*
X75746Y151327D01*
X75854Y151588D01*
X75939Y151859D01*
X76001Y152136D01*
X76038Y152417D01*
X76050Y152700D01*
X76038Y152983D01*
X76001Y153264D01*
X75939Y153541D01*
X75854Y153812D01*
X75746Y154074D01*
X75615Y154325D01*
X75462Y154564D01*
X75290Y154789D01*
X75098Y154998D01*
X74889Y155190D01*
X74664Y155362D01*
X74425Y155515D01*
X74174Y155646D01*
X73912Y155754D01*
X73641Y155839D01*
X73364Y155901D01*
X73083Y155938D01*
X72800Y155950D01*
X61800Y155950D01*
X61517Y155938D01*
X61236Y155901D01*
X60959Y155839D01*
X60688Y155754D01*
X60427Y155646D01*
X60175Y155515D01*
X59936Y155362D01*
X59711Y155190D01*
X59502Y154998D01*
X59310Y154789D01*
X59138Y154564D01*
X58985Y154325D01*
X58855Y154074D01*
X58746Y153812D01*
X58661Y153541D01*
X58599Y153264D01*
X58562Y152983D01*
X58550Y152700D01*
X112857Y377507D02*
X112917Y378038D01*
X113036Y378558D01*
X113212Y379061D01*
X113444Y379542D01*
X113727Y379994D01*
X114060Y380411D01*
X114437Y380788D01*
X114854Y381121D01*
X115306Y381404D01*
X115787Y381636D01*
X116290Y381812D01*
X116811Y381931D01*
X117341Y381991D01*
X117874Y381991D01*
X118404Y381931D01*
X118924Y381812D01*
X119428Y381636D01*
X119909Y381404D01*
X120360Y381121D01*
X120778Y380788D01*
X121155Y380411D01*
X121487Y379994D01*
X121771Y379542D01*
X122003Y379061D01*
X122179Y378558D01*
X122298Y378038D01*
X122357Y377507D01*
X122357Y376974D01*
X122298Y376444D01*
X122179Y375924D01*
X122003Y375420D01*
X121771Y374939D01*
X121487Y374488D01*
X121155Y374070D01*
X120778Y373693D01*
X120360Y373361D01*
X119909Y373077D01*
X119428Y372845D01*
X118924Y372669D01*
X118404Y372550D01*
X117874Y372491D01*
X117341Y372491D01*
X116811Y372550D01*
X116290Y372669D01*
X115787Y372845D01*
X115306Y373077D01*
X114854Y373361D01*
X114437Y373693D01*
X114060Y374070D01*
X113727Y374488D01*
X113444Y374939D01*
X113212Y375420D01*
X113036Y375924D01*
X112917Y376444D01*
X112857Y376974D01*
X112857Y377507D01*
X82857Y377507D02*
X82917Y378038D01*
X83036Y378558D01*
X83212Y379061D01*
X83444Y379542D01*
X83727Y379994D01*
X84060Y380411D01*
X84437Y380788D01*
X84854Y381121D01*
X85306Y381404D01*
X85787Y381636D01*
X86290Y381812D01*
X86811Y381931D01*
X87341Y381991D01*
X87874Y381991D01*
X88404Y381931D01*
X88924Y381812D01*
X89428Y381636D01*
X89909Y381404D01*
X90360Y381121D01*
X90778Y380788D01*
X91155Y380411D01*
X91487Y379994D01*
X91771Y379542D01*
X92003Y379061D01*
X92179Y378558D01*
X92298Y378038D01*
X92357Y377507D01*
X92357Y376974D01*
X92298Y376444D01*
X92179Y375924D01*
X92003Y375420D01*
X91771Y374939D01*
X91487Y374488D01*
X91155Y374070D01*
X90778Y373693D01*
X90360Y373361D01*
X89909Y373077D01*
X89428Y372845D01*
X88924Y372669D01*
X88404Y372550D01*
X87874Y372491D01*
X87341Y372491D01*
X86811Y372550D01*
X86290Y372669D01*
X85787Y372845D01*
X85306Y373077D01*
X84854Y373361D01*
X84437Y373693D01*
X84060Y374070D01*
X83727Y374488D01*
X83444Y374939D01*
X83212Y375420D01*
X83036Y375924D01*
X82917Y376444D01*
X82857Y376974D01*
X82857Y377507D01*
X61771Y134900D02*
X61316Y134960D01*
X60873Y135079D01*
X60449Y135254D01*
X60051Y135484D01*
X59687Y135763D01*
X59363Y136087D01*
X59084Y136451D01*
X58854Y136849D01*
X58679Y137273D01*
X58560Y137716D01*
X58500Y138171D01*
X58500Y138629D01*
X58560Y139084D01*
X58679Y139527D01*
X58854Y139951D01*
X59084Y140349D01*
X59363Y140713D01*
X59687Y141037D01*
X60051Y141316D01*
X60449Y141546D01*
X60873Y141721D01*
X61316Y141840D01*
X61771Y141900D01*
X62229Y141900D01*
X62684Y141840D01*
X63127Y141721D01*
X63551Y141546D01*
X63949Y141316D01*
X64313Y141037D01*
X64637Y140713D01*
X64916Y140349D01*
X65146Y139951D01*
X65321Y139527D01*
X65440Y139084D01*
X65500Y138629D01*
X65500Y138171D01*
X65440Y137716D01*
X65321Y137273D01*
X65146Y136849D01*
X64916Y136451D01*
X64637Y136087D01*
X64313Y135763D01*
X63949Y135484D01*
X63551Y135254D01*
X63127Y135079D01*
X62684Y134960D01*
X62229Y134900D01*
X61771Y134900D01*
X61771Y77100D02*
X61316Y77160D01*
X60873Y77279D01*
X60449Y77454D01*
X60051Y77684D01*
X59687Y77963D01*
X59363Y78287D01*
X59084Y78651D01*
X58854Y79049D01*
X58679Y79473D01*
X58560Y79916D01*
X58500Y80371D01*
X58500Y80829D01*
X58560Y81284D01*
X58679Y81727D01*
X58854Y82151D01*
X59084Y82549D01*
X59363Y82913D01*
X59687Y83237D01*
X60051Y83516D01*
X60449Y83746D01*
X60873Y83921D01*
X61316Y84040D01*
X61771Y84100D01*
X62229Y84100D01*
X62684Y84040D01*
X63127Y83921D01*
X63551Y83746D01*
X63949Y83516D01*
X64313Y83237D01*
X64637Y82913D01*
X64916Y82549D01*
X65146Y82151D01*
X65321Y81727D01*
X65440Y81284D01*
X65500Y80829D01*
X65500Y80371D01*
X65440Y79916D01*
X65321Y79473D01*
X65146Y79049D01*
X64916Y78651D01*
X64637Y78287D01*
X64313Y77963D01*
X63949Y77684D01*
X63551Y77454D01*
X63127Y77279D01*
X62684Y77160D01*
X62229Y77100D01*
X61771Y77100D01*
X258150Y388104D02*
X258086Y387617D01*
X257959Y387142D01*
X257771Y386688D01*
X257525Y386262D01*
X257225Y385872D01*
X256878Y385525D01*
X256488Y385225D01*
X256062Y384980D01*
X255608Y384791D01*
X255133Y384664D01*
X254646Y384600D01*
X254154Y384600D01*
X253667Y384664D01*
X253192Y384791D01*
X252738Y384980D01*
X252312Y385225D01*
X251922Y385525D01*
X251575Y385872D01*
X251275Y386262D01*
X251030Y386688D01*
X250841Y387142D01*
X250714Y387617D01*
X250650Y388104D01*
X250650Y388596D01*
X250714Y389083D01*
X250841Y389558D01*
X251030Y390012D01*
X251275Y390438D01*
X251575Y390828D01*
X251922Y391175D01*
X252312Y391475D01*
X252738Y391721D01*
X253192Y391909D01*
X253667Y392036D01*
X254154Y392100D01*
X254646Y392100D01*
X255133Y392036D01*
X255608Y391909D01*
X256062Y391721D01*
X256488Y391475D01*
X256878Y391175D01*
X257225Y390828D01*
X257525Y390438D01*
X257771Y390012D01*
X257959Y389558D01*
X258086Y389083D01*
X258150Y388596D01*
X258150Y388104D01*
X258150Y360604D02*
X258086Y360117D01*
X257959Y359642D01*
X257771Y359188D01*
X257525Y358762D01*
X257225Y358372D01*
X256878Y358025D01*
X256488Y357725D01*
X256062Y357480D01*
X255608Y357291D01*
X255133Y357164D01*
X254646Y357100D01*
X254154Y357100D01*
X253667Y357164D01*
X253192Y357291D01*
X252738Y357480D01*
X252312Y357725D01*
X251922Y358025D01*
X251575Y358372D01*
X251275Y358762D01*
X251030Y359188D01*
X250841Y359642D01*
X250714Y360117D01*
X250650Y360604D01*
X250650Y361096D01*
X250714Y361583D01*
X250841Y362058D01*
X251030Y362512D01*
X251275Y362938D01*
X251575Y363328D01*
X251922Y363675D01*
X252312Y363975D01*
X252738Y364221D01*
X253192Y364409D01*
X253667Y364536D01*
X254154Y364600D01*
X254646Y364600D01*
X255133Y364536D01*
X255608Y364409D01*
X256062Y364221D01*
X256488Y363975D01*
X256878Y363675D01*
X257225Y363328D01*
X257525Y362938D01*
X257771Y362512D01*
X257959Y362058D01*
X258086Y361583D01*
X258150Y361096D01*
X258150Y360604D01*
M02*
