G04 EAGLE Gerber RS-274X export*
G75*
%MOMM*%
%FSLAX34Y34*%
%LPD*%
%INSoldermask Top*%
%IPPOS*%
%AMOC8*
5,1,8,0,0,1.08239X$1,22.5*%
G01*
%ADD10R,1.703200X0.638200*%
%ADD11R,0.803200X1.403200*%
%ADD12R,1.303200X2.103200*%
%ADD13R,0.903200X2.703200*%
%ADD14R,2.703200X0.903200*%
%ADD15R,2.103200X1.303200*%
%ADD16R,1.403200X1.403200*%
%ADD17C,0.661406*%
%ADD18R,0.903200X1.703200*%
%ADD19C,1.153200*%
%ADD20R,1.203200X1.003200*%
%ADD21R,0.503200X1.603200*%
%ADD22C,2.003200*%
%ADD23C,0.275422*%
%ADD24R,1.653200X0.803200*%
%ADD25R,1.653200X0.503200*%
%ADD26C,1.361200*%
%ADD27C,0.903200*%
%ADD28R,0.803200X1.303200*%
%ADD29R,1.403200X1.203200*%
%ADD30C,0.953200*%
%ADD31R,2.103200X2.603200*%


D10*
X336035Y242752D03*
X336035Y249092D03*
X336035Y255452D03*
X336035Y261792D03*
X336035Y268152D03*
X336035Y274492D03*
X336035Y280852D03*
X336035Y287192D03*
X277345Y287192D03*
X277345Y280852D03*
X277345Y274492D03*
X277345Y268152D03*
X277345Y261792D03*
X277345Y255452D03*
X277345Y249092D03*
X277345Y242752D03*
D11*
X138798Y64739D03*
X129298Y64739D03*
X119798Y64739D03*
X119798Y39739D03*
X138798Y39739D03*
D12*
X188086Y21187D03*
X302086Y21187D03*
D13*
X207586Y57187D03*
X222586Y57187D03*
X237586Y57187D03*
X252586Y57187D03*
X267586Y57187D03*
X282586Y57187D03*
D14*
X408720Y104207D03*
D15*
X444721Y153710D03*
X444720Y24707D03*
D14*
X408720Y119207D03*
X408720Y134207D03*
X408720Y89207D03*
X408720Y74207D03*
X408720Y59207D03*
X408720Y44207D03*
X408893Y289135D03*
D15*
X444893Y368635D03*
X444893Y209635D03*
D14*
X408893Y304135D03*
X408893Y319135D03*
X408893Y334135D03*
X408893Y349135D03*
X408893Y274135D03*
X408893Y259135D03*
X408893Y244135D03*
X408893Y229135D03*
D16*
X36765Y332656D03*
X15765Y332656D03*
X168112Y332656D03*
X189112Y332656D03*
D17*
X39974Y363020D02*
X31556Y363020D01*
X39974Y363020D02*
X39974Y352602D01*
X31556Y352602D01*
X31556Y363020D01*
X31556Y358885D02*
X39974Y358885D01*
X20974Y363020D02*
X12556Y363020D01*
X20974Y363020D02*
X20974Y352602D01*
X12556Y352602D01*
X12556Y363020D01*
X12556Y358885D02*
X20974Y358885D01*
X164903Y352602D02*
X173321Y352602D01*
X164903Y352602D02*
X164903Y363020D01*
X173321Y363020D01*
X173321Y352602D01*
X173321Y358885D02*
X164903Y358885D01*
X183903Y352602D02*
X192321Y352602D01*
X183903Y352602D02*
X183903Y363020D01*
X192321Y363020D01*
X192321Y352602D01*
X192321Y358885D02*
X183903Y358885D01*
X93840Y320671D02*
X85422Y320671D01*
X85422Y331089D01*
X93840Y331089D01*
X93840Y320671D01*
X93840Y326954D02*
X85422Y326954D01*
X104422Y320671D02*
X112840Y320671D01*
X104422Y320671D02*
X104422Y331089D01*
X112840Y331089D01*
X112840Y320671D01*
X112840Y326954D02*
X104422Y326954D01*
D18*
X125107Y359741D03*
X95107Y359741D03*
X80107Y359741D03*
D19*
X117607Y377241D03*
X87607Y377241D03*
D20*
X139107Y366741D03*
X66107Y366741D03*
X139107Y387741D03*
X66107Y387741D03*
D17*
X50010Y238000D02*
X41592Y238000D01*
X41592Y249418D01*
X50010Y249418D01*
X50010Y238000D01*
X50010Y244283D02*
X41592Y244283D01*
X61592Y238000D02*
X70010Y238000D01*
X61592Y238000D02*
X61592Y249418D01*
X70010Y249418D01*
X70010Y238000D01*
X70010Y244283D02*
X61592Y244283D01*
X88332Y237827D02*
X96750Y237827D01*
X88332Y237827D02*
X88332Y249245D01*
X96750Y249245D01*
X96750Y237827D01*
X96750Y244110D02*
X88332Y244110D01*
X108332Y237827D02*
X116750Y237827D01*
X108332Y237827D02*
X108332Y249245D01*
X116750Y249245D01*
X116750Y237827D01*
X116750Y244110D02*
X108332Y244110D01*
X49630Y217049D02*
X41212Y217049D01*
X41212Y228467D01*
X49630Y228467D01*
X49630Y217049D01*
X49630Y223332D02*
X41212Y223332D01*
X61212Y217049D02*
X69630Y217049D01*
X61212Y217049D02*
X61212Y228467D01*
X69630Y228467D01*
X69630Y217049D01*
X69630Y223332D02*
X61212Y223332D01*
X87770Y216876D02*
X96188Y216876D01*
X87770Y216876D02*
X87770Y228294D01*
X96188Y228294D01*
X96188Y216876D01*
X96188Y223159D02*
X87770Y223159D01*
X107770Y216876D02*
X116188Y216876D01*
X107770Y216876D02*
X107770Y228294D01*
X116188Y228294D01*
X116188Y216876D01*
X116188Y223159D02*
X107770Y223159D01*
X49757Y196232D02*
X41339Y196232D01*
X41339Y207650D01*
X49757Y207650D01*
X49757Y196232D01*
X49757Y202515D02*
X41339Y202515D01*
X61339Y196232D02*
X69757Y196232D01*
X61339Y196232D02*
X61339Y207650D01*
X69757Y207650D01*
X69757Y196232D01*
X69757Y202515D02*
X61339Y202515D01*
X87775Y196060D02*
X96193Y196060D01*
X87775Y196060D02*
X87775Y207478D01*
X96193Y207478D01*
X96193Y196060D01*
X96193Y202343D02*
X87775Y202343D01*
X107775Y196060D02*
X116193Y196060D01*
X107775Y196060D02*
X107775Y207478D01*
X116193Y207478D01*
X116193Y196060D01*
X116193Y202343D02*
X107775Y202343D01*
X49757Y175259D02*
X41339Y175259D01*
X41339Y186677D01*
X49757Y186677D01*
X49757Y175259D01*
X49757Y181542D02*
X41339Y181542D01*
X61339Y175259D02*
X69757Y175259D01*
X61339Y175259D02*
X61339Y186677D01*
X69757Y186677D01*
X69757Y175259D01*
X69757Y181542D02*
X61339Y181542D01*
X167215Y241593D02*
X175633Y241593D01*
X175633Y230175D01*
X167215Y230175D01*
X167215Y241593D01*
X167215Y236458D02*
X175633Y236458D01*
X155633Y241593D02*
X147215Y241593D01*
X155633Y241593D02*
X155633Y230175D01*
X147215Y230175D01*
X147215Y241593D01*
X147215Y236458D02*
X155633Y236458D01*
X167215Y263592D02*
X175633Y263592D01*
X175633Y252174D01*
X167215Y252174D01*
X167215Y263592D01*
X167215Y258457D02*
X175633Y258457D01*
X155633Y263592D02*
X147215Y263592D01*
X155633Y263592D02*
X155633Y252174D01*
X147215Y252174D01*
X147215Y263592D01*
X147215Y258457D02*
X155633Y258457D01*
X167215Y286141D02*
X175633Y286141D01*
X175633Y274723D01*
X167215Y274723D01*
X167215Y286141D01*
X167215Y281006D02*
X175633Y281006D01*
X155633Y286141D02*
X147215Y286141D01*
X155633Y286141D02*
X155633Y274723D01*
X147215Y274723D01*
X147215Y286141D01*
X147215Y281006D02*
X155633Y281006D01*
X167215Y308108D02*
X175633Y308108D01*
X175633Y296690D01*
X167215Y296690D01*
X167215Y308108D01*
X167215Y302973D02*
X175633Y302973D01*
X155633Y308108D02*
X147215Y308108D01*
X155633Y308108D02*
X155633Y296690D01*
X147215Y296690D01*
X147215Y308108D01*
X147215Y302973D02*
X155633Y302973D01*
X170432Y59978D02*
X170432Y51560D01*
X159014Y51560D01*
X159014Y59978D01*
X170432Y59978D01*
X170432Y57843D02*
X159014Y57843D01*
X170432Y71560D02*
X170432Y79978D01*
X170432Y71560D02*
X159014Y71560D01*
X159014Y79978D01*
X170432Y79978D01*
X170432Y77843D02*
X159014Y77843D01*
X241318Y320092D02*
X249736Y320092D01*
X241318Y320092D02*
X241318Y331510D01*
X249736Y331510D01*
X249736Y320092D01*
X249736Y326375D02*
X241318Y326375D01*
X261318Y320092D02*
X269736Y320092D01*
X261318Y320092D02*
X261318Y331510D01*
X269736Y331510D01*
X269736Y320092D01*
X269736Y326375D02*
X261318Y326375D01*
X317666Y331209D02*
X326084Y331209D01*
X326084Y319791D01*
X317666Y319791D01*
X317666Y331209D01*
X317666Y326074D02*
X326084Y326074D01*
X306084Y331209D02*
X297666Y331209D01*
X306084Y331209D02*
X306084Y319791D01*
X297666Y319791D01*
X297666Y331209D01*
X297666Y326074D02*
X306084Y326074D01*
X253565Y293950D02*
X245147Y293950D01*
X253565Y293950D02*
X253565Y282532D01*
X245147Y282532D01*
X245147Y293950D01*
X245147Y288815D02*
X253565Y288815D01*
X233565Y293950D02*
X225147Y293950D01*
X233565Y293950D02*
X233565Y282532D01*
X225147Y282532D01*
X225147Y293950D01*
X225147Y288815D02*
X233565Y288815D01*
X338699Y202932D02*
X338699Y194514D01*
X327281Y194514D01*
X327281Y202932D01*
X338699Y202932D01*
X338699Y200797D02*
X327281Y200797D01*
X338699Y214514D02*
X338699Y222932D01*
X338699Y214514D02*
X327281Y214514D01*
X327281Y222932D01*
X338699Y222932D01*
X338699Y220797D02*
X327281Y220797D01*
X327388Y97595D02*
X327388Y89177D01*
X316970Y89177D01*
X316970Y97595D01*
X327388Y97595D01*
X327388Y95460D02*
X316970Y95460D01*
X327388Y108177D02*
X327388Y116595D01*
X327388Y108177D02*
X316970Y108177D01*
X316970Y116595D01*
X327388Y116595D01*
X327388Y114460D02*
X316970Y114460D01*
X130580Y10366D02*
X122162Y10366D01*
X122162Y20784D01*
X130580Y20784D01*
X130580Y10366D01*
X130580Y16649D02*
X122162Y16649D01*
X141162Y10366D02*
X149580Y10366D01*
X141162Y10366D02*
X141162Y20784D01*
X149580Y20784D01*
X149580Y10366D01*
X149580Y16649D02*
X141162Y16649D01*
X225647Y260041D02*
X234065Y260041D01*
X225647Y260041D02*
X225647Y270459D01*
X234065Y270459D01*
X234065Y260041D01*
X234065Y266324D02*
X225647Y266324D01*
X244647Y260041D02*
X253065Y260041D01*
X244647Y260041D02*
X244647Y270459D01*
X253065Y270459D01*
X253065Y260041D01*
X253065Y266324D02*
X244647Y266324D01*
X355527Y185802D02*
X363945Y185802D01*
X355527Y185802D02*
X355527Y196220D01*
X363945Y196220D01*
X363945Y185802D01*
X363945Y192085D02*
X355527Y192085D01*
X374527Y185802D02*
X382945Y185802D01*
X374527Y185802D02*
X374527Y196220D01*
X382945Y196220D01*
X382945Y185802D01*
X382945Y192085D02*
X374527Y192085D01*
D21*
X145277Y140414D03*
X140277Y140414D03*
X135277Y140414D03*
X130277Y140414D03*
X125277Y140414D03*
X125277Y96414D03*
X130277Y96414D03*
X135277Y96414D03*
X140277Y96414D03*
X145277Y96414D03*
D22*
X330345Y28559D03*
X357572Y28548D03*
D23*
X203236Y100881D02*
X203236Y115759D01*
X203236Y100881D02*
X201158Y100881D01*
X201158Y115759D01*
X203236Y115759D01*
X203236Y103497D02*
X201158Y103497D01*
X201158Y106113D02*
X203236Y106113D01*
X203236Y108729D02*
X201158Y108729D01*
X201158Y111345D02*
X203236Y111345D01*
X203236Y113961D02*
X201158Y113961D01*
X208236Y115759D02*
X208236Y100881D01*
X206158Y100881D01*
X206158Y115759D01*
X208236Y115759D01*
X208236Y103497D02*
X206158Y103497D01*
X206158Y106113D02*
X208236Y106113D01*
X208236Y108729D02*
X206158Y108729D01*
X206158Y111345D02*
X208236Y111345D01*
X208236Y113961D02*
X206158Y113961D01*
X213236Y115759D02*
X213236Y100881D01*
X211158Y100881D01*
X211158Y115759D01*
X213236Y115759D01*
X213236Y103497D02*
X211158Y103497D01*
X211158Y106113D02*
X213236Y106113D01*
X213236Y108729D02*
X211158Y108729D01*
X211158Y111345D02*
X213236Y111345D01*
X213236Y113961D02*
X211158Y113961D01*
X218236Y115759D02*
X218236Y100881D01*
X216158Y100881D01*
X216158Y115759D01*
X218236Y115759D01*
X218236Y103497D02*
X216158Y103497D01*
X216158Y106113D02*
X218236Y106113D01*
X218236Y108729D02*
X216158Y108729D01*
X216158Y111345D02*
X218236Y111345D01*
X218236Y113961D02*
X216158Y113961D01*
X223236Y115759D02*
X223236Y100881D01*
X221158Y100881D01*
X221158Y115759D01*
X223236Y115759D01*
X223236Y103497D02*
X221158Y103497D01*
X221158Y106113D02*
X223236Y106113D01*
X223236Y108729D02*
X221158Y108729D01*
X221158Y111345D02*
X223236Y111345D01*
X223236Y113961D02*
X221158Y113961D01*
X228236Y115759D02*
X228236Y100881D01*
X226158Y100881D01*
X226158Y115759D01*
X228236Y115759D01*
X228236Y103497D02*
X226158Y103497D01*
X226158Y106113D02*
X228236Y106113D01*
X228236Y108729D02*
X226158Y108729D01*
X226158Y111345D02*
X228236Y111345D01*
X228236Y113961D02*
X226158Y113961D01*
X233236Y115759D02*
X233236Y100881D01*
X231158Y100881D01*
X231158Y115759D01*
X233236Y115759D01*
X233236Y103497D02*
X231158Y103497D01*
X231158Y106113D02*
X233236Y106113D01*
X233236Y108729D02*
X231158Y108729D01*
X231158Y111345D02*
X233236Y111345D01*
X233236Y113961D02*
X231158Y113961D01*
X238236Y115759D02*
X238236Y100881D01*
X236158Y100881D01*
X236158Y115759D01*
X238236Y115759D01*
X238236Y103497D02*
X236158Y103497D01*
X236158Y106113D02*
X238236Y106113D01*
X238236Y108729D02*
X236158Y108729D01*
X236158Y111345D02*
X238236Y111345D01*
X238236Y113961D02*
X236158Y113961D01*
X243236Y115759D02*
X243236Y100881D01*
X241158Y100881D01*
X241158Y115759D01*
X243236Y115759D01*
X243236Y103497D02*
X241158Y103497D01*
X241158Y106113D02*
X243236Y106113D01*
X243236Y108729D02*
X241158Y108729D01*
X241158Y111345D02*
X243236Y111345D01*
X243236Y113961D02*
X241158Y113961D01*
X248236Y115759D02*
X248236Y100881D01*
X246158Y100881D01*
X246158Y115759D01*
X248236Y115759D01*
X248236Y103497D02*
X246158Y103497D01*
X246158Y106113D02*
X248236Y106113D01*
X248236Y108729D02*
X246158Y108729D01*
X246158Y111345D02*
X248236Y111345D01*
X248236Y113961D02*
X246158Y113961D01*
X253236Y115759D02*
X253236Y100881D01*
X251158Y100881D01*
X251158Y115759D01*
X253236Y115759D01*
X253236Y103497D02*
X251158Y103497D01*
X251158Y106113D02*
X253236Y106113D01*
X253236Y108729D02*
X251158Y108729D01*
X251158Y111345D02*
X253236Y111345D01*
X253236Y113961D02*
X251158Y113961D01*
X258236Y115759D02*
X258236Y100881D01*
X256158Y100881D01*
X256158Y115759D01*
X258236Y115759D01*
X258236Y103497D02*
X256158Y103497D01*
X256158Y106113D02*
X258236Y106113D01*
X258236Y108729D02*
X256158Y108729D01*
X256158Y111345D02*
X258236Y111345D01*
X258236Y113961D02*
X256158Y113961D01*
X263236Y115759D02*
X263236Y100881D01*
X261158Y100881D01*
X261158Y115759D01*
X263236Y115759D01*
X263236Y103497D02*
X261158Y103497D01*
X261158Y106113D02*
X263236Y106113D01*
X263236Y108729D02*
X261158Y108729D01*
X261158Y111345D02*
X263236Y111345D01*
X263236Y113961D02*
X261158Y113961D01*
X268236Y115759D02*
X268236Y100881D01*
X266158Y100881D01*
X266158Y115759D01*
X268236Y115759D01*
X268236Y103497D02*
X266158Y103497D01*
X266158Y106113D02*
X268236Y106113D01*
X268236Y108729D02*
X266158Y108729D01*
X266158Y111345D02*
X268236Y111345D01*
X268236Y113961D02*
X266158Y113961D01*
X273236Y115759D02*
X273236Y100881D01*
X271158Y100881D01*
X271158Y115759D01*
X273236Y115759D01*
X273236Y103497D02*
X271158Y103497D01*
X271158Y106113D02*
X273236Y106113D01*
X273236Y108729D02*
X271158Y108729D01*
X271158Y111345D02*
X273236Y111345D01*
X273236Y113961D02*
X271158Y113961D01*
X278236Y115759D02*
X278236Y100881D01*
X276158Y100881D01*
X276158Y115759D01*
X278236Y115759D01*
X278236Y103497D02*
X276158Y103497D01*
X276158Y106113D02*
X278236Y106113D01*
X278236Y108729D02*
X276158Y108729D01*
X276158Y111345D02*
X278236Y111345D01*
X278236Y113961D02*
X276158Y113961D01*
X278236Y214481D02*
X278236Y229359D01*
X278236Y214481D02*
X276158Y214481D01*
X276158Y229359D01*
X278236Y229359D01*
X278236Y217097D02*
X276158Y217097D01*
X276158Y219713D02*
X278236Y219713D01*
X278236Y222329D02*
X276158Y222329D01*
X276158Y224945D02*
X278236Y224945D01*
X278236Y227561D02*
X276158Y227561D01*
X273236Y229359D02*
X273236Y214481D01*
X271158Y214481D01*
X271158Y229359D01*
X273236Y229359D01*
X273236Y217097D02*
X271158Y217097D01*
X271158Y219713D02*
X273236Y219713D01*
X273236Y222329D02*
X271158Y222329D01*
X271158Y224945D02*
X273236Y224945D01*
X273236Y227561D02*
X271158Y227561D01*
X268236Y229359D02*
X268236Y214481D01*
X266158Y214481D01*
X266158Y229359D01*
X268236Y229359D01*
X268236Y217097D02*
X266158Y217097D01*
X266158Y219713D02*
X268236Y219713D01*
X268236Y222329D02*
X266158Y222329D01*
X266158Y224945D02*
X268236Y224945D01*
X268236Y227561D02*
X266158Y227561D01*
X263236Y229359D02*
X263236Y214481D01*
X261158Y214481D01*
X261158Y229359D01*
X263236Y229359D01*
X263236Y217097D02*
X261158Y217097D01*
X261158Y219713D02*
X263236Y219713D01*
X263236Y222329D02*
X261158Y222329D01*
X261158Y224945D02*
X263236Y224945D01*
X263236Y227561D02*
X261158Y227561D01*
X258236Y229359D02*
X258236Y214481D01*
X256158Y214481D01*
X256158Y229359D01*
X258236Y229359D01*
X258236Y217097D02*
X256158Y217097D01*
X256158Y219713D02*
X258236Y219713D01*
X258236Y222329D02*
X256158Y222329D01*
X256158Y224945D02*
X258236Y224945D01*
X258236Y227561D02*
X256158Y227561D01*
X253236Y229359D02*
X253236Y214481D01*
X251158Y214481D01*
X251158Y229359D01*
X253236Y229359D01*
X253236Y217097D02*
X251158Y217097D01*
X251158Y219713D02*
X253236Y219713D01*
X253236Y222329D02*
X251158Y222329D01*
X251158Y224945D02*
X253236Y224945D01*
X253236Y227561D02*
X251158Y227561D01*
X248236Y229359D02*
X248236Y214481D01*
X246158Y214481D01*
X246158Y229359D01*
X248236Y229359D01*
X248236Y217097D02*
X246158Y217097D01*
X246158Y219713D02*
X248236Y219713D01*
X248236Y222329D02*
X246158Y222329D01*
X246158Y224945D02*
X248236Y224945D01*
X248236Y227561D02*
X246158Y227561D01*
X243236Y229359D02*
X243236Y214481D01*
X241158Y214481D01*
X241158Y229359D01*
X243236Y229359D01*
X243236Y217097D02*
X241158Y217097D01*
X241158Y219713D02*
X243236Y219713D01*
X243236Y222329D02*
X241158Y222329D01*
X241158Y224945D02*
X243236Y224945D01*
X243236Y227561D02*
X241158Y227561D01*
X238236Y229359D02*
X238236Y214481D01*
X236158Y214481D01*
X236158Y229359D01*
X238236Y229359D01*
X238236Y217097D02*
X236158Y217097D01*
X236158Y219713D02*
X238236Y219713D01*
X238236Y222329D02*
X236158Y222329D01*
X236158Y224945D02*
X238236Y224945D01*
X238236Y227561D02*
X236158Y227561D01*
X233236Y229359D02*
X233236Y214481D01*
X231158Y214481D01*
X231158Y229359D01*
X233236Y229359D01*
X233236Y217097D02*
X231158Y217097D01*
X231158Y219713D02*
X233236Y219713D01*
X233236Y222329D02*
X231158Y222329D01*
X231158Y224945D02*
X233236Y224945D01*
X233236Y227561D02*
X231158Y227561D01*
X228236Y229359D02*
X228236Y214481D01*
X226158Y214481D01*
X226158Y229359D01*
X228236Y229359D01*
X228236Y217097D02*
X226158Y217097D01*
X226158Y219713D02*
X228236Y219713D01*
X228236Y222329D02*
X226158Y222329D01*
X226158Y224945D02*
X228236Y224945D01*
X228236Y227561D02*
X226158Y227561D01*
X223236Y229359D02*
X223236Y214481D01*
X221158Y214481D01*
X221158Y229359D01*
X223236Y229359D01*
X223236Y217097D02*
X221158Y217097D01*
X221158Y219713D02*
X223236Y219713D01*
X223236Y222329D02*
X221158Y222329D01*
X221158Y224945D02*
X223236Y224945D01*
X223236Y227561D02*
X221158Y227561D01*
X218236Y229359D02*
X218236Y214481D01*
X216158Y214481D01*
X216158Y229359D01*
X218236Y229359D01*
X218236Y217097D02*
X216158Y217097D01*
X216158Y219713D02*
X218236Y219713D01*
X218236Y222329D02*
X216158Y222329D01*
X216158Y224945D02*
X218236Y224945D01*
X218236Y227561D02*
X216158Y227561D01*
X213236Y229359D02*
X213236Y214481D01*
X211158Y214481D01*
X211158Y229359D01*
X213236Y229359D01*
X213236Y217097D02*
X211158Y217097D01*
X211158Y219713D02*
X213236Y219713D01*
X213236Y222329D02*
X211158Y222329D01*
X211158Y224945D02*
X213236Y224945D01*
X213236Y227561D02*
X211158Y227561D01*
X208236Y229359D02*
X208236Y214481D01*
X206158Y214481D01*
X206158Y229359D01*
X208236Y229359D01*
X208236Y217097D02*
X206158Y217097D01*
X206158Y219713D02*
X208236Y219713D01*
X208236Y222329D02*
X206158Y222329D01*
X206158Y224945D02*
X208236Y224945D01*
X208236Y227561D02*
X206158Y227561D01*
X203236Y229359D02*
X203236Y214481D01*
X201158Y214481D01*
X201158Y229359D01*
X203236Y229359D01*
X203236Y217097D02*
X201158Y217097D01*
X201158Y219713D02*
X203236Y219713D01*
X203236Y222329D02*
X201158Y222329D01*
X201158Y224945D02*
X203236Y224945D01*
X203236Y227561D02*
X201158Y227561D01*
X190336Y201581D02*
X175458Y201581D01*
X175458Y203659D01*
X190336Y203659D01*
X190336Y201581D01*
X190336Y196581D02*
X175458Y196581D01*
X175458Y198659D01*
X190336Y198659D01*
X190336Y196581D01*
X190336Y191581D02*
X175458Y191581D01*
X175458Y193659D01*
X190336Y193659D01*
X190336Y191581D01*
X190336Y186581D02*
X175458Y186581D01*
X175458Y188659D01*
X190336Y188659D01*
X190336Y186581D01*
X190336Y181581D02*
X175458Y181581D01*
X175458Y183659D01*
X190336Y183659D01*
X190336Y181581D01*
X190336Y176581D02*
X175458Y176581D01*
X175458Y178659D01*
X190336Y178659D01*
X190336Y176581D01*
X190336Y171581D02*
X175458Y171581D01*
X175458Y173659D01*
X190336Y173659D01*
X190336Y171581D01*
X190336Y166581D02*
X175458Y166581D01*
X175458Y168659D01*
X190336Y168659D01*
X190336Y166581D01*
X190336Y161581D02*
X175458Y161581D01*
X175458Y163659D01*
X190336Y163659D01*
X190336Y161581D01*
X190336Y156581D02*
X175458Y156581D01*
X175458Y158659D01*
X190336Y158659D01*
X190336Y156581D01*
X190336Y151581D02*
X175458Y151581D01*
X175458Y153659D01*
X190336Y153659D01*
X190336Y151581D01*
X190336Y146581D02*
X175458Y146581D01*
X175458Y148659D01*
X190336Y148659D01*
X190336Y146581D01*
X190336Y141581D02*
X175458Y141581D01*
X175458Y143659D01*
X190336Y143659D01*
X190336Y141581D01*
X190336Y136581D02*
X175458Y136581D01*
X175458Y138659D01*
X190336Y138659D01*
X190336Y136581D01*
X190336Y131581D02*
X175458Y131581D01*
X175458Y133659D01*
X190336Y133659D01*
X190336Y131581D01*
X190336Y126581D02*
X175458Y126581D01*
X175458Y128659D01*
X190336Y128659D01*
X190336Y126581D01*
X289058Y126581D02*
X303936Y126581D01*
X289058Y126581D02*
X289058Y128659D01*
X303936Y128659D01*
X303936Y126581D01*
X303936Y131581D02*
X289058Y131581D01*
X289058Y133659D01*
X303936Y133659D01*
X303936Y131581D01*
X303936Y136581D02*
X289058Y136581D01*
X289058Y138659D01*
X303936Y138659D01*
X303936Y136581D01*
X303936Y141581D02*
X289058Y141581D01*
X289058Y143659D01*
X303936Y143659D01*
X303936Y141581D01*
X303936Y146581D02*
X289058Y146581D01*
X289058Y148659D01*
X303936Y148659D01*
X303936Y146581D01*
X303936Y151581D02*
X289058Y151581D01*
X289058Y153659D01*
X303936Y153659D01*
X303936Y151581D01*
X303936Y156581D02*
X289058Y156581D01*
X289058Y158659D01*
X303936Y158659D01*
X303936Y156581D01*
X303936Y161581D02*
X289058Y161581D01*
X289058Y163659D01*
X303936Y163659D01*
X303936Y161581D01*
X303936Y166581D02*
X289058Y166581D01*
X289058Y168659D01*
X303936Y168659D01*
X303936Y166581D01*
X303936Y171581D02*
X289058Y171581D01*
X289058Y173659D01*
X303936Y173659D01*
X303936Y171581D01*
X303936Y176581D02*
X289058Y176581D01*
X289058Y178659D01*
X303936Y178659D01*
X303936Y176581D01*
X303936Y181581D02*
X289058Y181581D01*
X289058Y183659D01*
X303936Y183659D01*
X303936Y181581D01*
X303936Y186581D02*
X289058Y186581D01*
X289058Y188659D01*
X303936Y188659D01*
X303936Y186581D01*
X303936Y191581D02*
X289058Y191581D01*
X289058Y193659D01*
X303936Y193659D01*
X303936Y191581D01*
X303936Y196581D02*
X289058Y196581D01*
X289058Y198659D01*
X303936Y198659D01*
X303936Y196581D01*
X303936Y201581D02*
X289058Y201581D01*
X289058Y203659D01*
X303936Y203659D01*
X303936Y201581D01*
D24*
X76450Y142000D03*
X76450Y134000D03*
D25*
X76450Y112000D03*
X76450Y117000D03*
X76450Y122000D03*
X76450Y127000D03*
X76450Y107000D03*
X76450Y102000D03*
X76450Y97000D03*
X76450Y92000D03*
D24*
X76450Y85000D03*
X76450Y77000D03*
D26*
X73090Y152700D02*
X61510Y152700D01*
X61510Y66300D02*
X73090Y66300D01*
X31290Y152700D02*
X19710Y152700D01*
X19710Y66300D02*
X31290Y66300D01*
D27*
X62000Y138400D03*
X62000Y80600D03*
D17*
X29445Y31302D02*
X21027Y31302D01*
X21027Y41720D01*
X29445Y41720D01*
X29445Y31302D01*
X29445Y37585D02*
X21027Y37585D01*
X40027Y31302D02*
X48445Y31302D01*
X40027Y31302D02*
X40027Y41720D01*
X48445Y41720D01*
X48445Y31302D01*
X48445Y37585D02*
X40027Y37585D01*
X66027Y31302D02*
X74445Y31302D01*
X66027Y31302D02*
X66027Y41720D01*
X74445Y41720D01*
X74445Y31302D01*
X74445Y37585D02*
X66027Y37585D01*
X85027Y31302D02*
X93445Y31302D01*
X85027Y31302D02*
X85027Y41720D01*
X93445Y41720D01*
X93445Y31302D01*
X93445Y37585D02*
X85027Y37585D01*
D28*
X16500Y271000D03*
X26000Y271000D03*
X35500Y271000D03*
X35500Y299000D03*
X26000Y299000D03*
X16500Y299000D03*
D17*
X63798Y284145D02*
X63798Y275727D01*
X53380Y275727D01*
X53380Y284145D01*
X63798Y284145D01*
X63798Y282010D02*
X53380Y282010D01*
X63798Y294727D02*
X63798Y303145D01*
X63798Y294727D02*
X53380Y294727D01*
X53380Y303145D01*
X63798Y303145D01*
X63798Y301010D02*
X53380Y301010D01*
X86398Y284145D02*
X86398Y275727D01*
X75980Y275727D01*
X75980Y284145D01*
X86398Y284145D01*
X86398Y282010D02*
X75980Y282010D01*
X86398Y294727D02*
X86398Y303145D01*
X86398Y294727D02*
X75980Y294727D01*
X75980Y303145D01*
X86398Y303145D01*
X86398Y301010D02*
X75980Y301010D01*
X108598Y284145D02*
X108598Y275727D01*
X98180Y275727D01*
X98180Y284145D01*
X108598Y284145D01*
X108598Y282010D02*
X98180Y282010D01*
X108598Y294727D02*
X108598Y303145D01*
X108598Y294727D02*
X98180Y294727D01*
X98180Y303145D01*
X108598Y303145D01*
X108598Y301010D02*
X98180Y301010D01*
X131198Y284145D02*
X131198Y275727D01*
X120780Y275727D01*
X120780Y284145D01*
X131198Y284145D01*
X131198Y282010D02*
X120780Y282010D01*
X131198Y294727D02*
X131198Y303145D01*
X131198Y294727D02*
X120780Y294727D01*
X120780Y303145D01*
X131198Y303145D01*
X131198Y301010D02*
X120780Y301010D01*
D29*
X226400Y366100D03*
X226400Y383100D03*
X282400Y383100D03*
X282400Y366100D03*
D30*
X254400Y388350D03*
X254400Y360850D03*
D31*
X320300Y370400D03*
X361300Y370400D03*
M02*
