M48
;GenerationSoftware,Autodesk,EAGLE,9.6.2*%
;CreationDate,2024-02-18T07:30:38Z*%
FMAT,2
ICI,OFF
METRIC,TZ,000.000
T5C0.350
T4C0.650
T3C0.700
T2C0.750
T1C0.950
%
G90
M71
T1
X11761Y37724
X8761Y37724
T2
X25440Y38835
X25440Y36085
T3
X6200Y13840
X6200Y8060
T4
X2550Y6630
X6730Y15270
X6730Y6630
X2550Y15270
T5
X12949Y21731
X14358Y32278
X38083Y37101
X38764Y16844
X28130Y1992
X12926Y1926
X5059Y37612
X4400Y3650
X7000Y3650
X29550Y10600
X22250Y3900
X21399Y27671
X2119Y23412
X38365Y3587
X7400Y32500
X21340Y34080
X28340Y32640
X32239Y9337
X11324Y8847
X6186Y32348
X11089Y17130
X35308Y15148
X38617Y9378
X32203Y17946
X33694Y13371
X31321Y17475
X32600Y13371
X43110Y28933
X37919Y19107
X20234Y24643
X10854Y32596
X14786Y12694
X13535Y16664
X21348Y24178
X12903Y11383
X21348Y25137
X16544Y17474
X15210Y11088
X16544Y16561
X16504Y14990
X20902Y13360
X31236Y14577
X28395Y20664
X20732Y6104
X17308Y11784
X32228Y11201
X15546Y18757
X14790Y1912
X12734Y12790
X11274Y10315
X9200Y12300
X8950Y3650
X17160Y23560
X3400Y28800
X9272Y28944
X2784Y11391
X4420Y29840
X22340Y20540
X1660Y25820
X4420Y30840
X10320Y28020
X13240Y25640
X20869Y20520
X12920Y27840
X21620Y19740
X2331Y28654
X37697Y28623
X35475Y22809
X19453Y21055
X38671Y8032
X32736Y30491
X4729Y7188
X32305Y6087
X16488Y7585
X10878Y6423
X22620Y36660
M30