G04 EAGLE Gerber RS-274X export*
G75*
%MOMM*%
%FSLAX34Y34*%
%LPD*%
%INSilkscreen Bottom*%
%IPPOS*%
%AMOC8*
5,1,8,0,0,1.08239X$1,22.5*%
G01*
%ADD10C,0.152400*%

G36*
X213391Y119576D02*
X213391Y119576D01*
X213399Y119574D01*
X213488Y119595D01*
X213578Y119614D01*
X213585Y119618D01*
X213593Y119620D01*
X213666Y119674D01*
X213742Y119726D01*
X213746Y119733D01*
X213753Y119738D01*
X213799Y119817D01*
X213849Y119894D01*
X213850Y119902D01*
X213854Y119909D01*
X213882Y120073D01*
X213882Y123241D01*
X216550Y123241D01*
X216550Y120073D01*
X216552Y120065D01*
X216551Y120057D01*
X216572Y119968D01*
X216590Y119878D01*
X216595Y119872D01*
X216597Y119863D01*
X216651Y119790D01*
X216703Y119715D01*
X216710Y119710D01*
X216715Y119703D01*
X216793Y119657D01*
X216870Y119608D01*
X216878Y119606D01*
X216886Y119602D01*
X217050Y119574D01*
X220716Y119574D01*
X220725Y119576D01*
X220733Y119574D01*
X220821Y119595D01*
X220911Y119614D01*
X220918Y119618D01*
X220926Y119620D01*
X221000Y119674D01*
X221075Y119726D01*
X221080Y119733D01*
X221086Y119738D01*
X221133Y119817D01*
X221182Y119894D01*
X221184Y119902D01*
X221188Y119909D01*
X221216Y120073D01*
X221216Y123241D01*
X223884Y123241D01*
X223884Y120073D01*
X223886Y120065D01*
X223884Y120057D01*
X223905Y119968D01*
X223923Y119878D01*
X223928Y119872D01*
X223930Y119863D01*
X223984Y119790D01*
X224036Y119715D01*
X224043Y119710D01*
X224048Y119703D01*
X224126Y119657D01*
X224204Y119608D01*
X224212Y119606D01*
X224219Y119602D01*
X224383Y119574D01*
X228050Y119574D01*
X228058Y119576D01*
X228066Y119574D01*
X228155Y119595D01*
X228245Y119614D01*
X228252Y119618D01*
X228260Y119620D01*
X228333Y119674D01*
X228409Y119726D01*
X228413Y119733D01*
X228420Y119738D01*
X228466Y119817D01*
X228516Y119894D01*
X228517Y119902D01*
X228521Y119909D01*
X228549Y120073D01*
X228549Y123740D01*
X228547Y123748D01*
X228549Y123757D01*
X228528Y123845D01*
X228509Y123935D01*
X228505Y123942D01*
X228503Y123950D01*
X228449Y124023D01*
X228397Y124099D01*
X228390Y124103D01*
X228385Y124110D01*
X228306Y124157D01*
X228229Y124206D01*
X228221Y124207D01*
X228214Y124212D01*
X228050Y124239D01*
X224882Y124239D01*
X224882Y126907D01*
X228050Y126907D01*
X228058Y126909D01*
X228066Y126908D01*
X228155Y126929D01*
X228245Y126947D01*
X228252Y126952D01*
X228260Y126954D01*
X228333Y127008D01*
X228409Y127060D01*
X228413Y127067D01*
X228420Y127072D01*
X228466Y127150D01*
X228516Y127227D01*
X228517Y127235D01*
X228521Y127243D01*
X228549Y127407D01*
X228549Y131073D01*
X228547Y131082D01*
X228549Y131090D01*
X228528Y131178D01*
X228509Y131268D01*
X228505Y131275D01*
X228503Y131283D01*
X228449Y131357D01*
X228397Y131432D01*
X228390Y131437D01*
X228385Y131443D01*
X228306Y131490D01*
X228229Y131539D01*
X228221Y131541D01*
X228214Y131545D01*
X228050Y131573D01*
X224383Y131573D01*
X224375Y131571D01*
X224367Y131572D01*
X224278Y131551D01*
X224188Y131533D01*
X224181Y131528D01*
X224173Y131526D01*
X224100Y131472D01*
X224024Y131420D01*
X224020Y131413D01*
X224013Y131408D01*
X223967Y131330D01*
X223917Y131253D01*
X223916Y131245D01*
X223912Y131237D01*
X223884Y131073D01*
X223884Y127906D01*
X221216Y127906D01*
X221216Y145740D01*
X221214Y145748D01*
X221215Y145756D01*
X221194Y145845D01*
X221176Y145935D01*
X221171Y145942D01*
X221169Y145950D01*
X221115Y146023D01*
X221063Y146099D01*
X221056Y146103D01*
X221051Y146110D01*
X220973Y146156D01*
X220896Y146206D01*
X220888Y146207D01*
X220880Y146211D01*
X220716Y146239D01*
X217549Y146239D01*
X217549Y148907D01*
X227550Y148907D01*
X227550Y142572D01*
X224383Y142572D01*
X224375Y142571D01*
X224367Y142572D01*
X224278Y142551D01*
X224188Y142533D01*
X224181Y142528D01*
X224173Y142526D01*
X224100Y142472D01*
X224024Y142420D01*
X224020Y142413D01*
X224013Y142408D01*
X223967Y142330D01*
X223917Y142253D01*
X223916Y142244D01*
X223912Y142237D01*
X223884Y142073D01*
X223884Y138406D01*
X223886Y138398D01*
X223884Y138390D01*
X223905Y138301D01*
X223923Y138212D01*
X223928Y138205D01*
X223930Y138197D01*
X223984Y138123D01*
X224036Y138048D01*
X224043Y138043D01*
X224048Y138036D01*
X224126Y137990D01*
X224204Y137941D01*
X224212Y137939D01*
X224219Y137935D01*
X224383Y137907D01*
X227550Y137907D01*
X227550Y134740D01*
X227552Y134732D01*
X227550Y134723D01*
X227572Y134635D01*
X227590Y134545D01*
X227595Y134538D01*
X227597Y134530D01*
X227650Y134457D01*
X227702Y134381D01*
X227709Y134377D01*
X227714Y134370D01*
X227793Y134323D01*
X227870Y134274D01*
X227878Y134273D01*
X227885Y134268D01*
X228049Y134241D01*
X231217Y134241D01*
X231217Y120073D01*
X231219Y120065D01*
X231217Y120057D01*
X231238Y119968D01*
X231256Y119878D01*
X231261Y119872D01*
X231263Y119863D01*
X231317Y119790D01*
X231369Y119715D01*
X231376Y119710D01*
X231381Y119703D01*
X231459Y119657D01*
X231537Y119608D01*
X231545Y119606D01*
X231552Y119602D01*
X231716Y119574D01*
X239049Y119574D01*
X239058Y119576D01*
X239066Y119574D01*
X239154Y119595D01*
X239244Y119614D01*
X239251Y119618D01*
X239259Y119620D01*
X239333Y119674D01*
X239408Y119726D01*
X239413Y119733D01*
X239420Y119738D01*
X239466Y119817D01*
X239515Y119894D01*
X239517Y119902D01*
X239521Y119909D01*
X239549Y120073D01*
X239549Y123241D01*
X245883Y123241D01*
X245883Y120073D01*
X245885Y120065D01*
X245884Y120057D01*
X245905Y119968D01*
X245923Y119878D01*
X245928Y119872D01*
X245930Y119863D01*
X245984Y119790D01*
X246035Y119715D01*
X246043Y119710D01*
X246048Y119703D01*
X246126Y119657D01*
X246203Y119608D01*
X246211Y119606D01*
X246219Y119602D01*
X246383Y119574D01*
X253716Y119574D01*
X253724Y119576D01*
X253732Y119574D01*
X253821Y119595D01*
X253911Y119614D01*
X253918Y119618D01*
X253926Y119620D01*
X253999Y119674D01*
X254075Y119726D01*
X254079Y119733D01*
X254086Y119738D01*
X254132Y119817D01*
X254182Y119894D01*
X254183Y119902D01*
X254187Y119909D01*
X254215Y120073D01*
X254215Y123740D01*
X254213Y123748D01*
X254215Y123757D01*
X254194Y123845D01*
X254176Y123935D01*
X254171Y123942D01*
X254169Y123950D01*
X254115Y124023D01*
X254063Y124099D01*
X254056Y124103D01*
X254051Y124110D01*
X253973Y124157D01*
X253895Y124206D01*
X253887Y124207D01*
X253880Y124212D01*
X253716Y124239D01*
X246882Y124239D01*
X246882Y137907D01*
X249550Y137907D01*
X249550Y131073D01*
X249552Y131065D01*
X249550Y131057D01*
X249571Y130968D01*
X249590Y130878D01*
X249594Y130871D01*
X249596Y130863D01*
X249650Y130790D01*
X249702Y130714D01*
X249709Y130710D01*
X249714Y130703D01*
X249793Y130657D01*
X249870Y130607D01*
X249878Y130606D01*
X249885Y130602D01*
X250049Y130574D01*
X253716Y130574D01*
X253724Y130576D01*
X253732Y130574D01*
X253821Y130595D01*
X253911Y130614D01*
X253918Y130618D01*
X253926Y130620D01*
X253999Y130674D01*
X254075Y130726D01*
X254079Y130733D01*
X254086Y130738D01*
X254132Y130817D01*
X254182Y130894D01*
X254183Y130902D01*
X254187Y130909D01*
X254215Y131073D01*
X254215Y149406D01*
X254213Y149415D01*
X254215Y149423D01*
X254194Y149511D01*
X254176Y149601D01*
X254171Y149608D01*
X254169Y149616D01*
X254115Y149690D01*
X254063Y149765D01*
X254056Y149770D01*
X254051Y149776D01*
X253973Y149823D01*
X253895Y149872D01*
X253887Y149874D01*
X253880Y149878D01*
X253716Y149906D01*
X250548Y149906D01*
X250548Y152574D01*
X253716Y152574D01*
X253724Y152575D01*
X253732Y152574D01*
X253821Y152595D01*
X253911Y152613D01*
X253918Y152618D01*
X253926Y152620D01*
X253999Y152674D01*
X254075Y152726D01*
X254079Y152733D01*
X254086Y152738D01*
X254132Y152816D01*
X254182Y152893D01*
X254183Y152902D01*
X254187Y152909D01*
X254215Y153073D01*
X254215Y156740D01*
X254213Y156748D01*
X254215Y156756D01*
X254194Y156845D01*
X254176Y156935D01*
X254171Y156941D01*
X254169Y156950D01*
X254115Y157023D01*
X254063Y157098D01*
X254056Y157103D01*
X254051Y157110D01*
X253973Y157156D01*
X253895Y157205D01*
X253887Y157207D01*
X253880Y157211D01*
X253716Y157239D01*
X250548Y157239D01*
X250548Y167240D01*
X253716Y167240D01*
X253724Y167242D01*
X253732Y167241D01*
X253821Y167262D01*
X253911Y167280D01*
X253918Y167285D01*
X253926Y167287D01*
X253999Y167341D01*
X254075Y167392D01*
X254079Y167399D01*
X254086Y167404D01*
X254132Y167483D01*
X254182Y167560D01*
X254183Y167568D01*
X254187Y167575D01*
X254215Y167740D01*
X254215Y171406D01*
X254213Y171414D01*
X254215Y171423D01*
X254194Y171511D01*
X254176Y171601D01*
X254171Y171608D01*
X254169Y171616D01*
X254115Y171689D01*
X254063Y171765D01*
X254056Y171769D01*
X254051Y171776D01*
X253973Y171823D01*
X253895Y171872D01*
X253887Y171873D01*
X253880Y171878D01*
X253716Y171905D01*
X250049Y171905D01*
X250041Y171904D01*
X250033Y171905D01*
X249944Y171884D01*
X249854Y171866D01*
X249847Y171861D01*
X249839Y171859D01*
X249766Y171805D01*
X249690Y171753D01*
X249686Y171746D01*
X249679Y171741D01*
X249633Y171663D01*
X249583Y171586D01*
X249582Y171577D01*
X249578Y171570D01*
X249550Y171406D01*
X249550Y168239D01*
X246882Y168239D01*
X246882Y171406D01*
X246880Y171414D01*
X246881Y171423D01*
X246860Y171511D01*
X246842Y171601D01*
X246837Y171608D01*
X246835Y171616D01*
X246782Y171689D01*
X246730Y171765D01*
X246723Y171769D01*
X246718Y171776D01*
X246639Y171823D01*
X246562Y171872D01*
X246554Y171873D01*
X246547Y171878D01*
X246383Y171905D01*
X239549Y171905D01*
X239549Y174573D01*
X246383Y174573D01*
X246391Y174575D01*
X246399Y174574D01*
X246488Y174595D01*
X246577Y174613D01*
X246584Y174618D01*
X246592Y174620D01*
X246666Y174674D01*
X246741Y174726D01*
X246746Y174733D01*
X246753Y174738D01*
X246799Y174816D01*
X246848Y174893D01*
X246850Y174901D01*
X246854Y174909D01*
X246882Y175073D01*
X246882Y181907D01*
X249550Y181907D01*
X249550Y178739D01*
X249552Y178731D01*
X249550Y178723D01*
X249571Y178634D01*
X249590Y178544D01*
X249594Y178537D01*
X249596Y178529D01*
X249650Y178456D01*
X249702Y178380D01*
X249709Y178376D01*
X249714Y178369D01*
X249793Y178323D01*
X249870Y178273D01*
X249878Y178272D01*
X249885Y178268D01*
X250049Y178240D01*
X260550Y178240D01*
X260550Y175572D01*
X257383Y175572D01*
X257374Y175570D01*
X257366Y175572D01*
X257278Y175551D01*
X257188Y175532D01*
X257181Y175528D01*
X257173Y175526D01*
X257099Y175472D01*
X257024Y175420D01*
X257019Y175413D01*
X257013Y175408D01*
X256966Y175329D01*
X256917Y175252D01*
X256915Y175244D01*
X256911Y175237D01*
X256883Y175073D01*
X256883Y171406D01*
X256885Y171398D01*
X256884Y171390D01*
X256905Y171301D01*
X256923Y171211D01*
X256928Y171204D01*
X256930Y171196D01*
X256984Y171123D01*
X257036Y171047D01*
X257043Y171043D01*
X257048Y171036D01*
X257126Y170990D01*
X257203Y170940D01*
X257211Y170939D01*
X257219Y170935D01*
X257383Y170907D01*
X260550Y170907D01*
X260550Y168239D01*
X257383Y168239D01*
X257374Y168237D01*
X257366Y168238D01*
X257278Y168217D01*
X257188Y168199D01*
X257181Y168194D01*
X257173Y168192D01*
X257099Y168139D01*
X257024Y168087D01*
X257019Y168080D01*
X257013Y168075D01*
X256966Y167996D01*
X256917Y167919D01*
X256915Y167911D01*
X256911Y167904D01*
X256883Y167740D01*
X256883Y164073D01*
X256885Y164065D01*
X256884Y164056D01*
X256905Y163968D01*
X256923Y163878D01*
X256928Y163871D01*
X256930Y163863D01*
X256984Y163790D01*
X257036Y163714D01*
X257043Y163710D01*
X257048Y163703D01*
X257126Y163656D01*
X257203Y163607D01*
X257211Y163606D01*
X257219Y163601D01*
X257383Y163574D01*
X261049Y163574D01*
X261058Y163575D01*
X261066Y163574D01*
X261154Y163595D01*
X261244Y163613D01*
X261251Y163618D01*
X261259Y163620D01*
X261332Y163674D01*
X261408Y163726D01*
X261413Y163733D01*
X261419Y163738D01*
X261466Y163816D01*
X261515Y163893D01*
X261517Y163902D01*
X261521Y163909D01*
X261549Y164073D01*
X261549Y167240D01*
X264716Y167240D01*
X264724Y167242D01*
X264732Y167241D01*
X264821Y167262D01*
X264911Y167280D01*
X264917Y167285D01*
X264926Y167287D01*
X264999Y167341D01*
X265074Y167392D01*
X265079Y167399D01*
X265086Y167404D01*
X265132Y167483D01*
X265181Y167560D01*
X265183Y167568D01*
X265187Y167575D01*
X265215Y167740D01*
X265215Y178240D01*
X267883Y178240D01*
X267883Y175073D01*
X267885Y175064D01*
X267883Y175056D01*
X267904Y174968D01*
X267923Y174878D01*
X267928Y174871D01*
X267929Y174863D01*
X267983Y174789D01*
X268035Y174714D01*
X268042Y174709D01*
X268047Y174703D01*
X268126Y174656D01*
X268203Y174607D01*
X268211Y174605D01*
X268218Y174601D01*
X268382Y174573D01*
X278883Y174573D01*
X278883Y171905D01*
X275715Y171905D01*
X275707Y171904D01*
X275699Y171905D01*
X275610Y171884D01*
X275521Y171866D01*
X275514Y171861D01*
X275505Y171859D01*
X275432Y171805D01*
X275357Y171753D01*
X275352Y171746D01*
X275345Y171741D01*
X275299Y171663D01*
X275250Y171586D01*
X275248Y171577D01*
X275244Y171570D01*
X275216Y171406D01*
X275216Y157239D01*
X272049Y157239D01*
X272041Y157237D01*
X272032Y157239D01*
X271944Y157218D01*
X271854Y157199D01*
X271847Y157195D01*
X271839Y157193D01*
X271766Y157139D01*
X271690Y157087D01*
X271685Y157080D01*
X271679Y157075D01*
X271632Y156996D01*
X271583Y156919D01*
X271582Y156911D01*
X271577Y156904D01*
X271550Y156740D01*
X271550Y153073D01*
X271551Y153065D01*
X271550Y153056D01*
X271571Y152968D01*
X271589Y152878D01*
X271594Y152871D01*
X271596Y152863D01*
X271650Y152790D01*
X271702Y152714D01*
X271709Y152710D01*
X271714Y152703D01*
X271792Y152656D01*
X271869Y152607D01*
X271878Y152606D01*
X271885Y152601D01*
X272049Y152574D01*
X275216Y152574D01*
X275216Y149406D01*
X275218Y149398D01*
X275216Y149390D01*
X275238Y149301D01*
X275256Y149212D01*
X275261Y149205D01*
X275263Y149196D01*
X275316Y149123D01*
X275368Y149048D01*
X275375Y149043D01*
X275380Y149036D01*
X275459Y148990D01*
X275536Y148941D01*
X275544Y148939D01*
X275551Y148935D01*
X275715Y148907D01*
X283049Y148907D01*
X283057Y148909D01*
X283065Y148907D01*
X283154Y148928D01*
X283244Y148947D01*
X283251Y148952D01*
X283259Y148953D01*
X283332Y149007D01*
X283408Y149059D01*
X283412Y149066D01*
X283419Y149071D01*
X283465Y149150D01*
X283515Y149227D01*
X283516Y149235D01*
X283520Y149242D01*
X283548Y149406D01*
X283548Y197072D01*
X283546Y197081D01*
X283548Y197089D01*
X283527Y197177D01*
X283508Y197267D01*
X283504Y197274D01*
X283502Y197282D01*
X283448Y197356D01*
X283396Y197431D01*
X283389Y197436D01*
X283384Y197443D01*
X283306Y197489D01*
X283228Y197538D01*
X283220Y197540D01*
X283213Y197544D01*
X283049Y197572D01*
X279382Y197572D01*
X279374Y197570D01*
X279366Y197571D01*
X279277Y197550D01*
X279187Y197532D01*
X279180Y197527D01*
X279172Y197525D01*
X279099Y197471D01*
X279023Y197420D01*
X279019Y197412D01*
X279012Y197407D01*
X278966Y197329D01*
X278916Y197252D01*
X278915Y197244D01*
X278911Y197236D01*
X278883Y197072D01*
X278883Y193905D01*
X272548Y193905D01*
X272548Y197072D01*
X272547Y197081D01*
X272548Y197089D01*
X272527Y197177D01*
X272509Y197267D01*
X272504Y197274D01*
X272502Y197282D01*
X272448Y197356D01*
X272396Y197431D01*
X272389Y197436D01*
X272384Y197443D01*
X272306Y197489D01*
X272229Y197538D01*
X272220Y197540D01*
X272213Y197544D01*
X272049Y197572D01*
X250548Y197572D01*
X250548Y200240D01*
X253716Y200240D01*
X253724Y200242D01*
X253732Y200240D01*
X253821Y200261D01*
X253911Y200279D01*
X253918Y200284D01*
X253926Y200286D01*
X253999Y200340D01*
X254075Y200392D01*
X254079Y200399D01*
X254086Y200404D01*
X254132Y200482D01*
X254182Y200560D01*
X254183Y200568D01*
X254187Y200575D01*
X254215Y200739D01*
X254215Y204406D01*
X254213Y204414D01*
X254215Y204422D01*
X254194Y204511D01*
X254176Y204601D01*
X254171Y204608D01*
X254169Y204616D01*
X254115Y204689D01*
X254063Y204765D01*
X254056Y204769D01*
X254051Y204776D01*
X253973Y204822D01*
X253895Y204872D01*
X253887Y204873D01*
X253880Y204877D01*
X253716Y204905D01*
X250049Y204905D01*
X250041Y204903D01*
X250033Y204905D01*
X249944Y204884D01*
X249854Y204865D01*
X249847Y204861D01*
X249839Y204859D01*
X249766Y204805D01*
X249690Y204753D01*
X249686Y204746D01*
X249679Y204741D01*
X249633Y204662D01*
X249583Y204585D01*
X249582Y204577D01*
X249578Y204570D01*
X249550Y204406D01*
X249550Y201238D01*
X246882Y201238D01*
X246882Y204406D01*
X246880Y204414D01*
X246881Y204422D01*
X246860Y204511D01*
X246842Y204601D01*
X246837Y204608D01*
X246835Y204616D01*
X246782Y204689D01*
X246730Y204765D01*
X246723Y204769D01*
X246718Y204776D01*
X246639Y204822D01*
X246562Y204872D01*
X246554Y204873D01*
X246547Y204877D01*
X246383Y204905D01*
X243215Y204905D01*
X243215Y208072D01*
X243214Y208081D01*
X243215Y208089D01*
X243194Y208177D01*
X243176Y208267D01*
X243171Y208274D01*
X243169Y208282D01*
X243115Y208356D01*
X243063Y208431D01*
X243056Y208436D01*
X243051Y208442D01*
X242973Y208489D01*
X242896Y208538D01*
X242887Y208540D01*
X242880Y208544D01*
X242716Y208572D01*
X239549Y208572D01*
X239549Y211240D01*
X242716Y211240D01*
X242724Y211241D01*
X242733Y211240D01*
X242821Y211261D01*
X242911Y211279D01*
X242918Y211284D01*
X242926Y211286D01*
X242999Y211340D01*
X243075Y211392D01*
X243079Y211399D01*
X243086Y211404D01*
X243133Y211482D01*
X243182Y211559D01*
X243183Y211568D01*
X243188Y211575D01*
X243215Y211739D01*
X243215Y215406D01*
X243214Y215414D01*
X243215Y215422D01*
X243194Y215511D01*
X243176Y215600D01*
X243171Y215607D01*
X243169Y215616D01*
X243115Y215689D01*
X243063Y215764D01*
X243056Y215769D01*
X243051Y215776D01*
X242973Y215822D01*
X242896Y215871D01*
X242887Y215873D01*
X242880Y215877D01*
X242716Y215905D01*
X235383Y215905D01*
X235375Y215903D01*
X235366Y215905D01*
X235278Y215883D01*
X235188Y215865D01*
X235181Y215860D01*
X235173Y215858D01*
X235100Y215805D01*
X235024Y215753D01*
X235019Y215746D01*
X235013Y215741D01*
X234966Y215662D01*
X234917Y215585D01*
X234916Y215577D01*
X234911Y215570D01*
X234884Y215406D01*
X234884Y208072D01*
X234885Y208064D01*
X234884Y208056D01*
X234905Y207967D01*
X234923Y207877D01*
X234928Y207870D01*
X234930Y207862D01*
X234984Y207789D01*
X235036Y207714D01*
X235043Y207709D01*
X235048Y207702D01*
X235126Y207656D01*
X235203Y207606D01*
X235212Y207605D01*
X235219Y207601D01*
X235383Y207573D01*
X238550Y207573D01*
X238550Y204905D01*
X235383Y204905D01*
X235375Y204903D01*
X235366Y204905D01*
X235278Y204884D01*
X235188Y204865D01*
X235181Y204861D01*
X235173Y204859D01*
X235100Y204805D01*
X235024Y204753D01*
X235019Y204746D01*
X235013Y204741D01*
X234966Y204662D01*
X234917Y204585D01*
X234916Y204577D01*
X234911Y204570D01*
X234884Y204406D01*
X234884Y201238D01*
X232215Y201238D01*
X232215Y204406D01*
X232214Y204414D01*
X232215Y204422D01*
X232194Y204511D01*
X232176Y204601D01*
X232171Y204608D01*
X232169Y204616D01*
X232115Y204689D01*
X232063Y204765D01*
X232056Y204769D01*
X232051Y204776D01*
X231973Y204822D01*
X231896Y204872D01*
X231887Y204873D01*
X231880Y204877D01*
X231716Y204905D01*
X228549Y204905D01*
X228549Y207573D01*
X231716Y207573D01*
X231724Y207575D01*
X231733Y207573D01*
X231821Y207594D01*
X231911Y207613D01*
X231918Y207617D01*
X231926Y207619D01*
X231999Y207673D01*
X232075Y207725D01*
X232079Y207732D01*
X232086Y207737D01*
X232133Y207816D01*
X232182Y207893D01*
X232183Y207901D01*
X232188Y207908D01*
X232215Y208072D01*
X232215Y211739D01*
X232214Y211747D01*
X232215Y211755D01*
X232194Y211844D01*
X232176Y211934D01*
X232171Y211941D01*
X232169Y211949D01*
X232115Y212022D01*
X232063Y212098D01*
X232056Y212102D01*
X232051Y212109D01*
X231973Y212155D01*
X231896Y212205D01*
X231887Y212206D01*
X231880Y212210D01*
X231716Y212238D01*
X224882Y212238D01*
X224882Y214906D01*
X228050Y214906D01*
X228058Y214908D01*
X228066Y214907D01*
X228155Y214928D01*
X228245Y214946D01*
X228252Y214951D01*
X228260Y214953D01*
X228333Y215006D01*
X228409Y215058D01*
X228413Y215065D01*
X228420Y215070D01*
X228466Y215149D01*
X228516Y215226D01*
X228517Y215234D01*
X228521Y215241D01*
X228549Y215405D01*
X228549Y219072D01*
X228547Y219080D01*
X228549Y219089D01*
X228528Y219177D01*
X228509Y219267D01*
X228505Y219274D01*
X228503Y219282D01*
X228449Y219355D01*
X228397Y219431D01*
X228390Y219435D01*
X228385Y219442D01*
X228306Y219489D01*
X228229Y219538D01*
X228221Y219539D01*
X228214Y219544D01*
X228050Y219571D01*
X224882Y219571D01*
X224882Y222240D01*
X228050Y222240D01*
X228058Y222241D01*
X228066Y222240D01*
X228155Y222261D01*
X228245Y222279D01*
X228252Y222284D01*
X228260Y222286D01*
X228333Y222340D01*
X228409Y222392D01*
X228413Y222399D01*
X228420Y222404D01*
X228466Y222482D01*
X228516Y222559D01*
X228517Y222568D01*
X228521Y222575D01*
X228549Y222739D01*
X228549Y226405D01*
X228547Y226414D01*
X228549Y226422D01*
X228528Y226510D01*
X228509Y226600D01*
X228505Y226607D01*
X228503Y226615D01*
X228449Y226689D01*
X228397Y226764D01*
X228390Y226769D01*
X228385Y226775D01*
X228306Y226822D01*
X228229Y226871D01*
X228221Y226873D01*
X228214Y226877D01*
X228050Y226905D01*
X217050Y226905D01*
X217041Y226903D01*
X217033Y226904D01*
X216945Y226883D01*
X216855Y226865D01*
X216848Y226860D01*
X216840Y226858D01*
X216766Y226804D01*
X216691Y226753D01*
X216686Y226745D01*
X216680Y226740D01*
X216633Y226662D01*
X216584Y226585D01*
X216582Y226577D01*
X216578Y226569D01*
X216550Y226405D01*
X216550Y223238D01*
X209716Y223238D01*
X209708Y223236D01*
X209700Y223238D01*
X209611Y223217D01*
X209521Y223198D01*
X209514Y223194D01*
X209506Y223192D01*
X209433Y223138D01*
X209358Y223086D01*
X209353Y223079D01*
X209346Y223074D01*
X209300Y222995D01*
X209250Y222918D01*
X209249Y222910D01*
X209245Y222903D01*
X209217Y222739D01*
X209217Y219571D01*
X206050Y219571D01*
X206042Y219570D01*
X206033Y219571D01*
X205945Y219550D01*
X205855Y219532D01*
X205848Y219527D01*
X205840Y219525D01*
X205767Y219471D01*
X205691Y219419D01*
X205687Y219412D01*
X205680Y219407D01*
X205633Y219329D01*
X205584Y219252D01*
X205583Y219243D01*
X205578Y219236D01*
X205551Y219072D01*
X205551Y200739D01*
X205552Y200731D01*
X205551Y200723D01*
X205572Y200634D01*
X205590Y200544D01*
X205595Y200537D01*
X205597Y200529D01*
X205651Y200456D01*
X205703Y200380D01*
X205710Y200376D01*
X205715Y200369D01*
X205793Y200323D01*
X205870Y200273D01*
X205879Y200272D01*
X205886Y200268D01*
X206050Y200240D01*
X209717Y200240D01*
X209725Y200242D01*
X209733Y200240D01*
X209822Y200261D01*
X209911Y200279D01*
X209918Y200284D01*
X209927Y200286D01*
X210000Y200340D01*
X210075Y200392D01*
X210080Y200399D01*
X210087Y200404D01*
X210133Y200482D01*
X210182Y200560D01*
X210184Y200568D01*
X210188Y200575D01*
X210216Y200739D01*
X210216Y207573D01*
X212884Y207573D01*
X212884Y197072D01*
X212885Y197064D01*
X212884Y197056D01*
X212905Y196967D01*
X212923Y196878D01*
X212928Y196871D01*
X212930Y196862D01*
X212984Y196789D01*
X213036Y196714D01*
X213043Y196709D01*
X213048Y196702D01*
X213126Y196656D01*
X213203Y196607D01*
X213212Y196605D01*
X213219Y196601D01*
X213383Y196573D01*
X216550Y196573D01*
X216550Y193905D01*
X209716Y193905D01*
X209708Y193903D01*
X209700Y193905D01*
X209611Y193884D01*
X209521Y193865D01*
X209514Y193861D01*
X209506Y193859D01*
X209433Y193805D01*
X209358Y193753D01*
X209353Y193746D01*
X209346Y193741D01*
X209300Y193663D01*
X209250Y193585D01*
X209249Y193577D01*
X209245Y193570D01*
X209217Y193406D01*
X209217Y189739D01*
X209219Y189731D01*
X209217Y189723D01*
X209238Y189634D01*
X209257Y189544D01*
X209261Y189537D01*
X209263Y189529D01*
X209317Y189456D01*
X209369Y189380D01*
X209376Y189376D01*
X209381Y189369D01*
X209460Y189323D01*
X209537Y189273D01*
X209545Y189272D01*
X209552Y189268D01*
X209716Y189240D01*
X212884Y189240D01*
X212884Y186572D01*
X209716Y186572D01*
X209708Y186570D01*
X209700Y186572D01*
X209611Y186550D01*
X209521Y186532D01*
X209514Y186527D01*
X209506Y186526D01*
X209433Y186472D01*
X209358Y186420D01*
X209353Y186413D01*
X209346Y186408D01*
X209300Y186329D01*
X209250Y186252D01*
X209249Y186244D01*
X209245Y186237D01*
X209217Y186073D01*
X209217Y182905D01*
X206549Y182905D01*
X206549Y186073D01*
X206547Y186081D01*
X206549Y186089D01*
X206528Y186178D01*
X206510Y186267D01*
X206505Y186274D01*
X206503Y186283D01*
X206449Y186356D01*
X206397Y186431D01*
X206390Y186436D01*
X206385Y186443D01*
X206307Y186489D01*
X206229Y186538D01*
X206221Y186540D01*
X206214Y186544D01*
X206050Y186572D01*
X202882Y186572D01*
X202882Y189739D01*
X202881Y189747D01*
X202882Y189756D01*
X202861Y189844D01*
X202843Y189934D01*
X202838Y189941D01*
X202836Y189949D01*
X202782Y190022D01*
X202730Y190098D01*
X202723Y190103D01*
X202718Y190109D01*
X202640Y190156D01*
X202563Y190205D01*
X202554Y190206D01*
X202547Y190211D01*
X202383Y190238D01*
X199216Y190238D01*
X199216Y193406D01*
X199214Y193414D01*
X199215Y193422D01*
X199194Y193511D01*
X199176Y193601D01*
X199171Y193608D01*
X199169Y193616D01*
X199115Y193689D01*
X199064Y193765D01*
X199057Y193769D01*
X199052Y193776D01*
X198973Y193822D01*
X198896Y193872D01*
X198888Y193873D01*
X198881Y193877D01*
X198716Y193905D01*
X195549Y193905D01*
X195549Y197072D01*
X195547Y197081D01*
X195549Y197089D01*
X195528Y197177D01*
X195509Y197267D01*
X195505Y197274D01*
X195503Y197282D01*
X195449Y197356D01*
X195397Y197431D01*
X195390Y197436D01*
X195385Y197443D01*
X195307Y197489D01*
X195229Y197538D01*
X195221Y197540D01*
X195214Y197544D01*
X195050Y197572D01*
X191383Y197572D01*
X191375Y197570D01*
X191367Y197571D01*
X191278Y197550D01*
X191188Y197532D01*
X191181Y197527D01*
X191173Y197525D01*
X191100Y197471D01*
X191024Y197420D01*
X191020Y197412D01*
X191013Y197407D01*
X190967Y197329D01*
X190917Y197252D01*
X190916Y197244D01*
X190912Y197236D01*
X190884Y197072D01*
X190884Y186572D01*
X188216Y186572D01*
X188216Y197072D01*
X188214Y197081D01*
X188216Y197089D01*
X188195Y197177D01*
X188176Y197267D01*
X188172Y197274D01*
X188170Y197282D01*
X188116Y197356D01*
X188064Y197431D01*
X188057Y197436D01*
X188052Y197443D01*
X187973Y197489D01*
X187896Y197538D01*
X187888Y197540D01*
X187881Y197544D01*
X187717Y197572D01*
X176717Y197572D01*
X176708Y197570D01*
X176700Y197571D01*
X176612Y197550D01*
X176522Y197532D01*
X176515Y197527D01*
X176507Y197525D01*
X176434Y197471D01*
X176358Y197420D01*
X176353Y197412D01*
X176347Y197407D01*
X176300Y197329D01*
X176251Y197252D01*
X176249Y197244D01*
X176245Y197236D01*
X176217Y197072D01*
X176217Y193406D01*
X176219Y193398D01*
X176218Y193389D01*
X176239Y193301D01*
X176257Y193211D01*
X176262Y193204D01*
X176264Y193196D01*
X176318Y193123D01*
X176370Y193047D01*
X176377Y193042D01*
X176382Y193036D01*
X176460Y192989D01*
X176537Y192940D01*
X176545Y192939D01*
X176553Y192934D01*
X176717Y192907D01*
X179884Y192907D01*
X179884Y189739D01*
X179886Y189731D01*
X179884Y189723D01*
X179906Y189634D01*
X179924Y189544D01*
X179929Y189537D01*
X179931Y189529D01*
X179984Y189456D01*
X180036Y189380D01*
X180043Y189376D01*
X180048Y189369D01*
X180127Y189323D01*
X180204Y189273D01*
X180212Y189272D01*
X180219Y189268D01*
X180383Y189240D01*
X183551Y189240D01*
X183551Y186073D01*
X183553Y186064D01*
X183551Y186056D01*
X183572Y185968D01*
X183590Y185878D01*
X183595Y185871D01*
X183597Y185863D01*
X183651Y185789D01*
X183703Y185714D01*
X183710Y185709D01*
X183715Y185702D01*
X183793Y185656D01*
X183871Y185607D01*
X183879Y185605D01*
X183886Y185601D01*
X184050Y185573D01*
X187218Y185573D01*
X187218Y182406D01*
X187219Y182398D01*
X187218Y182389D01*
X187239Y182301D01*
X187257Y182211D01*
X187262Y182204D01*
X187264Y182196D01*
X187318Y182123D01*
X187370Y182047D01*
X187377Y182043D01*
X187382Y182036D01*
X187460Y181989D01*
X187537Y181940D01*
X187546Y181939D01*
X187553Y181934D01*
X187717Y181907D01*
X191383Y181907D01*
X191392Y181908D01*
X191400Y181907D01*
X191488Y181928D01*
X191578Y181946D01*
X191585Y181951D01*
X191593Y181953D01*
X191667Y182007D01*
X191742Y182059D01*
X191747Y182066D01*
X191754Y182071D01*
X191800Y182149D01*
X191849Y182226D01*
X191851Y182235D01*
X191855Y182242D01*
X191883Y182406D01*
X191883Y185573D01*
X195050Y185573D01*
X195058Y185575D01*
X195066Y185574D01*
X195155Y185595D01*
X195245Y185613D01*
X195252Y185618D01*
X195260Y185620D01*
X195333Y185674D01*
X195409Y185725D01*
X195413Y185733D01*
X195420Y185738D01*
X195466Y185816D01*
X195516Y185893D01*
X195517Y185901D01*
X195521Y185909D01*
X195549Y186073D01*
X195549Y189240D01*
X198217Y189240D01*
X198217Y186073D01*
X198219Y186064D01*
X198218Y186056D01*
X198239Y185968D01*
X198257Y185878D01*
X198262Y185871D01*
X198264Y185863D01*
X198318Y185789D01*
X198369Y185714D01*
X198377Y185709D01*
X198382Y185702D01*
X198460Y185656D01*
X198537Y185607D01*
X198545Y185605D01*
X198553Y185601D01*
X198717Y185573D01*
X201884Y185573D01*
X201884Y182905D01*
X195050Y182905D01*
X195042Y182903D01*
X195033Y182905D01*
X194945Y182884D01*
X194855Y182866D01*
X194848Y182861D01*
X194840Y182859D01*
X194767Y182805D01*
X194691Y182753D01*
X194687Y182746D01*
X194680Y182741D01*
X194633Y182663D01*
X194584Y182585D01*
X194583Y182577D01*
X194578Y182570D01*
X194551Y182406D01*
X194551Y179239D01*
X180883Y179239D01*
X180883Y186073D01*
X180881Y186081D01*
X180882Y186089D01*
X180861Y186178D01*
X180843Y186267D01*
X180838Y186274D01*
X180836Y186283D01*
X180782Y186356D01*
X180730Y186431D01*
X180723Y186436D01*
X180718Y186443D01*
X180640Y186489D01*
X180563Y186538D01*
X180555Y186540D01*
X180547Y186544D01*
X180383Y186572D01*
X176717Y186572D01*
X176708Y186570D01*
X176700Y186572D01*
X176612Y186550D01*
X176522Y186532D01*
X176515Y186527D01*
X176507Y186526D01*
X176434Y186472D01*
X176358Y186420D01*
X176353Y186413D01*
X176347Y186408D01*
X176300Y186329D01*
X176251Y186252D01*
X176249Y186244D01*
X176245Y186237D01*
X176217Y186073D01*
X176217Y167740D01*
X176219Y167731D01*
X176218Y167723D01*
X176239Y167635D01*
X176257Y167545D01*
X176262Y167538D01*
X176264Y167530D01*
X176318Y167456D01*
X176370Y167381D01*
X176377Y167376D01*
X176382Y167369D01*
X176460Y167323D01*
X176537Y167274D01*
X176545Y167272D01*
X176553Y167268D01*
X176717Y167240D01*
X180383Y167240D01*
X180392Y167242D01*
X180400Y167241D01*
X180488Y167262D01*
X180578Y167280D01*
X180585Y167285D01*
X180593Y167287D01*
X180667Y167341D01*
X180742Y167392D01*
X180747Y167399D01*
X180753Y167404D01*
X180800Y167483D01*
X180849Y167560D01*
X180851Y167568D01*
X180855Y167575D01*
X180883Y167740D01*
X180883Y174573D01*
X183551Y174573D01*
X183551Y167740D01*
X183553Y167731D01*
X183551Y167723D01*
X183572Y167635D01*
X183590Y167545D01*
X183595Y167538D01*
X183597Y167530D01*
X183651Y167456D01*
X183703Y167381D01*
X183710Y167376D01*
X183715Y167369D01*
X183793Y167323D01*
X183871Y167274D01*
X183879Y167272D01*
X183886Y167268D01*
X184050Y167240D01*
X187218Y167240D01*
X187218Y164572D01*
X180383Y164572D01*
X180375Y164570D01*
X180367Y164572D01*
X180278Y164551D01*
X180189Y164533D01*
X180182Y164528D01*
X180173Y164526D01*
X180100Y164472D01*
X180025Y164420D01*
X180020Y164413D01*
X180013Y164408D01*
X179967Y164330D01*
X179918Y164252D01*
X179916Y164244D01*
X179912Y164237D01*
X179884Y164073D01*
X179884Y160905D01*
X176717Y160905D01*
X176708Y160904D01*
X176700Y160905D01*
X176612Y160884D01*
X176522Y160866D01*
X176515Y160861D01*
X176507Y160859D01*
X176434Y160805D01*
X176358Y160753D01*
X176353Y160746D01*
X176347Y160741D01*
X176300Y160663D01*
X176251Y160586D01*
X176249Y160577D01*
X176245Y160570D01*
X176217Y160406D01*
X176217Y156740D01*
X176219Y156731D01*
X176218Y156723D01*
X176239Y156635D01*
X176257Y156545D01*
X176262Y156538D01*
X176264Y156530D01*
X176318Y156456D01*
X176370Y156381D01*
X176377Y156376D01*
X176382Y156370D01*
X176460Y156323D01*
X176537Y156274D01*
X176545Y156272D01*
X176553Y156268D01*
X176717Y156240D01*
X180383Y156240D01*
X180392Y156242D01*
X180400Y156241D01*
X180488Y156262D01*
X180578Y156280D01*
X180585Y156285D01*
X180593Y156287D01*
X180667Y156341D01*
X180742Y156393D01*
X180747Y156400D01*
X180753Y156405D01*
X180800Y156483D01*
X180849Y156560D01*
X180851Y156568D01*
X180855Y156576D01*
X180883Y156740D01*
X180883Y159907D01*
X187218Y159907D01*
X187218Y157239D01*
X184050Y157239D01*
X184042Y157237D01*
X184034Y157239D01*
X183945Y157218D01*
X183855Y157199D01*
X183848Y157195D01*
X183840Y157193D01*
X183767Y157139D01*
X183691Y157087D01*
X183687Y157080D01*
X183680Y157075D01*
X183634Y156996D01*
X183584Y156919D01*
X183583Y156911D01*
X183579Y156904D01*
X183551Y156740D01*
X183551Y153572D01*
X180383Y153572D01*
X180375Y153571D01*
X180367Y153572D01*
X180278Y153551D01*
X180189Y153533D01*
X180182Y153528D01*
X180173Y153526D01*
X180100Y153472D01*
X180025Y153420D01*
X180020Y153413D01*
X180013Y153408D01*
X179967Y153330D01*
X179918Y153253D01*
X179916Y153244D01*
X179912Y153237D01*
X179884Y153073D01*
X179884Y149406D01*
X179886Y149398D01*
X179884Y149390D01*
X179906Y149301D01*
X179924Y149212D01*
X179929Y149205D01*
X179931Y149196D01*
X179984Y149123D01*
X180036Y149048D01*
X180043Y149043D01*
X180048Y149036D01*
X180127Y148990D01*
X180204Y148941D01*
X180212Y148939D01*
X180219Y148935D01*
X180383Y148907D01*
X187218Y148907D01*
X187218Y142073D01*
X187219Y142065D01*
X187218Y142057D01*
X187239Y141968D01*
X187257Y141878D01*
X187262Y141871D01*
X187264Y141863D01*
X187318Y141790D01*
X187370Y141714D01*
X187377Y141710D01*
X187382Y141703D01*
X187460Y141657D01*
X187537Y141607D01*
X187546Y141606D01*
X187553Y141602D01*
X187717Y141574D01*
X190884Y141574D01*
X190884Y138906D01*
X187717Y138906D01*
X187709Y138904D01*
X187700Y138905D01*
X187612Y138884D01*
X187522Y138866D01*
X187515Y138861D01*
X187507Y138859D01*
X187434Y138805D01*
X187358Y138754D01*
X187353Y138747D01*
X187347Y138742D01*
X187300Y138663D01*
X187251Y138586D01*
X187250Y138578D01*
X187245Y138571D01*
X187218Y138406D01*
X187218Y134740D01*
X187219Y134732D01*
X187218Y134723D01*
X187239Y134635D01*
X187257Y134545D01*
X187262Y134538D01*
X187264Y134530D01*
X187318Y134457D01*
X187370Y134381D01*
X187377Y134377D01*
X187382Y134370D01*
X187460Y134323D01*
X187537Y134274D01*
X187546Y134273D01*
X187553Y134268D01*
X187717Y134241D01*
X201884Y134241D01*
X201884Y127407D01*
X201886Y127398D01*
X201884Y127390D01*
X201905Y127302D01*
X201924Y127212D01*
X201928Y127205D01*
X201930Y127197D01*
X201984Y127124D01*
X202036Y127048D01*
X202043Y127043D01*
X202048Y127037D01*
X202127Y126990D01*
X202204Y126941D01*
X202212Y126939D01*
X202219Y126935D01*
X202383Y126907D01*
X209717Y126907D01*
X209725Y126909D01*
X209733Y126908D01*
X209822Y126929D01*
X209911Y126947D01*
X209918Y126952D01*
X209927Y126954D01*
X210000Y127008D01*
X210075Y127060D01*
X210080Y127067D01*
X210087Y127072D01*
X210133Y127150D01*
X210182Y127227D01*
X210184Y127235D01*
X210188Y127243D01*
X210216Y127407D01*
X210216Y131073D01*
X210214Y131082D01*
X210216Y131090D01*
X210194Y131178D01*
X210176Y131268D01*
X210171Y131275D01*
X210169Y131283D01*
X210116Y131357D01*
X210064Y131432D01*
X210057Y131437D01*
X210052Y131443D01*
X209973Y131490D01*
X209896Y131539D01*
X209888Y131541D01*
X209881Y131545D01*
X209717Y131573D01*
X206549Y131573D01*
X206549Y134241D01*
X212884Y134241D01*
X212884Y131073D01*
X212885Y131065D01*
X212884Y131057D01*
X212905Y130968D01*
X212923Y130878D01*
X212928Y130871D01*
X212930Y130863D01*
X212984Y130790D01*
X213036Y130714D01*
X213043Y130710D01*
X213048Y130703D01*
X213126Y130657D01*
X213203Y130607D01*
X213212Y130606D01*
X213219Y130602D01*
X213383Y130574D01*
X216550Y130574D01*
X216550Y127906D01*
X213383Y127906D01*
X213375Y127904D01*
X213366Y127906D01*
X213278Y127885D01*
X213188Y127866D01*
X213181Y127862D01*
X213173Y127860D01*
X213100Y127806D01*
X213024Y127754D01*
X213020Y127747D01*
X213013Y127742D01*
X212966Y127663D01*
X212917Y127586D01*
X212916Y127578D01*
X212911Y127571D01*
X212884Y127407D01*
X212884Y124239D01*
X202383Y124239D01*
X202375Y124238D01*
X202367Y124239D01*
X202278Y124218D01*
X202188Y124200D01*
X202181Y124195D01*
X202173Y124193D01*
X202100Y124139D01*
X202024Y124087D01*
X202020Y124080D01*
X202013Y124075D01*
X201967Y123997D01*
X201917Y123920D01*
X201916Y123911D01*
X201912Y123904D01*
X201884Y123740D01*
X201884Y120073D01*
X201886Y120065D01*
X201884Y120057D01*
X201905Y119968D01*
X201924Y119878D01*
X201928Y119872D01*
X201930Y119863D01*
X201984Y119790D01*
X202036Y119715D01*
X202043Y119710D01*
X202048Y119703D01*
X202127Y119657D01*
X202204Y119608D01*
X202212Y119606D01*
X202219Y119602D01*
X202383Y119574D01*
X213383Y119574D01*
X213391Y119576D01*
G37*
G36*
X270156Y277970D02*
X270156Y277970D01*
X270218Y277972D01*
X270253Y277988D01*
X270290Y277995D01*
X270342Y278030D01*
X270399Y278056D01*
X270424Y278084D01*
X270455Y278105D01*
X270490Y278157D01*
X270532Y278204D01*
X270544Y278239D01*
X270565Y278271D01*
X270576Y278333D01*
X270597Y278392D01*
X270595Y278435D01*
X270601Y278467D01*
X270593Y278504D01*
X270591Y278558D01*
X267878Y291743D01*
X269798Y291743D01*
X269852Y291626D01*
X270165Y290647D01*
X270171Y290636D01*
X270174Y290621D01*
X270551Y289633D01*
X270558Y289622D01*
X270562Y289606D01*
X270997Y288641D01*
X271006Y288629D01*
X271012Y288612D01*
X271509Y287678D01*
X271519Y287666D01*
X271526Y287647D01*
X272089Y286752D01*
X272100Y286739D01*
X272110Y286720D01*
X272739Y285870D01*
X272753Y285858D01*
X272765Y285838D01*
X273461Y285042D01*
X273473Y285033D01*
X273483Y285019D01*
X273856Y284644D01*
X273864Y284638D01*
X273871Y284629D01*
X274260Y284270D01*
X274269Y284265D01*
X274276Y284256D01*
X274680Y283914D01*
X274689Y283909D01*
X274697Y283900D01*
X275116Y283577D01*
X275125Y283572D01*
X275133Y283564D01*
X275565Y283259D01*
X275574Y283255D01*
X275583Y283247D01*
X276028Y282961D01*
X276037Y282957D01*
X276046Y282950D01*
X276503Y282683D01*
X276516Y282678D01*
X276530Y282668D01*
X277474Y282192D01*
X277492Y282187D01*
X277510Y282176D01*
X278489Y281775D01*
X278506Y281772D01*
X278524Y281763D01*
X279530Y281436D01*
X279545Y281434D01*
X279562Y281426D01*
X280588Y281169D01*
X280602Y281168D01*
X280619Y281162D01*
X281659Y280968D01*
X281668Y280968D01*
X281680Y280965D01*
X282203Y280890D01*
X282212Y280891D01*
X282223Y280888D01*
X283275Y280780D01*
X283284Y280781D01*
X283294Y280779D01*
X283822Y280745D01*
X283829Y280746D01*
X283839Y280744D01*
X284896Y280711D01*
X284903Y280713D01*
X284911Y280711D01*
X336222Y280710D01*
X336308Y280728D01*
X336395Y280741D01*
X336405Y280747D01*
X336417Y280750D01*
X336489Y280799D01*
X336564Y280846D01*
X336572Y280856D01*
X336581Y280862D01*
X336604Y280898D01*
X336665Y280978D01*
X336771Y281181D01*
X336772Y281186D01*
X336775Y281190D01*
X336800Y281281D01*
X336826Y281372D01*
X336825Y281377D01*
X336827Y281382D01*
X336813Y281476D01*
X336802Y281570D01*
X336800Y281574D01*
X336799Y281579D01*
X336718Y281724D01*
X328126Y292464D01*
X328055Y292524D01*
X327984Y292586D01*
X327978Y292588D01*
X327974Y292591D01*
X327943Y292601D01*
X327828Y292643D01*
X327342Y292733D01*
X327304Y292732D01*
X327251Y292741D01*
X316928Y292741D01*
X320860Y302836D01*
X338378Y280964D01*
X338383Y280960D01*
X338386Y280955D01*
X338460Y280896D01*
X338531Y280837D01*
X338537Y280835D01*
X338542Y280831D01*
X338701Y280782D01*
X339197Y280715D01*
X339226Y280716D01*
X339264Y280710D01*
X351431Y280710D01*
X351452Y280714D01*
X351478Y280712D01*
X351920Y280754D01*
X351970Y280770D01*
X352023Y280776D01*
X352065Y280799D01*
X352110Y280812D01*
X352151Y280846D01*
X352197Y280872D01*
X352226Y280910D01*
X352262Y280940D01*
X352287Y280987D01*
X352319Y281029D01*
X352331Y281075D01*
X352353Y281117D01*
X352357Y281170D01*
X352371Y281221D01*
X352364Y281268D01*
X352367Y281315D01*
X352350Y281365D01*
X352343Y281418D01*
X352316Y281467D01*
X352303Y281503D01*
X352282Y281527D01*
X352262Y281563D01*
X316561Y326165D01*
X316531Y326190D01*
X316508Y326222D01*
X316456Y326253D01*
X316409Y326292D01*
X316371Y326303D01*
X316337Y326324D01*
X316277Y326332D01*
X316218Y326350D01*
X316179Y326345D01*
X316140Y326351D01*
X316081Y326335D01*
X316021Y326328D01*
X315986Y326309D01*
X315948Y326299D01*
X315900Y326261D01*
X315847Y326232D01*
X315823Y326201D01*
X315792Y326176D01*
X315752Y326110D01*
X315725Y326075D01*
X315719Y326055D01*
X315706Y326033D01*
X302782Y292768D01*
X302629Y292741D01*
X283108Y292741D01*
X282644Y292757D01*
X282271Y292854D01*
X281987Y293049D01*
X281784Y293346D01*
X281663Y293724D01*
X281635Y294085D01*
X281717Y294314D01*
X281921Y294444D01*
X282301Y294497D01*
X294433Y294509D01*
X294445Y294512D01*
X294460Y294510D01*
X295516Y294568D01*
X295528Y294571D01*
X295543Y294570D01*
X296594Y294684D01*
X296608Y294688D01*
X296626Y294688D01*
X297668Y294868D01*
X297680Y294873D01*
X297695Y294874D01*
X298210Y294992D01*
X298219Y294996D01*
X298230Y294997D01*
X298740Y295137D01*
X298750Y295141D01*
X298762Y295143D01*
X299265Y295306D01*
X299275Y295311D01*
X299289Y295314D01*
X299784Y295501D01*
X299794Y295508D01*
X299809Y295512D01*
X300292Y295726D01*
X300303Y295733D01*
X300319Y295738D01*
X300789Y295981D01*
X300801Y295990D01*
X300817Y295996D01*
X301271Y296268D01*
X301282Y296279D01*
X301300Y296287D01*
X301733Y296590D01*
X301745Y296602D01*
X301763Y296612D01*
X302173Y296946D01*
X302184Y296959D01*
X302202Y296972D01*
X302585Y297336D01*
X302595Y297351D01*
X302613Y297365D01*
X302966Y297758D01*
X302975Y297774D01*
X302991Y297789D01*
X303311Y298210D01*
X303319Y298227D01*
X303334Y298243D01*
X303619Y298688D01*
X303626Y298705D01*
X303639Y298722D01*
X303889Y299188D01*
X303894Y299204D01*
X303905Y299221D01*
X304120Y299705D01*
X304123Y299720D01*
X304133Y299737D01*
X304313Y300235D01*
X304314Y300244D01*
X304315Y300245D01*
X304316Y300251D01*
X304323Y300266D01*
X304470Y300774D01*
X304471Y300788D01*
X304477Y300803D01*
X304593Y301319D01*
X304594Y301332D01*
X304599Y301347D01*
X304686Y301868D01*
X304685Y301880D01*
X304689Y301893D01*
X304750Y302419D01*
X304749Y302429D01*
X304752Y302442D01*
X304788Y302970D01*
X304786Y302983D01*
X304789Y303000D01*
X304796Y304058D01*
X304794Y304070D01*
X304795Y304085D01*
X304770Y304613D01*
X304768Y304624D01*
X304769Y304637D01*
X304669Y305690D01*
X304665Y305702D01*
X304665Y305717D01*
X304509Y306763D01*
X304505Y306773D01*
X304505Y306786D01*
X304300Y307823D01*
X304296Y307832D01*
X304295Y307844D01*
X304046Y308872D01*
X304042Y308882D01*
X304040Y308895D01*
X303743Y309910D01*
X303737Y309921D01*
X303735Y309935D01*
X303385Y310933D01*
X303380Y310942D01*
X303378Y310953D01*
X303182Y311445D01*
X303176Y311453D01*
X303173Y311466D01*
X302736Y312429D01*
X302730Y312438D01*
X302726Y312451D01*
X302484Y312922D01*
X302477Y312931D01*
X302471Y312945D01*
X301940Y313859D01*
X301931Y313868D01*
X301925Y313883D01*
X301634Y314324D01*
X301625Y314334D01*
X301617Y314348D01*
X300985Y315196D01*
X300974Y315205D01*
X300966Y315220D01*
X300624Y315624D01*
X300616Y315630D01*
X300610Y315639D01*
X300252Y316028D01*
X300244Y316034D01*
X300237Y316044D01*
X299862Y316417D01*
X299854Y316423D01*
X299846Y316432D01*
X299456Y316789D01*
X299447Y316794D01*
X299439Y316803D01*
X299034Y317142D01*
X299025Y317147D01*
X299017Y317156D01*
X298596Y317477D01*
X298588Y317482D01*
X298579Y317490D01*
X298145Y317793D01*
X298136Y317797D01*
X298127Y317805D01*
X297681Y318089D01*
X297668Y318094D01*
X297654Y318105D01*
X296727Y318615D01*
X296714Y318619D01*
X296700Y318629D01*
X296222Y318855D01*
X296209Y318858D01*
X296195Y318866D01*
X295215Y319262D01*
X295198Y319265D01*
X295180Y319275D01*
X294173Y319598D01*
X294162Y319599D01*
X294149Y319605D01*
X293637Y319741D01*
X293627Y319742D01*
X293614Y319747D01*
X292580Y319969D01*
X292570Y319969D01*
X292558Y319973D01*
X292037Y320062D01*
X292028Y320061D01*
X292017Y320065D01*
X290967Y320198D01*
X290958Y320197D01*
X290948Y320200D01*
X290421Y320247D01*
X290413Y320246D01*
X290404Y320248D01*
X289347Y320304D01*
X289338Y320302D01*
X289326Y320304D01*
X288269Y320316D01*
X288266Y320315D01*
X288263Y320316D01*
X261814Y320316D01*
X261750Y320303D01*
X261684Y320299D01*
X261653Y320283D01*
X261619Y320276D01*
X261566Y320240D01*
X261556Y320245D01*
X261483Y320288D01*
X261467Y320291D01*
X261456Y320297D01*
X261412Y320300D01*
X261319Y320316D01*
X250740Y320316D01*
X250730Y320314D01*
X250719Y320316D01*
X250216Y320294D01*
X250169Y320283D01*
X250120Y320281D01*
X250073Y320259D01*
X250023Y320246D01*
X249984Y320217D01*
X249940Y320197D01*
X249905Y320158D01*
X249864Y320127D01*
X249839Y320085D01*
X249807Y320049D01*
X249790Y320000D01*
X249764Y319955D01*
X249758Y319907D01*
X249742Y319861D01*
X249744Y319799D01*
X249739Y319758D01*
X249747Y319731D01*
X249748Y319695D01*
X253026Y303769D01*
X239914Y303769D01*
X239850Y303792D01*
X236601Y319577D01*
X236592Y319600D01*
X236589Y319624D01*
X236538Y319726D01*
X236523Y319760D01*
X236518Y319765D01*
X236514Y319773D01*
X236263Y320113D01*
X236226Y320147D01*
X236196Y320187D01*
X236153Y320213D01*
X236115Y320246D01*
X236068Y320263D01*
X236025Y320288D01*
X235965Y320298D01*
X235927Y320312D01*
X235899Y320310D01*
X235861Y320316D01*
X224752Y320316D01*
X224728Y320311D01*
X224703Y320314D01*
X224631Y320291D01*
X224558Y320276D01*
X224537Y320262D01*
X224513Y320255D01*
X224455Y320206D01*
X224394Y320164D01*
X224380Y320143D01*
X224361Y320127D01*
X224327Y320060D01*
X224287Y319996D01*
X224282Y319972D01*
X224271Y319949D01*
X224260Y319837D01*
X224253Y319800D01*
X224255Y319793D01*
X224254Y319784D01*
X224285Y319328D01*
X224292Y319299D01*
X224294Y319260D01*
X232080Y281438D01*
X232093Y281408D01*
X232097Y281375D01*
X232141Y281296D01*
X232158Y281255D01*
X232169Y281245D01*
X232177Y281229D01*
X232438Y280900D01*
X232470Y280873D01*
X232494Y280839D01*
X232545Y280809D01*
X232590Y280771D01*
X232630Y280759D01*
X232665Y280738D01*
X232738Y280726D01*
X232780Y280713D01*
X232802Y280715D01*
X232829Y280710D01*
X243938Y280710D01*
X243969Y280716D01*
X244001Y280714D01*
X244066Y280736D01*
X244133Y280750D01*
X244159Y280768D01*
X244190Y280778D01*
X244240Y280824D01*
X244297Y280862D01*
X244314Y280889D01*
X244338Y280910D01*
X244367Y280972D01*
X244404Y281030D01*
X244409Y281061D01*
X244423Y281090D01*
X244430Y281182D01*
X244437Y281226D01*
X244434Y281239D01*
X244435Y281256D01*
X244391Y281723D01*
X244384Y281746D01*
X244383Y281777D01*
X242334Y291743D01*
X255485Y291743D01*
X255519Y291674D01*
X257103Y283964D01*
X257109Y283951D01*
X257109Y283938D01*
X257147Y283860D01*
X257181Y283781D01*
X257191Y283772D01*
X257197Y283759D01*
X257320Y283646D01*
X257734Y283376D01*
X257765Y283364D01*
X257805Y283338D01*
X269900Y278001D01*
X269961Y277987D01*
X270020Y277965D01*
X270057Y277966D01*
X270094Y277958D01*
X270156Y277970D01*
G37*
G36*
X411975Y277990D02*
X411975Y277990D01*
X412002Y277987D01*
X412072Y278008D01*
X412143Y278022D01*
X412166Y278037D01*
X412192Y278045D01*
X412248Y278092D01*
X412309Y278132D01*
X412324Y278155D01*
X412345Y278173D01*
X412378Y278237D01*
X412418Y278298D01*
X412423Y278325D01*
X412436Y278350D01*
X412447Y278453D01*
X412454Y278493D01*
X412452Y278503D01*
X412453Y278515D01*
X412427Y278933D01*
X412419Y278962D01*
X412418Y279003D01*
X411428Y283810D01*
X420200Y283810D01*
X420215Y283814D01*
X420235Y283812D01*
X422078Y283944D01*
X422144Y283962D01*
X422212Y283972D01*
X422239Y283988D01*
X422270Y283997D01*
X422323Y284040D01*
X422382Y284075D01*
X422404Y284104D01*
X422425Y284121D01*
X422445Y284157D01*
X422483Y284207D01*
X425983Y290787D01*
X426546Y291347D01*
X432708Y284833D01*
X432739Y284810D01*
X432825Y284741D01*
X434359Y283875D01*
X434402Y283861D01*
X434441Y283838D01*
X434508Y283827D01*
X434548Y283814D01*
X434573Y283816D01*
X434605Y283810D01*
X444231Y283810D01*
X444273Y283819D01*
X444315Y283817D01*
X444369Y283838D01*
X444426Y283850D01*
X444461Y283874D01*
X444500Y283889D01*
X444554Y283938D01*
X444590Y283963D01*
X444602Y283981D01*
X444624Y284001D01*
X445108Y284616D01*
X445140Y284680D01*
X445180Y284740D01*
X445185Y284768D01*
X445198Y284793D01*
X445202Y284865D01*
X445215Y284935D01*
X445209Y284963D01*
X445211Y284992D01*
X445187Y285060D01*
X445171Y285129D01*
X445154Y285156D01*
X445145Y285179D01*
X445116Y285211D01*
X445079Y285268D01*
X430998Y300159D01*
X438806Y314786D01*
X438830Y314864D01*
X438859Y314940D01*
X438858Y314958D01*
X438863Y314976D01*
X438854Y315057D01*
X438851Y315139D01*
X438843Y315157D01*
X438841Y315174D01*
X438819Y315213D01*
X438785Y315291D01*
X438254Y316115D01*
X438208Y316161D01*
X438170Y316214D01*
X438139Y316232D01*
X438115Y316257D01*
X438055Y316282D01*
X437998Y316315D01*
X437959Y316322D01*
X437931Y316334D01*
X437892Y316333D01*
X437834Y316343D01*
X428208Y316343D01*
X428136Y316329D01*
X428063Y316322D01*
X428036Y316308D01*
X428013Y316304D01*
X427977Y316279D01*
X427914Y316247D01*
X426592Y315285D01*
X426572Y315263D01*
X426546Y315248D01*
X426486Y315170D01*
X426458Y315138D01*
X426454Y315127D01*
X426445Y315116D01*
X423131Y308885D01*
X422458Y309194D01*
X416011Y316010D01*
X415933Y316064D01*
X415856Y316120D01*
X415851Y316122D01*
X415848Y316124D01*
X415820Y316130D01*
X415696Y316164D01*
X413850Y316341D01*
X413829Y316339D01*
X413803Y316343D01*
X404730Y316343D01*
X403994Y319917D01*
X403971Y319971D01*
X403958Y320027D01*
X403933Y320061D01*
X403916Y320100D01*
X403874Y320140D01*
X403840Y320187D01*
X403803Y320209D01*
X403772Y320238D01*
X403719Y320259D01*
X403669Y320288D01*
X403620Y320297D01*
X403587Y320309D01*
X403552Y320308D01*
X403505Y320316D01*
X360145Y320316D01*
X360089Y320305D01*
X360032Y320303D01*
X359993Y320285D01*
X359951Y320276D01*
X359903Y320244D01*
X359851Y320220D01*
X359822Y320188D01*
X359787Y320164D01*
X359756Y320115D01*
X359717Y320073D01*
X359699Y320026D01*
X359680Y319996D01*
X359674Y319962D01*
X359657Y319918D01*
X359580Y319549D01*
X359580Y319531D01*
X359574Y319514D01*
X359578Y319419D01*
X359575Y319406D01*
X359579Y319393D01*
X359580Y319363D01*
X359580Y319350D01*
X359580Y319349D01*
X359580Y319347D01*
X365060Y292741D01*
X345860Y292741D01*
X345809Y292731D01*
X345758Y292731D01*
X345713Y292712D01*
X345665Y292702D01*
X345622Y292673D01*
X345575Y292652D01*
X345541Y292617D01*
X345501Y292589D01*
X345473Y292546D01*
X345438Y292509D01*
X345420Y292463D01*
X345394Y292422D01*
X345385Y292371D01*
X345367Y292323D01*
X345369Y292274D01*
X345361Y292226D01*
X345373Y292176D01*
X345375Y292124D01*
X345398Y292071D01*
X345407Y292032D01*
X345425Y292008D01*
X345440Y291971D01*
X345678Y291603D01*
X345694Y291587D01*
X345708Y291562D01*
X353966Y281239D01*
X353989Y281220D01*
X354014Y281187D01*
X354379Y280845D01*
X354383Y280843D01*
X354385Y280839D01*
X354467Y280791D01*
X354548Y280741D01*
X354552Y280740D01*
X354556Y280738D01*
X354720Y280710D01*
X379044Y280710D01*
X379096Y280721D01*
X379150Y280722D01*
X379193Y280740D01*
X379239Y280750D01*
X379283Y280780D01*
X379332Y280802D01*
X379371Y280841D01*
X379403Y280862D01*
X379420Y280889D01*
X379450Y280919D01*
X379645Y281192D01*
X379654Y281212D01*
X379668Y281228D01*
X379682Y281268D01*
X379703Y281300D01*
X379709Y281335D01*
X379726Y281373D01*
X379726Y281395D01*
X379733Y281416D01*
X379731Y281470D01*
X379736Y281496D01*
X379729Y281523D01*
X379729Y281541D01*
X379729Y281572D01*
X379728Y281576D01*
X379727Y281582D01*
X374879Y305142D01*
X383162Y294789D01*
X383228Y294734D01*
X383291Y294675D01*
X383305Y294670D01*
X383314Y294662D01*
X383356Y294649D01*
X383445Y294613D01*
X383924Y294509D01*
X383966Y294508D01*
X384030Y294497D01*
X396852Y294497D01*
X396879Y294384D01*
X399008Y284032D01*
X399040Y283957D01*
X399067Y283880D01*
X399080Y283864D01*
X399086Y283849D01*
X399119Y283818D01*
X399174Y283752D01*
X399538Y283442D01*
X399575Y283422D01*
X399660Y283366D01*
X411753Y278027D01*
X411780Y278022D01*
X411804Y278008D01*
X411877Y278000D01*
X411948Y277985D01*
X411975Y277990D01*
G37*
G36*
X199056Y278059D02*
X199056Y278059D01*
X199083Y278056D01*
X199153Y278077D01*
X199224Y278091D01*
X199247Y278106D01*
X199273Y278114D01*
X199355Y278178D01*
X199390Y278201D01*
X199395Y278209D01*
X199405Y278217D01*
X199570Y278398D01*
X199597Y278442D01*
X199631Y278481D01*
X199647Y278527D01*
X199672Y278568D01*
X199679Y278620D01*
X199696Y278669D01*
X199694Y278726D01*
X199700Y278765D01*
X199692Y278794D01*
X199690Y278835D01*
X194633Y303382D01*
X201489Y294814D01*
X201545Y294767D01*
X201595Y294715D01*
X201623Y294702D01*
X201642Y294686D01*
X201683Y294674D01*
X201746Y294645D01*
X202212Y294515D01*
X202257Y294512D01*
X202346Y294497D01*
X215190Y294497D01*
X215218Y294396D01*
X215560Y292741D01*
X204215Y292741D01*
X204146Y292727D01*
X204076Y292722D01*
X204049Y292708D01*
X204020Y292702D01*
X203962Y292662D01*
X203900Y292629D01*
X203881Y292606D01*
X203856Y292589D01*
X203818Y292530D01*
X203774Y292476D01*
X203765Y292447D01*
X203749Y292422D01*
X203737Y292352D01*
X203717Y292285D01*
X203721Y292255D01*
X203716Y292226D01*
X203732Y292157D01*
X203740Y292087D01*
X203756Y292057D01*
X203762Y292032D01*
X203787Y291998D01*
X203818Y291940D01*
X204122Y291539D01*
X204127Y291536D01*
X204130Y291530D01*
X212389Y281206D01*
X212415Y281184D01*
X212419Y281179D01*
X212424Y281176D01*
X212465Y281130D01*
X212845Y280821D01*
X212921Y280782D01*
X212995Y280738D01*
X213011Y280735D01*
X213022Y280729D01*
X213065Y280726D01*
X213159Y280710D01*
X229554Y280710D01*
X229611Y280722D01*
X229670Y280724D01*
X229708Y280741D01*
X229748Y280750D01*
X229797Y280783D01*
X229850Y280808D01*
X229884Y280843D01*
X229912Y280862D01*
X229931Y280892D01*
X229966Y280928D01*
X230155Y281205D01*
X230161Y281220D01*
X230173Y281233D01*
X230200Y281312D01*
X230232Y281388D01*
X230232Y281405D01*
X230238Y281421D01*
X230232Y281586D01*
X230232Y281587D01*
X222341Y319917D01*
X222318Y319971D01*
X222305Y320027D01*
X222280Y320061D01*
X222263Y320100D01*
X222221Y320140D01*
X222187Y320187D01*
X222150Y320209D01*
X222120Y320238D01*
X222066Y320259D01*
X222016Y320288D01*
X221967Y320297D01*
X221934Y320309D01*
X221899Y320308D01*
X221852Y320316D01*
X221809Y320316D01*
X166281Y320314D01*
X166273Y320312D01*
X166263Y320313D01*
X165206Y320276D01*
X165195Y320274D01*
X165181Y320275D01*
X164128Y320185D01*
X164115Y320181D01*
X164099Y320182D01*
X163052Y320031D01*
X163041Y320027D01*
X163027Y320027D01*
X162508Y319925D01*
X162496Y319919D01*
X162479Y319918D01*
X161456Y319653D01*
X161442Y319646D01*
X161424Y319643D01*
X160922Y319477D01*
X160912Y319471D01*
X160898Y319468D01*
X160405Y319277D01*
X160395Y319270D01*
X160380Y319266D01*
X159898Y319048D01*
X159887Y319040D01*
X159871Y319034D01*
X159404Y318787D01*
X159392Y318778D01*
X159375Y318771D01*
X158925Y318494D01*
X158914Y318483D01*
X158896Y318475D01*
X158466Y318167D01*
X158455Y318155D01*
X158437Y318144D01*
X158031Y317805D01*
X158020Y317792D01*
X158002Y317779D01*
X157624Y317410D01*
X157614Y317395D01*
X157597Y317381D01*
X157249Y316982D01*
X157240Y316967D01*
X157224Y316951D01*
X156910Y316526D01*
X156902Y316510D01*
X156887Y316493D01*
X156608Y316044D01*
X156602Y316028D01*
X156589Y316010D01*
X156345Y315541D01*
X156340Y315525D01*
X156329Y315508D01*
X156121Y315022D01*
X156118Y315007D01*
X156108Y314990D01*
X155934Y314490D01*
X155932Y314476D01*
X155924Y314459D01*
X155783Y313950D01*
X155782Y313937D01*
X155776Y313921D01*
X155665Y313404D01*
X155665Y313392D01*
X155660Y313377D01*
X155578Y312855D01*
X155578Y312843D01*
X155574Y312830D01*
X155518Y312304D01*
X155520Y312289D01*
X155516Y312271D01*
X155474Y311215D01*
X155476Y311202D01*
X155474Y311185D01*
X155483Y310657D01*
X155486Y310645D01*
X155485Y310631D01*
X155558Y309576D01*
X155561Y309564D01*
X155561Y309548D01*
X155695Y308499D01*
X155699Y308488D01*
X155699Y308474D01*
X155884Y307433D01*
X155888Y307424D01*
X155889Y307412D01*
X156119Y306380D01*
X156123Y306371D01*
X156125Y306358D01*
X156402Y305337D01*
X156407Y305327D01*
X156409Y305313D01*
X156736Y304308D01*
X156741Y304300D01*
X156743Y304289D01*
X156927Y303793D01*
X156933Y303784D01*
X156935Y303772D01*
X157347Y302798D01*
X157355Y302787D01*
X157361Y302769D01*
X157834Y301824D01*
X157844Y301811D01*
X157844Y301809D01*
X157845Y301808D01*
X157851Y301793D01*
X158388Y300883D01*
X158397Y300873D01*
X158403Y300859D01*
X158697Y300420D01*
X158707Y300410D01*
X158715Y300396D01*
X159354Y299553D01*
X159364Y299544D01*
X159373Y299529D01*
X159718Y299128D01*
X159725Y299122D01*
X159732Y299113D01*
X160093Y298727D01*
X160101Y298721D01*
X160108Y298711D01*
X160486Y298341D01*
X160494Y298336D01*
X160502Y298326D01*
X160895Y297973D01*
X160904Y297968D01*
X160911Y297959D01*
X161320Y297623D01*
X161329Y297618D01*
X161337Y297609D01*
X161760Y297292D01*
X161769Y297287D01*
X161777Y297279D01*
X162213Y296980D01*
X162222Y296976D01*
X162231Y296968D01*
X162680Y296688D01*
X162693Y296683D01*
X162707Y296672D01*
X163314Y296344D01*
X163305Y296296D01*
X157558Y281556D01*
X157547Y281487D01*
X157526Y281420D01*
X157530Y281390D01*
X157525Y281360D01*
X157541Y281292D01*
X157548Y281222D01*
X157563Y281196D01*
X157570Y281167D01*
X157611Y281110D01*
X157646Y281049D01*
X157672Y281027D01*
X157687Y281006D01*
X157723Y280984D01*
X157774Y280943D01*
X158061Y280777D01*
X158105Y280762D01*
X158146Y280738D01*
X158209Y280727D01*
X158249Y280714D01*
X158276Y280716D01*
X158310Y280710D01*
X171002Y280710D01*
X171097Y280729D01*
X171191Y280747D01*
X171194Y280749D01*
X171197Y280750D01*
X171276Y280804D01*
X171357Y280857D01*
X171359Y280861D01*
X171361Y280862D01*
X171373Y280881D01*
X171453Y280993D01*
X171671Y281448D01*
X171675Y281464D01*
X171686Y281483D01*
X176746Y294488D01*
X176921Y294497D01*
X184066Y294497D01*
X184103Y294449D01*
X186211Y284202D01*
X186216Y284191D01*
X186270Y284049D01*
X186511Y283639D01*
X186559Y283586D01*
X186601Y283528D01*
X186627Y283510D01*
X186644Y283492D01*
X186683Y283473D01*
X186739Y283436D01*
X198834Y278097D01*
X198861Y278091D01*
X198885Y278077D01*
X198958Y278070D01*
X199029Y278054D01*
X199056Y278059D01*
G37*
G36*
X147124Y280724D02*
X147124Y280724D01*
X147184Y280727D01*
X147221Y280744D01*
X147260Y280752D01*
X147310Y280786D01*
X147364Y280812D01*
X147391Y280842D01*
X147424Y280865D01*
X147456Y280915D01*
X147496Y280960D01*
X147513Y281004D01*
X147531Y281032D01*
X147537Y281068D01*
X147555Y281116D01*
X147816Y282448D01*
X147815Y282463D01*
X147821Y282478D01*
X147815Y282644D01*
X145920Y291849D01*
X145889Y291922D01*
X145864Y291997D01*
X145850Y292013D01*
X145842Y292032D01*
X145785Y292087D01*
X145732Y292146D01*
X145712Y292157D01*
X145698Y292170D01*
X145656Y292186D01*
X145585Y292223D01*
X144068Y292716D01*
X144038Y292719D01*
X143914Y292740D01*
X122662Y292740D01*
X120947Y292781D01*
X120128Y293656D01*
X120622Y294484D01*
X122270Y294499D01*
X143528Y294499D01*
X143580Y294510D01*
X143632Y294510D01*
X143685Y294531D01*
X143723Y294539D01*
X143748Y294556D01*
X143787Y294572D01*
X144884Y295238D01*
X144901Y295253D01*
X144922Y295263D01*
X144973Y295320D01*
X145030Y295373D01*
X145039Y295394D01*
X145055Y295411D01*
X145080Y295484D01*
X145111Y295554D01*
X145112Y295577D01*
X145119Y295599D01*
X145116Y295694D01*
X145118Y295707D01*
X145115Y295719D01*
X145116Y295753D01*
X145114Y295758D01*
X145114Y295765D01*
X143218Y304970D01*
X143203Y305005D01*
X143198Y305043D01*
X143158Y305112D01*
X143140Y305153D01*
X143127Y305166D01*
X143115Y305187D01*
X142160Y306345D01*
X142131Y306369D01*
X142110Y306398D01*
X142055Y306430D01*
X142006Y306471D01*
X141970Y306481D01*
X141939Y306500D01*
X141858Y306513D01*
X141814Y306526D01*
X141797Y306523D01*
X141775Y306527D01*
X118686Y306527D01*
X117401Y307076D01*
X117377Y308079D01*
X118769Y308286D01*
X141923Y308286D01*
X141981Y308298D01*
X142040Y308300D01*
X142077Y308317D01*
X142118Y308326D01*
X142167Y308359D01*
X142220Y308384D01*
X142248Y308415D01*
X142282Y308438D01*
X142314Y308488D01*
X142353Y308532D01*
X142367Y308571D01*
X142389Y308606D01*
X142399Y308664D01*
X142418Y308720D01*
X142416Y308768D01*
X142422Y308802D01*
X142414Y308836D01*
X142412Y308886D01*
X140517Y318091D01*
X140516Y318093D01*
X140516Y318095D01*
X140123Y319920D01*
X140101Y319971D01*
X140088Y320025D01*
X140061Y320061D01*
X140043Y320102D01*
X140003Y320140D01*
X139970Y320185D01*
X139932Y320208D01*
X139899Y320239D01*
X139847Y320258D01*
X139799Y320286D01*
X139747Y320295D01*
X139713Y320308D01*
X139680Y320307D01*
X139635Y320314D01*
X116444Y320314D01*
X116442Y320314D01*
X116439Y320314D01*
X114506Y320293D01*
X114489Y320290D01*
X114467Y320291D01*
X112544Y320120D01*
X112519Y320113D01*
X112486Y320112D01*
X110598Y319718D01*
X110567Y319704D01*
X110520Y319695D01*
X108727Y319003D01*
X108691Y318980D01*
X108629Y318951D01*
X107043Y317887D01*
X107012Y317856D01*
X106941Y317796D01*
X105714Y316355D01*
X105693Y316316D01*
X105640Y316238D01*
X104860Y314526D01*
X104850Y314483D01*
X104825Y314417D01*
X104457Y312577D01*
X104457Y312541D01*
X104447Y312492D01*
X104396Y310617D01*
X104400Y310591D01*
X104398Y310556D01*
X104577Y308687D01*
X104583Y308668D01*
X104584Y308643D01*
X104930Y306796D01*
X104937Y306780D01*
X104939Y306757D01*
X105432Y304943D01*
X105441Y304924D01*
X105446Y304899D01*
X106106Y303135D01*
X106119Y303115D01*
X106128Y303085D01*
X106964Y301430D01*
X107488Y299920D01*
X107245Y298181D01*
X107247Y298149D01*
X107240Y298105D01*
X107268Y296229D01*
X107274Y296205D01*
X107272Y296173D01*
X107509Y294311D01*
X107515Y294293D01*
X107516Y294270D01*
X107907Y292432D01*
X107915Y292415D01*
X107918Y292392D01*
X108459Y290590D01*
X108469Y290571D01*
X108476Y290544D01*
X109192Y288801D01*
X109206Y288780D01*
X109217Y288749D01*
X110132Y287097D01*
X110151Y287075D01*
X110168Y287041D01*
X111301Y285521D01*
X111325Y285500D01*
X111350Y285465D01*
X112702Y284127D01*
X112730Y284108D01*
X112762Y284076D01*
X114314Y282960D01*
X114343Y282947D01*
X114379Y282920D01*
X116089Y282050D01*
X116118Y282042D01*
X116153Y282023D01*
X117974Y281397D01*
X118000Y281394D01*
X118032Y281381D01*
X119918Y280979D01*
X119941Y280978D01*
X119969Y280970D01*
X121889Y280762D01*
X121907Y280764D01*
X121930Y280760D01*
X123862Y280713D01*
X123867Y280714D01*
X123874Y280713D01*
X147065Y280713D01*
X147124Y280724D01*
G37*
G36*
X49643Y280737D02*
X49643Y280737D01*
X49655Y280740D01*
X49670Y280738D01*
X51600Y280863D01*
X51614Y280867D01*
X51633Y280866D01*
X53550Y281117D01*
X53567Y281123D01*
X53590Y281124D01*
X55479Y281528D01*
X55499Y281536D01*
X55527Y281540D01*
X57363Y282129D01*
X57387Y282143D01*
X57421Y282152D01*
X59166Y282960D01*
X59192Y282978D01*
X59231Y282996D01*
X60830Y284051D01*
X60856Y284076D01*
X60898Y284104D01*
X62284Y285412D01*
X62306Y285443D01*
X62345Y285481D01*
X63462Y287013D01*
X63477Y287047D01*
X63508Y287090D01*
X64330Y288789D01*
X64338Y288821D01*
X64359Y288863D01*
X64901Y290666D01*
X64903Y290694D01*
X64915Y290730D01*
X65213Y292587D01*
X65212Y292610D01*
X65218Y292641D01*
X65313Y294517D01*
X65310Y294537D01*
X65313Y294561D01*
X65243Y296439D01*
X65239Y296455D01*
X65240Y296475D01*
X65036Y298344D01*
X65032Y298357D01*
X65032Y298373D01*
X64718Y300228D01*
X64716Y300234D01*
X64716Y300242D01*
X64642Y300611D01*
X64639Y300618D01*
X64639Y300626D01*
X64214Y302460D01*
X64209Y302471D01*
X64207Y302485D01*
X63686Y304295D01*
X63679Y304307D01*
X63677Y304324D01*
X63048Y306101D01*
X63040Y306114D01*
X63035Y306132D01*
X62289Y307866D01*
X62281Y307876D01*
X62279Y307886D01*
X62275Y307891D01*
X62273Y307899D01*
X61397Y309575D01*
X61386Y309590D01*
X61377Y309611D01*
X60365Y311212D01*
X60351Y311227D01*
X60339Y311249D01*
X59185Y312757D01*
X59169Y312771D01*
X59154Y312794D01*
X57856Y314187D01*
X57838Y314200D01*
X57820Y314222D01*
X56386Y315483D01*
X56367Y315494D01*
X56347Y315514D01*
X54788Y316627D01*
X54768Y316636D01*
X54746Y316654D01*
X53188Y317546D01*
X53172Y317551D01*
X53159Y317562D01*
X53078Y317582D01*
X53062Y317588D01*
X52964Y317654D01*
X52936Y317675D01*
X52930Y317677D01*
X52924Y317681D01*
X51284Y318423D01*
X51265Y318428D01*
X51243Y318440D01*
X49424Y319077D01*
X49406Y319080D01*
X49385Y319089D01*
X47517Y319578D01*
X47501Y319579D01*
X47482Y319586D01*
X45581Y319938D01*
X45567Y319938D01*
X45549Y319943D01*
X43629Y320171D01*
X43616Y320170D01*
X43600Y320174D01*
X41669Y320291D01*
X41657Y320289D01*
X41643Y320292D01*
X39709Y320309D01*
X39697Y320307D01*
X39683Y320309D01*
X37750Y320228D01*
X37737Y320224D01*
X37720Y320226D01*
X35796Y320028D01*
X35780Y320023D01*
X35760Y320023D01*
X33857Y319684D01*
X33838Y319677D01*
X33812Y319674D01*
X31951Y319163D01*
X31929Y319152D01*
X31897Y319145D01*
X30110Y318429D01*
X30085Y318412D01*
X30047Y318399D01*
X28382Y317445D01*
X28356Y317422D01*
X28315Y317398D01*
X26835Y316190D01*
X26812Y316161D01*
X26771Y316127D01*
X25541Y314679D01*
X25522Y314646D01*
X25488Y314604D01*
X24548Y312964D01*
X24537Y312931D01*
X24512Y312888D01*
X23862Y311120D01*
X23857Y311090D01*
X23842Y311051D01*
X23452Y309211D01*
X23452Y309185D01*
X23443Y309153D01*
X23272Y307281D01*
X23275Y307260D01*
X23270Y307234D01*
X23279Y305354D01*
X23282Y305337D01*
X23280Y305316D01*
X23434Y303442D01*
X23438Y303429D01*
X23438Y303411D01*
X23710Y301550D01*
X23714Y301539D01*
X23715Y301524D01*
X24085Y299679D01*
X24090Y299669D01*
X24091Y299655D01*
X24553Y297830D01*
X24558Y297818D01*
X24560Y297803D01*
X25124Y296005D01*
X25130Y295992D01*
X25134Y295975D01*
X25809Y294214D01*
X25817Y294201D01*
X25822Y294182D01*
X25913Y293986D01*
X26146Y293487D01*
X26378Y292988D01*
X26611Y292489D01*
X26611Y292488D01*
X26619Y292469D01*
X26630Y292455D01*
X26637Y292435D01*
X27566Y290787D01*
X27579Y290772D01*
X27589Y290750D01*
X28658Y289184D01*
X28672Y289170D01*
X28685Y289147D01*
X29897Y287682D01*
X29914Y287669D01*
X29930Y287646D01*
X31283Y286304D01*
X31302Y286291D01*
X31321Y286270D01*
X32806Y285067D01*
X32826Y285057D01*
X32847Y285037D01*
X34451Y283987D01*
X34471Y283979D01*
X34494Y283962D01*
X36197Y283072D01*
X36217Y283067D01*
X36239Y283053D01*
X38021Y282323D01*
X38040Y282319D01*
X38061Y282308D01*
X39902Y281731D01*
X39920Y281730D01*
X39940Y281721D01*
X41822Y281288D01*
X41838Y281288D01*
X41856Y281282D01*
X43766Y280981D01*
X43780Y280981D01*
X43797Y280977D01*
X45723Y280795D01*
X45735Y280796D01*
X45750Y280793D01*
X47683Y280717D01*
X47694Y280719D01*
X47708Y280717D01*
X49643Y280737D01*
G37*
G36*
X95839Y280724D02*
X95839Y280724D01*
X95856Y280727D01*
X95876Y280725D01*
X97802Y280870D01*
X97826Y280877D01*
X97857Y280878D01*
X99752Y281237D01*
X99783Y281249D01*
X99827Y281257D01*
X101638Y281903D01*
X101674Y281924D01*
X101734Y281949D01*
X103357Y282959D01*
X103390Y282989D01*
X103460Y283044D01*
X104745Y284437D01*
X104767Y284475D01*
X104824Y284552D01*
X105667Y286236D01*
X105678Y286278D01*
X105707Y286347D01*
X106127Y288176D01*
X106128Y288213D01*
X106139Y288264D01*
X106229Y290137D01*
X106224Y290165D01*
X106227Y290201D01*
X106077Y292072D01*
X106071Y292092D01*
X106071Y292118D01*
X105746Y293968D01*
X105744Y293974D01*
X105743Y293982D01*
X103091Y306866D01*
X103089Y306869D01*
X103089Y306874D01*
X102680Y308708D01*
X102673Y308724D01*
X102670Y308746D01*
X102119Y310544D01*
X102109Y310563D01*
X102102Y310591D01*
X101376Y312329D01*
X101361Y312350D01*
X101350Y312381D01*
X100422Y314026D01*
X100403Y314048D01*
X100385Y314083D01*
X99239Y315592D01*
X99215Y315614D01*
X99190Y315649D01*
X97825Y316975D01*
X97798Y316993D01*
X97765Y317025D01*
X96203Y318127D01*
X96174Y318140D01*
X96138Y318166D01*
X94420Y319021D01*
X94392Y319029D01*
X94357Y319048D01*
X92532Y319660D01*
X92506Y319663D01*
X92474Y319675D01*
X90585Y320066D01*
X90563Y320066D01*
X90535Y320073D01*
X88614Y320271D01*
X88596Y320269D01*
X88574Y320274D01*
X86642Y320314D01*
X86638Y320313D01*
X86632Y320314D01*
X63017Y320314D01*
X62959Y320302D01*
X62900Y320300D01*
X62863Y320283D01*
X62822Y320274D01*
X62774Y320241D01*
X62720Y320216D01*
X62692Y320185D01*
X62658Y320162D01*
X62627Y320112D01*
X62587Y320068D01*
X62574Y320029D01*
X62551Y319994D01*
X62541Y319936D01*
X62522Y319880D01*
X62524Y319832D01*
X62518Y319798D01*
X62526Y319764D01*
X62528Y319714D01*
X64423Y310511D01*
X64423Y310510D01*
X64424Y310508D01*
X64814Y308681D01*
X64837Y308630D01*
X64849Y308575D01*
X64876Y308540D01*
X64894Y308499D01*
X64934Y308460D01*
X64967Y308415D01*
X65006Y308393D01*
X65038Y308362D01*
X65090Y308342D01*
X65138Y308314D01*
X65190Y308305D01*
X65224Y308292D01*
X65257Y308294D01*
X65302Y308286D01*
X88458Y308286D01*
X90057Y308094D01*
X90615Y307009D01*
X90194Y306527D01*
X78828Y306527D01*
X78821Y306526D01*
X78812Y306527D01*
X76882Y306465D01*
X76861Y306460D01*
X76834Y306461D01*
X74920Y306215D01*
X74893Y306206D01*
X74855Y306202D01*
X72994Y305707D01*
X72960Y305691D01*
X72908Y305676D01*
X71175Y304853D01*
X71140Y304826D01*
X71072Y304788D01*
X69603Y303579D01*
X69575Y303545D01*
X69568Y303537D01*
X69551Y303526D01*
X69540Y303509D01*
X69508Y303475D01*
X68442Y301916D01*
X68425Y301875D01*
X68383Y301799D01*
X67765Y300025D01*
X67760Y299984D01*
X67741Y299925D01*
X67502Y298064D01*
X67504Y298032D01*
X67498Y297989D01*
X67540Y296114D01*
X67545Y296091D01*
X67544Y296059D01*
X67792Y294199D01*
X67798Y294181D01*
X67799Y294158D01*
X68199Y292322D01*
X68206Y292305D01*
X68209Y292282D01*
X68760Y290484D01*
X68770Y290465D01*
X68777Y290437D01*
X69504Y288699D01*
X69518Y288678D01*
X69529Y288647D01*
X70395Y287110D01*
X70412Y287092D01*
X70421Y287069D01*
X70476Y287017D01*
X70492Y286999D01*
X70492Y286993D01*
X70544Y286893D01*
X70560Y286859D01*
X70565Y286854D01*
X70569Y286845D01*
X71639Y285435D01*
X71663Y285414D01*
X71689Y285379D01*
X73053Y284053D01*
X73081Y284035D01*
X73113Y284003D01*
X74675Y282901D01*
X74705Y282888D01*
X74740Y282862D01*
X76458Y282006D01*
X76486Y281998D01*
X76521Y281980D01*
X78346Y281367D01*
X78372Y281364D01*
X78404Y281351D01*
X80293Y280961D01*
X80315Y280961D01*
X80343Y280953D01*
X82264Y280756D01*
X82282Y280757D01*
X82304Y280753D01*
X84236Y280713D01*
X84240Y280714D01*
X84246Y280713D01*
X95839Y280724D01*
G37*
G36*
X283057Y119705D02*
X283057Y119705D01*
X283065Y119704D01*
X283154Y119725D01*
X283244Y119743D01*
X283251Y119748D01*
X283259Y119750D01*
X283332Y119804D01*
X283408Y119856D01*
X283412Y119863D01*
X283419Y119868D01*
X283465Y119946D01*
X283515Y120023D01*
X283516Y120031D01*
X283520Y120039D01*
X283548Y120203D01*
X283548Y145869D01*
X283546Y145877D01*
X283548Y145886D01*
X283527Y145974D01*
X283509Y146064D01*
X283504Y146071D01*
X283502Y146079D01*
X283448Y146152D01*
X283396Y146228D01*
X283389Y146232D01*
X283384Y146239D01*
X283306Y146286D01*
X283228Y146335D01*
X283220Y146336D01*
X283213Y146341D01*
X283049Y146368D01*
X261232Y146368D01*
X261216Y146365D01*
X261200Y146367D01*
X261167Y146358D01*
X261107Y146368D01*
X257383Y146368D01*
X257374Y146367D01*
X257366Y146368D01*
X257278Y146347D01*
X257188Y146329D01*
X257181Y146324D01*
X257173Y146322D01*
X257099Y146268D01*
X257024Y146216D01*
X257019Y146209D01*
X257012Y146204D01*
X256966Y146126D01*
X256917Y146049D01*
X256915Y146040D01*
X256911Y146033D01*
X256883Y145869D01*
X256883Y120203D01*
X256885Y120194D01*
X256884Y120186D01*
X256905Y120098D01*
X256923Y120008D01*
X256928Y120001D01*
X256930Y119993D01*
X256984Y119919D01*
X257035Y119844D01*
X257043Y119839D01*
X257047Y119833D01*
X257126Y119786D01*
X257203Y119737D01*
X257211Y119735D01*
X257219Y119731D01*
X257383Y119703D01*
X283049Y119703D01*
X283057Y119705D01*
G37*
G36*
X282991Y200270D02*
X282991Y200270D01*
X282999Y200269D01*
X283088Y200290D01*
X283177Y200308D01*
X283184Y200313D01*
X283193Y200315D01*
X283266Y200369D01*
X283341Y200421D01*
X283346Y200428D01*
X283353Y200433D01*
X283399Y200511D01*
X283448Y200588D01*
X283450Y200596D01*
X283454Y200604D01*
X283482Y200768D01*
X283482Y226434D01*
X283480Y226442D01*
X283482Y226451D01*
X283461Y226539D01*
X283442Y226629D01*
X283437Y226636D01*
X283436Y226644D01*
X283382Y226717D01*
X283330Y226793D01*
X283323Y226797D01*
X283318Y226804D01*
X283239Y226851D01*
X283162Y226900D01*
X283154Y226901D01*
X283147Y226906D01*
X282983Y226933D01*
X261166Y226933D01*
X261150Y226930D01*
X261134Y226932D01*
X261101Y226923D01*
X261041Y226933D01*
X257316Y226933D01*
X257308Y226932D01*
X257300Y226933D01*
X257211Y226912D01*
X257121Y226894D01*
X257114Y226889D01*
X257106Y226887D01*
X257033Y226833D01*
X256957Y226781D01*
X256953Y226774D01*
X256946Y226769D01*
X256900Y226691D01*
X256850Y226614D01*
X256849Y226605D01*
X256845Y226598D01*
X256817Y226434D01*
X256817Y200768D01*
X256819Y200759D01*
X256817Y200751D01*
X256838Y200663D01*
X256857Y200573D01*
X256861Y200566D01*
X256863Y200558D01*
X256917Y200485D01*
X256969Y200409D01*
X256976Y200404D01*
X256981Y200398D01*
X257060Y200351D01*
X257137Y200302D01*
X257145Y200300D01*
X257152Y200296D01*
X257316Y200268D01*
X282983Y200268D01*
X282991Y200270D01*
G37*
G36*
X202521Y199983D02*
X202521Y199983D01*
X202529Y199982D01*
X202617Y200003D01*
X202707Y200021D01*
X202714Y200026D01*
X202722Y200028D01*
X202796Y200082D01*
X202871Y200134D01*
X202876Y200141D01*
X202882Y200146D01*
X202929Y200224D01*
X202978Y200301D01*
X202980Y200309D01*
X202984Y200317D01*
X203012Y200481D01*
X203012Y226147D01*
X203010Y226155D01*
X203011Y226164D01*
X202990Y226252D01*
X202972Y226342D01*
X202967Y226349D01*
X202965Y226357D01*
X202911Y226430D01*
X202860Y226506D01*
X202852Y226510D01*
X202847Y226517D01*
X202769Y226564D01*
X202692Y226613D01*
X202684Y226614D01*
X202676Y226619D01*
X202512Y226646D01*
X180696Y226646D01*
X180680Y226643D01*
X180663Y226645D01*
X180630Y226636D01*
X180571Y226646D01*
X176846Y226646D01*
X176838Y226645D01*
X176830Y226646D01*
X176741Y226625D01*
X176651Y226607D01*
X176644Y226602D01*
X176636Y226600D01*
X176563Y226546D01*
X176487Y226494D01*
X176483Y226487D01*
X176476Y226482D01*
X176430Y226404D01*
X176380Y226327D01*
X176379Y226318D01*
X176375Y226311D01*
X176347Y226147D01*
X176347Y200481D01*
X176349Y200472D01*
X176347Y200464D01*
X176368Y200376D01*
X176386Y200286D01*
X176391Y200279D01*
X176393Y200271D01*
X176447Y200197D01*
X176499Y200122D01*
X176506Y200117D01*
X176511Y200111D01*
X176589Y200064D01*
X176667Y200015D01*
X176675Y200013D01*
X176682Y200009D01*
X176846Y199981D01*
X202512Y199981D01*
X202521Y199983D01*
G37*
%LPC*%
G36*
X261732Y124552D02*
X261732Y124552D01*
X261732Y141520D01*
X278700Y141520D01*
X278700Y124552D01*
X261732Y124552D01*
G37*
%LPD*%
%LPC*%
G36*
X261665Y205117D02*
X261665Y205117D01*
X261665Y222085D01*
X278633Y222085D01*
X278633Y205117D01*
X261665Y205117D01*
G37*
%LPD*%
%LPC*%
G36*
X181195Y204830D02*
X181195Y204830D01*
X181195Y221798D01*
X198163Y221798D01*
X198163Y204830D01*
X181195Y204830D01*
G37*
%LPD*%
%LPC*%
G36*
X43390Y292971D02*
X43390Y292971D01*
X41624Y293472D01*
X40019Y294309D01*
X38663Y295480D01*
X37606Y296924D01*
X36913Y298400D01*
X36841Y298554D01*
X36329Y300294D01*
X36034Y302079D01*
X36029Y303850D01*
X36463Y305508D01*
X37469Y306860D01*
X38969Y307735D01*
X40728Y308166D01*
X42585Y308285D01*
X44071Y308215D01*
X45898Y307893D01*
X47544Y307285D01*
X47612Y307275D01*
X47669Y307223D01*
X49125Y306287D01*
X50364Y304997D01*
X51301Y303468D01*
X51959Y301786D01*
X52384Y300021D01*
X52578Y298234D01*
X52427Y296491D01*
X51773Y294928D01*
X50545Y293756D01*
X48915Y293074D01*
X47104Y292782D01*
X45238Y292759D01*
X43390Y292971D01*
G37*
%LPD*%
G36*
X195058Y119576D02*
X195058Y119576D01*
X195066Y119574D01*
X195155Y119595D01*
X195245Y119614D01*
X195252Y119618D01*
X195260Y119620D01*
X195333Y119674D01*
X195409Y119726D01*
X195413Y119733D01*
X195420Y119738D01*
X195466Y119817D01*
X195516Y119894D01*
X195517Y119902D01*
X195521Y119909D01*
X195549Y120073D01*
X195549Y126907D01*
X198716Y126907D01*
X198725Y126909D01*
X198733Y126908D01*
X198821Y126929D01*
X198911Y126947D01*
X198918Y126952D01*
X198926Y126954D01*
X199000Y127008D01*
X199075Y127060D01*
X199080Y127067D01*
X199087Y127072D01*
X199133Y127150D01*
X199182Y127227D01*
X199184Y127235D01*
X199188Y127243D01*
X199216Y127407D01*
X199216Y131073D01*
X199214Y131082D01*
X199215Y131090D01*
X199194Y131178D01*
X199176Y131268D01*
X199171Y131275D01*
X199169Y131283D01*
X199115Y131357D01*
X199064Y131432D01*
X199057Y131437D01*
X199052Y131443D01*
X198973Y131490D01*
X198896Y131539D01*
X198888Y131541D01*
X198881Y131545D01*
X198716Y131573D01*
X191383Y131573D01*
X191375Y131571D01*
X191367Y131572D01*
X191278Y131551D01*
X191188Y131533D01*
X191181Y131528D01*
X191173Y131526D01*
X191100Y131472D01*
X191024Y131420D01*
X191020Y131413D01*
X191013Y131408D01*
X190967Y131330D01*
X190917Y131253D01*
X190916Y131245D01*
X190912Y131237D01*
X190884Y131073D01*
X190884Y127906D01*
X188216Y127906D01*
X188216Y131073D01*
X188214Y131082D01*
X188216Y131090D01*
X188195Y131178D01*
X188176Y131268D01*
X188172Y131275D01*
X188170Y131283D01*
X188116Y131357D01*
X188064Y131432D01*
X188057Y131437D01*
X188052Y131443D01*
X187973Y131490D01*
X187896Y131539D01*
X187888Y131541D01*
X187881Y131545D01*
X187717Y131573D01*
X184549Y131573D01*
X184549Y134740D01*
X184548Y134748D01*
X184549Y134756D01*
X184528Y134845D01*
X184510Y134935D01*
X184505Y134942D01*
X184503Y134950D01*
X184449Y135023D01*
X184397Y135099D01*
X184390Y135103D01*
X184385Y135110D01*
X184307Y135156D01*
X184230Y135206D01*
X184221Y135207D01*
X184214Y135211D01*
X184050Y135239D01*
X180383Y135239D01*
X180375Y135237D01*
X180367Y135239D01*
X180278Y135218D01*
X180189Y135200D01*
X180182Y135195D01*
X180173Y135193D01*
X180100Y135139D01*
X180025Y135087D01*
X180020Y135080D01*
X180013Y135075D01*
X179967Y134997D01*
X179918Y134919D01*
X179916Y134911D01*
X179912Y134904D01*
X179884Y134740D01*
X179884Y131573D01*
X176717Y131573D01*
X176708Y131571D01*
X176700Y131572D01*
X176612Y131551D01*
X176522Y131533D01*
X176515Y131528D01*
X176507Y131526D01*
X176434Y131472D01*
X176358Y131420D01*
X176353Y131413D01*
X176347Y131408D01*
X176300Y131330D01*
X176251Y131253D01*
X176249Y131245D01*
X176245Y131237D01*
X176217Y131073D01*
X176217Y123740D01*
X176219Y123732D01*
X176218Y123724D01*
X176239Y123635D01*
X176257Y123545D01*
X176262Y123538D01*
X176264Y123530D01*
X176318Y123457D01*
X176370Y123381D01*
X176377Y123377D01*
X176382Y123370D01*
X176460Y123324D01*
X176537Y123274D01*
X176545Y123273D01*
X176553Y123269D01*
X176717Y123241D01*
X180383Y123241D01*
X180392Y123243D01*
X180400Y123241D01*
X180488Y123262D01*
X180578Y123280D01*
X180585Y123285D01*
X180593Y123287D01*
X180667Y123341D01*
X180742Y123393D01*
X180747Y123400D01*
X180753Y123405D01*
X180800Y123483D01*
X180849Y123561D01*
X180851Y123569D01*
X180855Y123576D01*
X180883Y123740D01*
X180883Y126907D01*
X183551Y126907D01*
X183551Y123740D01*
X183553Y123732D01*
X183551Y123724D01*
X183572Y123635D01*
X183590Y123545D01*
X183595Y123538D01*
X183597Y123530D01*
X183651Y123457D01*
X183703Y123381D01*
X183710Y123377D01*
X183715Y123370D01*
X183793Y123324D01*
X183871Y123274D01*
X183879Y123273D01*
X183886Y123269D01*
X184050Y123241D01*
X187218Y123241D01*
X187218Y120073D01*
X187219Y120065D01*
X187218Y120057D01*
X187239Y119968D01*
X187257Y119878D01*
X187262Y119872D01*
X187264Y119863D01*
X187318Y119790D01*
X187370Y119715D01*
X187377Y119710D01*
X187382Y119703D01*
X187460Y119657D01*
X187537Y119608D01*
X187546Y119606D01*
X187553Y119602D01*
X187717Y119574D01*
X195050Y119574D01*
X195058Y119576D01*
G37*
G36*
X253724Y214908D02*
X253724Y214908D01*
X253732Y214907D01*
X253821Y214928D01*
X253911Y214946D01*
X253918Y214951D01*
X253926Y214953D01*
X253999Y215006D01*
X254075Y215058D01*
X254079Y215065D01*
X254086Y215070D01*
X254132Y215149D01*
X254182Y215226D01*
X254183Y215234D01*
X254187Y215241D01*
X254215Y215405D01*
X254215Y226405D01*
X254213Y226414D01*
X254215Y226422D01*
X254194Y226510D01*
X254176Y226600D01*
X254171Y226607D01*
X254169Y226615D01*
X254115Y226689D01*
X254063Y226764D01*
X254056Y226769D01*
X254051Y226775D01*
X253973Y226822D01*
X253895Y226871D01*
X253887Y226873D01*
X253880Y226877D01*
X253716Y226905D01*
X235383Y226905D01*
X235375Y226903D01*
X235366Y226904D01*
X235278Y226883D01*
X235188Y226865D01*
X235181Y226860D01*
X235173Y226858D01*
X235100Y226804D01*
X235024Y226753D01*
X235019Y226745D01*
X235013Y226740D01*
X234966Y226662D01*
X234917Y226585D01*
X234916Y226577D01*
X234911Y226569D01*
X234884Y226405D01*
X234884Y219072D01*
X234885Y219064D01*
X234884Y219056D01*
X234905Y218967D01*
X234923Y218877D01*
X234928Y218870D01*
X234930Y218862D01*
X234984Y218789D01*
X235036Y218713D01*
X235043Y218709D01*
X235048Y218702D01*
X235126Y218656D01*
X235203Y218606D01*
X235212Y218605D01*
X235219Y218601D01*
X235383Y218573D01*
X242716Y218573D01*
X242724Y218575D01*
X242733Y218573D01*
X242821Y218594D01*
X242911Y218612D01*
X242918Y218617D01*
X242926Y218619D01*
X242999Y218673D01*
X243075Y218725D01*
X243079Y218732D01*
X243086Y218737D01*
X243133Y218815D01*
X243182Y218893D01*
X243183Y218901D01*
X243188Y218908D01*
X243215Y219072D01*
X243215Y222240D01*
X249550Y222240D01*
X249550Y219571D01*
X246383Y219571D01*
X246374Y219570D01*
X246366Y219571D01*
X246278Y219550D01*
X246188Y219532D01*
X246181Y219527D01*
X246173Y219525D01*
X246099Y219471D01*
X246024Y219419D01*
X246019Y219412D01*
X246012Y219407D01*
X245966Y219329D01*
X245917Y219252D01*
X245915Y219243D01*
X245911Y219236D01*
X245883Y219072D01*
X245883Y215405D01*
X245885Y215397D01*
X245884Y215389D01*
X245905Y215300D01*
X245923Y215211D01*
X245928Y215204D01*
X245930Y215196D01*
X245984Y215122D01*
X246035Y215047D01*
X246043Y215042D01*
X246048Y215035D01*
X246126Y214989D01*
X246203Y214940D01*
X246211Y214938D01*
X246219Y214934D01*
X246383Y214906D01*
X253716Y214906D01*
X253724Y214908D01*
G37*
G36*
X275724Y207575D02*
X275724Y207575D01*
X275732Y207573D01*
X275820Y207594D01*
X275910Y207613D01*
X275917Y207617D01*
X275925Y207619D01*
X275999Y207673D01*
X276074Y207725D01*
X276079Y207732D01*
X276085Y207737D01*
X276132Y207816D01*
X276181Y207893D01*
X276183Y207901D01*
X276187Y207908D01*
X276215Y208072D01*
X276215Y219072D01*
X276213Y219080D01*
X276214Y219089D01*
X276193Y219177D01*
X276175Y219267D01*
X276170Y219274D01*
X276168Y219282D01*
X276114Y219355D01*
X276063Y219431D01*
X276055Y219436D01*
X276050Y219442D01*
X275972Y219489D01*
X275895Y219538D01*
X275887Y219539D01*
X275879Y219544D01*
X275715Y219571D01*
X264716Y219571D01*
X264707Y219570D01*
X264699Y219571D01*
X264611Y219550D01*
X264521Y219532D01*
X264514Y219527D01*
X264506Y219525D01*
X264432Y219471D01*
X264357Y219419D01*
X264352Y219412D01*
X264345Y219407D01*
X264299Y219329D01*
X264250Y219252D01*
X264248Y219243D01*
X264244Y219236D01*
X264216Y219072D01*
X264216Y208072D01*
X264218Y208064D01*
X264217Y208056D01*
X264238Y207967D01*
X264256Y207877D01*
X264261Y207870D01*
X264263Y207862D01*
X264317Y207789D01*
X264368Y207713D01*
X264375Y207709D01*
X264380Y207702D01*
X264459Y207656D01*
X264536Y207606D01*
X264544Y207605D01*
X264551Y207601D01*
X264716Y207573D01*
X275715Y207573D01*
X275724Y207575D01*
G37*
G36*
X275781Y127142D02*
X275781Y127142D01*
X275789Y127141D01*
X275878Y127162D01*
X275968Y127180D01*
X275975Y127185D01*
X275983Y127187D01*
X276056Y127241D01*
X276132Y127293D01*
X276136Y127300D01*
X276143Y127305D01*
X276189Y127383D01*
X276239Y127460D01*
X276240Y127469D01*
X276244Y127476D01*
X276272Y127640D01*
X276272Y138640D01*
X276270Y138648D01*
X276272Y138656D01*
X276251Y138745D01*
X276233Y138835D01*
X276228Y138842D01*
X276226Y138850D01*
X276172Y138923D01*
X276120Y138999D01*
X276113Y139003D01*
X276108Y139010D01*
X276030Y139056D01*
X275952Y139106D01*
X275944Y139107D01*
X275937Y139111D01*
X275773Y139139D01*
X264773Y139139D01*
X264765Y139137D01*
X264756Y139139D01*
X264668Y139118D01*
X264578Y139099D01*
X264571Y139095D01*
X264563Y139093D01*
X264490Y139039D01*
X264414Y138987D01*
X264410Y138980D01*
X264403Y138975D01*
X264356Y138897D01*
X264307Y138819D01*
X264306Y138811D01*
X264301Y138804D01*
X264274Y138640D01*
X264274Y127640D01*
X264275Y127632D01*
X264274Y127623D01*
X264295Y127535D01*
X264313Y127445D01*
X264318Y127438D01*
X264320Y127430D01*
X264374Y127357D01*
X264426Y127281D01*
X264433Y127277D01*
X264438Y127270D01*
X264516Y127223D01*
X264593Y127174D01*
X264602Y127173D01*
X264609Y127168D01*
X264773Y127141D01*
X275773Y127141D01*
X275781Y127142D01*
G37*
G36*
X195058Y207575D02*
X195058Y207575D01*
X195066Y207573D01*
X195155Y207594D01*
X195245Y207613D01*
X195252Y207617D01*
X195260Y207619D01*
X195333Y207673D01*
X195409Y207725D01*
X195413Y207732D01*
X195420Y207737D01*
X195466Y207815D01*
X195516Y207893D01*
X195517Y207901D01*
X195521Y207908D01*
X195549Y208072D01*
X195549Y219072D01*
X195547Y219080D01*
X195549Y219089D01*
X195528Y219177D01*
X195509Y219267D01*
X195505Y219274D01*
X195503Y219282D01*
X195449Y219355D01*
X195397Y219431D01*
X195390Y219435D01*
X195385Y219442D01*
X195307Y219489D01*
X195229Y219538D01*
X195221Y219539D01*
X195214Y219544D01*
X195050Y219571D01*
X184050Y219571D01*
X184042Y219570D01*
X184033Y219571D01*
X183945Y219550D01*
X183855Y219532D01*
X183848Y219527D01*
X183840Y219525D01*
X183767Y219471D01*
X183691Y219419D01*
X183687Y219412D01*
X183680Y219407D01*
X183633Y219329D01*
X183584Y219252D01*
X183583Y219243D01*
X183578Y219236D01*
X183551Y219072D01*
X183551Y208072D01*
X183552Y208064D01*
X183551Y208056D01*
X183572Y207967D01*
X183590Y207877D01*
X183595Y207870D01*
X183597Y207862D01*
X183651Y207789D01*
X183703Y207713D01*
X183710Y207709D01*
X183715Y207702D01*
X183793Y207656D01*
X183870Y207606D01*
X183879Y207605D01*
X183886Y207601D01*
X184050Y207573D01*
X195050Y207573D01*
X195058Y207575D01*
G37*
%LPC*%
G36*
X405235Y313888D02*
X405235Y313888D01*
X417857Y300539D01*
X418022Y299339D01*
X410958Y286093D01*
X405235Y313888D01*
G37*
%LPD*%
%LPC*%
G36*
X195549Y160905D02*
X195549Y160905D01*
X195549Y163574D01*
X198716Y163574D01*
X198725Y163575D01*
X198733Y163574D01*
X198821Y163595D01*
X198911Y163613D01*
X198918Y163618D01*
X198926Y163620D01*
X199000Y163674D01*
X199075Y163726D01*
X199080Y163733D01*
X199087Y163738D01*
X199133Y163816D01*
X199182Y163893D01*
X199184Y163902D01*
X199188Y163909D01*
X199216Y164073D01*
X199216Y167240D01*
X202383Y167240D01*
X202391Y167242D01*
X202400Y167241D01*
X202488Y167262D01*
X202578Y167280D01*
X202585Y167285D01*
X202593Y167287D01*
X202666Y167341D01*
X202742Y167392D01*
X202747Y167399D01*
X202753Y167404D01*
X202800Y167483D01*
X202849Y167560D01*
X202850Y167568D01*
X202855Y167575D01*
X202882Y167740D01*
X202882Y181907D01*
X205551Y181907D01*
X205551Y178739D01*
X205552Y178731D01*
X205551Y178723D01*
X205572Y178634D01*
X205590Y178544D01*
X205595Y178537D01*
X205597Y178529D01*
X205651Y178456D01*
X205703Y178380D01*
X205710Y178376D01*
X205715Y178369D01*
X205793Y178323D01*
X205870Y178273D01*
X205879Y178272D01*
X205886Y178268D01*
X206050Y178240D01*
X212884Y178240D01*
X212884Y175572D01*
X209716Y175572D01*
X209708Y175570D01*
X209700Y175572D01*
X209611Y175551D01*
X209521Y175532D01*
X209514Y175528D01*
X209506Y175526D01*
X209433Y175472D01*
X209358Y175420D01*
X209353Y175413D01*
X209346Y175408D01*
X209300Y175329D01*
X209250Y175252D01*
X209249Y175244D01*
X209245Y175237D01*
X209217Y175073D01*
X209217Y168239D01*
X206050Y168239D01*
X206042Y168237D01*
X206033Y168238D01*
X205945Y168217D01*
X205855Y168199D01*
X205848Y168194D01*
X205840Y168192D01*
X205767Y168139D01*
X205691Y168087D01*
X205687Y168080D01*
X205680Y168075D01*
X205633Y167996D01*
X205584Y167919D01*
X205583Y167911D01*
X205578Y167904D01*
X205551Y167740D01*
X205551Y164572D01*
X202383Y164572D01*
X202375Y164570D01*
X202367Y164572D01*
X202278Y164551D01*
X202188Y164533D01*
X202181Y164528D01*
X202173Y164526D01*
X202100Y164472D01*
X202024Y164420D01*
X202020Y164413D01*
X202013Y164408D01*
X201967Y164330D01*
X201917Y164252D01*
X201916Y164244D01*
X201912Y164237D01*
X201884Y164073D01*
X201884Y160905D01*
X195549Y160905D01*
G37*
%LPD*%
%LPC*%
G36*
X239549Y160905D02*
X239549Y160905D01*
X239549Y164073D01*
X239547Y164081D01*
X239548Y164089D01*
X239527Y164178D01*
X239509Y164268D01*
X239504Y164275D01*
X239502Y164283D01*
X239448Y164356D01*
X239397Y164432D01*
X239389Y164436D01*
X239385Y164443D01*
X239306Y164489D01*
X239229Y164539D01*
X239221Y164540D01*
X239213Y164544D01*
X239049Y164572D01*
X232215Y164572D01*
X232215Y167740D01*
X232214Y167748D01*
X232215Y167756D01*
X232194Y167845D01*
X232176Y167934D01*
X232171Y167941D01*
X232169Y167949D01*
X232115Y168023D01*
X232063Y168098D01*
X232056Y168103D01*
X232051Y168110D01*
X231973Y168156D01*
X231896Y168205D01*
X231887Y168207D01*
X231880Y168211D01*
X231716Y168239D01*
X228549Y168239D01*
X228549Y171406D01*
X228547Y171414D01*
X228549Y171423D01*
X228528Y171511D01*
X228509Y171601D01*
X228505Y171608D01*
X228503Y171616D01*
X228449Y171689D01*
X228397Y171765D01*
X228390Y171769D01*
X228385Y171776D01*
X228306Y171823D01*
X228229Y171872D01*
X228221Y171873D01*
X228214Y171878D01*
X228050Y171905D01*
X224882Y171905D01*
X224882Y178240D01*
X227550Y178240D01*
X227550Y175073D01*
X227552Y175064D01*
X227550Y175056D01*
X227572Y174968D01*
X227590Y174878D01*
X227595Y174871D01*
X227597Y174863D01*
X227650Y174789D01*
X227702Y174714D01*
X227709Y174709D01*
X227714Y174703D01*
X227793Y174656D01*
X227870Y174607D01*
X227878Y174605D01*
X227885Y174601D01*
X228049Y174573D01*
X231217Y174573D01*
X231217Y171406D01*
X231219Y171398D01*
X231217Y171390D01*
X231238Y171301D01*
X231256Y171211D01*
X231261Y171204D01*
X231263Y171196D01*
X231317Y171123D01*
X231369Y171047D01*
X231376Y171043D01*
X231381Y171036D01*
X231459Y170990D01*
X231537Y170940D01*
X231545Y170939D01*
X231552Y170935D01*
X231716Y170907D01*
X238550Y170907D01*
X238550Y167740D01*
X238552Y167731D01*
X238551Y167723D01*
X238572Y167635D01*
X238590Y167545D01*
X238595Y167538D01*
X238597Y167530D01*
X238651Y167456D01*
X238702Y167381D01*
X238709Y167376D01*
X238714Y167369D01*
X238793Y167323D01*
X238870Y167274D01*
X238878Y167272D01*
X238885Y167268D01*
X239050Y167240D01*
X245883Y167240D01*
X245883Y160905D01*
X239549Y160905D01*
G37*
%LPD*%
%LPC*%
G36*
X195549Y138906D02*
X195549Y138906D01*
X195549Y148907D01*
X205551Y148907D01*
X205551Y138906D01*
X195549Y138906D01*
G37*
%LPD*%
%LPC*%
G36*
X228549Y179239D02*
X228549Y179239D01*
X228549Y182406D01*
X228547Y182414D01*
X228549Y182422D01*
X228528Y182511D01*
X228509Y182601D01*
X228505Y182608D01*
X228503Y182616D01*
X228449Y182689D01*
X228397Y182765D01*
X228390Y182769D01*
X228385Y182776D01*
X228306Y182822D01*
X228229Y182872D01*
X228221Y182873D01*
X228214Y182877D01*
X228050Y182905D01*
X224882Y182905D01*
X224882Y185573D01*
X228050Y185573D01*
X228058Y185575D01*
X228066Y185574D01*
X228155Y185595D01*
X228245Y185613D01*
X228252Y185618D01*
X228260Y185620D01*
X228333Y185674D01*
X228409Y185725D01*
X228413Y185733D01*
X228420Y185738D01*
X228466Y185816D01*
X228516Y185893D01*
X228517Y185901D01*
X228521Y185909D01*
X228549Y186073D01*
X228549Y189739D01*
X228547Y189747D01*
X228549Y189756D01*
X228528Y189844D01*
X228509Y189934D01*
X228505Y189941D01*
X228503Y189949D01*
X228449Y190022D01*
X228397Y190098D01*
X228390Y190103D01*
X228385Y190109D01*
X228306Y190156D01*
X228229Y190205D01*
X228221Y190206D01*
X228214Y190211D01*
X228050Y190238D01*
X224882Y190238D01*
X224882Y193406D01*
X224881Y193414D01*
X224882Y193422D01*
X224861Y193511D01*
X224843Y193601D01*
X224838Y193608D01*
X224836Y193616D01*
X224782Y193689D01*
X224730Y193765D01*
X224723Y193769D01*
X224718Y193776D01*
X224640Y193822D01*
X224563Y193872D01*
X224554Y193873D01*
X224547Y193877D01*
X224383Y193905D01*
X221216Y193905D01*
X221216Y196573D01*
X228050Y196573D01*
X228058Y196575D01*
X228066Y196573D01*
X228155Y196595D01*
X228245Y196613D01*
X228252Y196618D01*
X228260Y196619D01*
X228333Y196673D01*
X228409Y196725D01*
X228413Y196732D01*
X228420Y196737D01*
X228466Y196816D01*
X228516Y196893D01*
X228517Y196901D01*
X228521Y196908D01*
X228549Y197072D01*
X228549Y200240D01*
X231217Y200240D01*
X231217Y179239D01*
X228549Y179239D01*
G37*
%LPD*%
%LPC*%
G36*
X265443Y303769D02*
X265443Y303769D01*
X265397Y303800D01*
X262494Y317883D01*
X269979Y308533D01*
X269986Y308527D01*
X269991Y308518D01*
X270062Y308463D01*
X270131Y308406D01*
X270141Y308403D01*
X270148Y308397D01*
X270308Y308349D01*
X270808Y308288D01*
X270834Y308290D01*
X270868Y308285D01*
X290926Y308281D01*
X291326Y308212D01*
X291636Y308048D01*
X291861Y307782D01*
X292006Y307421D01*
X292065Y307040D01*
X292014Y306767D01*
X291854Y306613D01*
X291530Y306536D01*
X279952Y306528D01*
X279946Y306527D01*
X279939Y306528D01*
X278882Y306502D01*
X278874Y306500D01*
X278864Y306501D01*
X278336Y306469D01*
X278327Y306467D01*
X278316Y306467D01*
X277264Y306361D01*
X277250Y306357D01*
X277233Y306357D01*
X276189Y306185D01*
X276178Y306181D01*
X276163Y306180D01*
X275646Y306066D01*
X275638Y306063D01*
X275626Y306062D01*
X275115Y305927D01*
X275106Y305922D01*
X275094Y305921D01*
X274589Y305763D01*
X274579Y305758D01*
X274566Y305756D01*
X274069Y305574D01*
X274059Y305568D01*
X274044Y305564D01*
X273558Y305356D01*
X273547Y305349D01*
X273532Y305344D01*
X273058Y305109D01*
X273047Y305100D01*
X273030Y305094D01*
X272573Y304829D01*
X272561Y304819D01*
X272544Y304811D01*
X272105Y304516D01*
X272094Y304504D01*
X272076Y304495D01*
X271660Y304169D01*
X271649Y304156D01*
X271631Y304144D01*
X271321Y303861D01*
X271033Y303769D01*
X265443Y303769D01*
G37*
%LPD*%
%LPC*%
G36*
X254215Y182905D02*
X254215Y182905D01*
X254215Y185573D01*
X261049Y185573D01*
X261058Y185575D01*
X261066Y185574D01*
X261154Y185595D01*
X261244Y185613D01*
X261251Y185618D01*
X261259Y185620D01*
X261332Y185674D01*
X261408Y185725D01*
X261413Y185733D01*
X261419Y185738D01*
X261466Y185816D01*
X261515Y185893D01*
X261517Y185901D01*
X261521Y185909D01*
X261549Y186073D01*
X261549Y189739D01*
X261547Y189747D01*
X261548Y189756D01*
X261527Y189844D01*
X261509Y189934D01*
X261504Y189941D01*
X261502Y189949D01*
X261448Y190022D01*
X261396Y190098D01*
X261389Y190103D01*
X261384Y190109D01*
X261306Y190156D01*
X261229Y190205D01*
X261221Y190206D01*
X261213Y190211D01*
X261049Y190238D01*
X257882Y190238D01*
X257882Y192907D01*
X267883Y192907D01*
X267883Y182905D01*
X254215Y182905D01*
G37*
%LPD*%
%LPC*%
G36*
X243215Y190238D02*
X243215Y190238D01*
X243215Y197072D01*
X243214Y197081D01*
X243215Y197089D01*
X243194Y197177D01*
X243176Y197267D01*
X243171Y197274D01*
X243169Y197282D01*
X243115Y197356D01*
X243063Y197431D01*
X243056Y197436D01*
X243051Y197443D01*
X242973Y197489D01*
X242896Y197538D01*
X242887Y197540D01*
X242880Y197544D01*
X242716Y197572D01*
X239050Y197572D01*
X239041Y197570D01*
X239033Y197571D01*
X238945Y197550D01*
X238855Y197532D01*
X238848Y197527D01*
X238840Y197525D01*
X238766Y197471D01*
X238691Y197420D01*
X238686Y197412D01*
X238679Y197407D01*
X238633Y197329D01*
X238584Y197252D01*
X238582Y197244D01*
X238578Y197236D01*
X238550Y197072D01*
X238550Y193905D01*
X235882Y193905D01*
X235882Y200240D01*
X239049Y200240D01*
X239058Y200242D01*
X239066Y200240D01*
X239154Y200261D01*
X239244Y200279D01*
X239251Y200284D01*
X239259Y200286D01*
X239333Y200340D01*
X239408Y200392D01*
X239413Y200399D01*
X239420Y200404D01*
X239466Y200482D01*
X239515Y200560D01*
X239517Y200568D01*
X239521Y200575D01*
X239549Y200739D01*
X239549Y203906D01*
X242217Y203906D01*
X242217Y200739D01*
X242218Y200731D01*
X242217Y200723D01*
X242238Y200634D01*
X242256Y200544D01*
X242261Y200537D01*
X242263Y200529D01*
X242317Y200456D01*
X242369Y200380D01*
X242376Y200376D01*
X242381Y200369D01*
X242459Y200323D01*
X242536Y200273D01*
X242545Y200272D01*
X242552Y200268D01*
X242716Y200240D01*
X245883Y200240D01*
X245883Y193406D01*
X245885Y193398D01*
X245884Y193389D01*
X245905Y193301D01*
X245923Y193211D01*
X245928Y193204D01*
X245930Y193196D01*
X245984Y193123D01*
X246035Y193047D01*
X246043Y193042D01*
X246048Y193036D01*
X246126Y192989D01*
X246203Y192940D01*
X246211Y192939D01*
X246219Y192934D01*
X246383Y192907D01*
X253217Y192907D01*
X253217Y190238D01*
X243215Y190238D01*
G37*
%LPD*%
G36*
X261058Y148909D02*
X261058Y148909D01*
X261066Y148907D01*
X261154Y148928D01*
X261244Y148947D01*
X261251Y148952D01*
X261259Y148953D01*
X261332Y149007D01*
X261408Y149059D01*
X261413Y149066D01*
X261419Y149071D01*
X261466Y149150D01*
X261515Y149227D01*
X261517Y149235D01*
X261521Y149242D01*
X261549Y149406D01*
X261549Y152574D01*
X264216Y152574D01*
X264216Y149406D01*
X264218Y149398D01*
X264217Y149390D01*
X264238Y149301D01*
X264256Y149212D01*
X264261Y149205D01*
X264263Y149196D01*
X264317Y149123D01*
X264369Y149048D01*
X264376Y149043D01*
X264381Y149036D01*
X264459Y148990D01*
X264536Y148941D01*
X264544Y148939D01*
X264552Y148935D01*
X264716Y148907D01*
X268382Y148907D01*
X268391Y148909D01*
X268399Y148907D01*
X268487Y148928D01*
X268577Y148947D01*
X268584Y148952D01*
X268592Y148953D01*
X268666Y149007D01*
X268741Y149059D01*
X268746Y149066D01*
X268752Y149071D01*
X268799Y149150D01*
X268848Y149227D01*
X268850Y149235D01*
X268854Y149242D01*
X268882Y149406D01*
X268882Y153073D01*
X268880Y153081D01*
X268881Y153090D01*
X268860Y153178D01*
X268842Y153268D01*
X268837Y153275D01*
X268835Y153283D01*
X268781Y153356D01*
X268729Y153432D01*
X268722Y153436D01*
X268717Y153443D01*
X268639Y153490D01*
X268562Y153539D01*
X268554Y153540D01*
X268546Y153545D01*
X268382Y153572D01*
X265215Y153572D01*
X265215Y156740D01*
X265213Y156748D01*
X265215Y156756D01*
X265194Y156845D01*
X265175Y156935D01*
X265171Y156941D01*
X265169Y156950D01*
X265115Y157023D01*
X265063Y157098D01*
X265056Y157103D01*
X265051Y157110D01*
X264972Y157156D01*
X264895Y157205D01*
X264887Y157207D01*
X264880Y157211D01*
X264716Y157239D01*
X261549Y157239D01*
X261549Y160406D01*
X261547Y160414D01*
X261548Y160423D01*
X261527Y160511D01*
X261509Y160601D01*
X261504Y160608D01*
X261502Y160616D01*
X261448Y160689D01*
X261396Y160765D01*
X261389Y160770D01*
X261384Y160776D01*
X261306Y160823D01*
X261229Y160872D01*
X261221Y160873D01*
X261213Y160878D01*
X261049Y160905D01*
X257383Y160905D01*
X257374Y160904D01*
X257366Y160905D01*
X257278Y160884D01*
X257188Y160866D01*
X257181Y160861D01*
X257173Y160859D01*
X257099Y160805D01*
X257024Y160753D01*
X257019Y160746D01*
X257013Y160741D01*
X256966Y160663D01*
X256917Y160586D01*
X256915Y160577D01*
X256911Y160570D01*
X256883Y160406D01*
X256883Y156740D01*
X256885Y156731D01*
X256884Y156723D01*
X256905Y156635D01*
X256923Y156545D01*
X256928Y156538D01*
X256930Y156530D01*
X256984Y156456D01*
X257036Y156381D01*
X257043Y156376D01*
X257048Y156370D01*
X257126Y156323D01*
X257203Y156274D01*
X257211Y156272D01*
X257219Y156268D01*
X257383Y156240D01*
X260550Y156240D01*
X260550Y153572D01*
X257383Y153572D01*
X257374Y153571D01*
X257366Y153572D01*
X257278Y153551D01*
X257188Y153533D01*
X257181Y153528D01*
X257173Y153526D01*
X257099Y153472D01*
X257024Y153420D01*
X257019Y153413D01*
X257013Y153408D01*
X256966Y153330D01*
X256917Y153253D01*
X256915Y153244D01*
X256911Y153237D01*
X256883Y153073D01*
X256883Y149406D01*
X256885Y149398D01*
X256884Y149390D01*
X256905Y149301D01*
X256923Y149212D01*
X256928Y149205D01*
X256930Y149196D01*
X256984Y149123D01*
X257036Y149048D01*
X257043Y149043D01*
X257048Y149036D01*
X257126Y148990D01*
X257203Y148941D01*
X257211Y148939D01*
X257219Y148935D01*
X257383Y148907D01*
X261049Y148907D01*
X261058Y148909D01*
G37*
%LPC*%
G36*
X169622Y306529D02*
X169622Y306529D01*
X169169Y306552D01*
X168844Y306651D01*
X168808Y306655D01*
X168781Y306683D01*
X168536Y306869D01*
X168344Y307179D01*
X168234Y307563D01*
X168220Y307911D01*
X168316Y308122D01*
X168541Y308243D01*
X168942Y308285D01*
X212360Y308285D01*
X212723Y306529D01*
X169622Y306529D01*
G37*
%LPD*%
%LPC*%
G36*
X213882Y164572D02*
X213882Y164572D01*
X213882Y174573D01*
X216550Y174573D01*
X216550Y171406D01*
X216552Y171398D01*
X216551Y171390D01*
X216572Y171301D01*
X216590Y171211D01*
X216595Y171204D01*
X216597Y171196D01*
X216651Y171123D01*
X216703Y171047D01*
X216710Y171043D01*
X216715Y171036D01*
X216793Y170990D01*
X216870Y170940D01*
X216878Y170939D01*
X216886Y170935D01*
X217050Y170907D01*
X223884Y170907D01*
X223884Y168239D01*
X220716Y168239D01*
X220708Y168237D01*
X220700Y168238D01*
X220611Y168217D01*
X220522Y168199D01*
X220515Y168194D01*
X220506Y168192D01*
X220433Y168139D01*
X220358Y168087D01*
X220353Y168080D01*
X220346Y168075D01*
X220300Y167996D01*
X220251Y167919D01*
X220249Y167911D01*
X220245Y167904D01*
X220217Y167740D01*
X220217Y164572D01*
X213882Y164572D01*
G37*
%LPD*%
%LPC*%
G36*
X213882Y208572D02*
X213882Y208572D01*
X213882Y215406D01*
X213881Y215414D01*
X213882Y215422D01*
X213861Y215511D01*
X213843Y215600D01*
X213838Y215607D01*
X213836Y215616D01*
X213782Y215689D01*
X213730Y215764D01*
X213723Y215769D01*
X213718Y215776D01*
X213640Y215822D01*
X213563Y215871D01*
X213554Y215873D01*
X213547Y215877D01*
X213383Y215905D01*
X210216Y215905D01*
X210216Y218573D01*
X217050Y218573D01*
X217058Y218575D01*
X217066Y218573D01*
X217155Y218594D01*
X217244Y218612D01*
X217251Y218617D01*
X217260Y218619D01*
X217333Y218673D01*
X217408Y218725D01*
X217413Y218732D01*
X217420Y218737D01*
X217466Y218815D01*
X217515Y218893D01*
X217517Y218901D01*
X217521Y218908D01*
X217549Y219072D01*
X217549Y222240D01*
X220217Y222240D01*
X220217Y215905D01*
X217050Y215905D01*
X217041Y215903D01*
X217033Y215905D01*
X216945Y215883D01*
X216855Y215865D01*
X216848Y215860D01*
X216840Y215858D01*
X216766Y215805D01*
X216691Y215753D01*
X216686Y215746D01*
X216680Y215741D01*
X216633Y215662D01*
X216584Y215585D01*
X216582Y215577D01*
X216578Y215570D01*
X216550Y215406D01*
X216550Y208572D01*
X213882Y208572D01*
G37*
%LPD*%
G36*
X253724Y207575D02*
X253724Y207575D01*
X253732Y207573D01*
X253821Y207594D01*
X253911Y207613D01*
X253918Y207617D01*
X253926Y207619D01*
X253999Y207673D01*
X254075Y207725D01*
X254079Y207732D01*
X254086Y207737D01*
X254132Y207816D01*
X254182Y207893D01*
X254183Y207901D01*
X254187Y207908D01*
X254215Y208072D01*
X254215Y211739D01*
X254213Y211747D01*
X254215Y211755D01*
X254194Y211844D01*
X254176Y211934D01*
X254171Y211941D01*
X254169Y211949D01*
X254115Y212022D01*
X254063Y212098D01*
X254056Y212102D01*
X254051Y212109D01*
X253973Y212155D01*
X253895Y212205D01*
X253887Y212206D01*
X253880Y212210D01*
X253716Y212238D01*
X246383Y212238D01*
X246374Y212237D01*
X246366Y212238D01*
X246278Y212217D01*
X246188Y212199D01*
X246181Y212194D01*
X246173Y212192D01*
X246099Y212138D01*
X246024Y212086D01*
X246019Y212079D01*
X246012Y212074D01*
X245966Y211996D01*
X245917Y211919D01*
X245915Y211910D01*
X245911Y211903D01*
X245883Y211739D01*
X245883Y208072D01*
X245885Y208064D01*
X245884Y208056D01*
X245905Y207967D01*
X245923Y207877D01*
X245928Y207870D01*
X245930Y207862D01*
X245984Y207789D01*
X246035Y207714D01*
X246043Y207709D01*
X246048Y207702D01*
X246126Y207656D01*
X246203Y207606D01*
X246211Y207605D01*
X246219Y207601D01*
X246383Y207573D01*
X253716Y207573D01*
X253724Y207575D01*
G37*
%LPC*%
G36*
X235882Y175572D02*
X235882Y175572D01*
X235882Y185573D01*
X238550Y185573D01*
X238550Y182406D01*
X238552Y182398D01*
X238551Y182389D01*
X238572Y182301D01*
X238590Y182211D01*
X238595Y182204D01*
X238597Y182196D01*
X238651Y182123D01*
X238702Y182047D01*
X238709Y182043D01*
X238714Y182036D01*
X238793Y181989D01*
X238870Y181940D01*
X238878Y181939D01*
X238885Y181934D01*
X239050Y181907D01*
X242217Y181907D01*
X242217Y179239D01*
X239050Y179239D01*
X239041Y179237D01*
X239033Y179238D01*
X238945Y179217D01*
X238855Y179199D01*
X238848Y179194D01*
X238840Y179192D01*
X238766Y179138D01*
X238691Y179086D01*
X238686Y179079D01*
X238679Y179074D01*
X238633Y178996D01*
X238584Y178919D01*
X238582Y178911D01*
X238578Y178903D01*
X238550Y178739D01*
X238550Y175572D01*
X235882Y175572D01*
G37*
%LPD*%
%LPC*%
G36*
X217549Y153572D02*
X217549Y153572D01*
X217549Y156240D01*
X220716Y156240D01*
X220725Y156242D01*
X220733Y156241D01*
X220821Y156262D01*
X220911Y156280D01*
X220918Y156285D01*
X220926Y156287D01*
X221000Y156341D01*
X221075Y156393D01*
X221080Y156400D01*
X221086Y156405D01*
X221133Y156483D01*
X221182Y156560D01*
X221184Y156568D01*
X221188Y156576D01*
X221216Y156740D01*
X221216Y159907D01*
X223884Y159907D01*
X223884Y156740D01*
X223886Y156731D01*
X223884Y156723D01*
X223905Y156635D01*
X223923Y156545D01*
X223928Y156538D01*
X223930Y156530D01*
X223984Y156456D01*
X224036Y156381D01*
X224043Y156376D01*
X224048Y156370D01*
X224126Y156323D01*
X224204Y156274D01*
X224212Y156272D01*
X224219Y156268D01*
X224383Y156240D01*
X227550Y156240D01*
X227550Y153572D01*
X217549Y153572D01*
G37*
%LPD*%
%LPC*%
G36*
X232215Y153572D02*
X232215Y153572D01*
X232215Y156740D01*
X232214Y156748D01*
X232215Y156756D01*
X232194Y156845D01*
X232176Y156935D01*
X232171Y156941D01*
X232169Y156950D01*
X232115Y157023D01*
X232063Y157098D01*
X232056Y157103D01*
X232051Y157110D01*
X231973Y157156D01*
X231896Y157205D01*
X231887Y157207D01*
X231880Y157211D01*
X231716Y157239D01*
X228549Y157239D01*
X228549Y159907D01*
X238550Y159907D01*
X238550Y157239D01*
X235383Y157239D01*
X235375Y157237D01*
X235366Y157239D01*
X235278Y157218D01*
X235188Y157199D01*
X235181Y157195D01*
X235173Y157193D01*
X235100Y157139D01*
X235024Y157087D01*
X235019Y157080D01*
X235013Y157075D01*
X234966Y156996D01*
X234917Y156919D01*
X234916Y156911D01*
X234911Y156904D01*
X234884Y156740D01*
X234884Y153572D01*
X232215Y153572D01*
G37*
%LPD*%
%LPC*%
G36*
X374233Y308285D02*
X374233Y308285D01*
X394008Y308285D01*
X394035Y308179D01*
X394376Y306529D01*
X375091Y306529D01*
X375029Y306516D01*
X374966Y306513D01*
X374932Y306497D01*
X374896Y306489D01*
X374844Y306454D01*
X374787Y306426D01*
X374758Y306395D01*
X374732Y306377D01*
X374711Y306345D01*
X374674Y306304D01*
X374648Y306266D01*
X374233Y308285D01*
G37*
%LPD*%
%LPC*%
G36*
X213882Y179239D02*
X213882Y179239D01*
X213882Y185573D01*
X216550Y185573D01*
X216550Y182406D01*
X216552Y182398D01*
X216551Y182389D01*
X216572Y182301D01*
X216590Y182211D01*
X216595Y182204D01*
X216597Y182196D01*
X216651Y182123D01*
X216703Y182047D01*
X216710Y182043D01*
X216715Y182036D01*
X216793Y181989D01*
X216870Y181940D01*
X216878Y181939D01*
X216886Y181934D01*
X217050Y181907D01*
X220217Y181907D01*
X220217Y179239D01*
X213882Y179239D01*
G37*
%LPD*%
%LPC*%
G36*
X268882Y179239D02*
X268882Y179239D01*
X268882Y181907D01*
X272049Y181907D01*
X272057Y181908D01*
X272066Y181907D01*
X272154Y181928D01*
X272244Y181946D01*
X272251Y181951D01*
X272259Y181953D01*
X272332Y182007D01*
X272408Y182059D01*
X272412Y182066D01*
X272419Y182071D01*
X272466Y182149D01*
X272515Y182226D01*
X272516Y182235D01*
X272521Y182242D01*
X272548Y182406D01*
X272548Y185573D01*
X275216Y185573D01*
X275216Y179239D01*
X268882Y179239D01*
G37*
%LPD*%
%LPC*%
G36*
X235882Y135239D02*
X235882Y135239D01*
X235882Y137907D01*
X239049Y137907D01*
X239058Y137909D01*
X239066Y137908D01*
X239154Y137929D01*
X239244Y137947D01*
X239251Y137952D01*
X239259Y137954D01*
X239333Y138007D01*
X239408Y138059D01*
X239413Y138066D01*
X239420Y138071D01*
X239466Y138150D01*
X239515Y138227D01*
X239517Y138235D01*
X239521Y138242D01*
X239549Y138406D01*
X239549Y141574D01*
X242217Y141574D01*
X242217Y135239D01*
X235882Y135239D01*
G37*
%LPD*%
%LPC*%
G36*
X239549Y146239D02*
X239549Y146239D01*
X239549Y152574D01*
X245883Y152574D01*
X245883Y149906D01*
X242716Y149906D01*
X242708Y149904D01*
X242699Y149905D01*
X242611Y149884D01*
X242521Y149866D01*
X242514Y149861D01*
X242506Y149859D01*
X242433Y149805D01*
X242357Y149754D01*
X242353Y149746D01*
X242346Y149741D01*
X242299Y149663D01*
X242250Y149586D01*
X242249Y149578D01*
X242244Y149570D01*
X242217Y149406D01*
X242217Y146239D01*
X239549Y146239D01*
G37*
%LPD*%
%LPC*%
G36*
X217549Y197572D02*
X217549Y197572D01*
X217549Y207573D01*
X220217Y207573D01*
X220217Y197572D01*
X217549Y197572D01*
G37*
%LPD*%
%LPC*%
G36*
X232215Y138906D02*
X232215Y138906D01*
X232215Y148907D01*
X234884Y148907D01*
X234884Y138906D01*
X232215Y138906D01*
G37*
%LPD*%
%LPC*%
G36*
X80447Y293423D02*
X80447Y293423D01*
X80599Y294390D01*
X82096Y294499D01*
X93264Y294499D01*
X93432Y293679D01*
X92773Y292749D01*
X81577Y292741D01*
X80447Y293423D01*
G37*
%LPD*%
G36*
X272057Y167242D02*
X272057Y167242D01*
X272066Y167241D01*
X272154Y167262D01*
X272244Y167280D01*
X272251Y167285D01*
X272259Y167287D01*
X272332Y167341D01*
X272408Y167392D01*
X272412Y167399D01*
X272419Y167404D01*
X272466Y167483D01*
X272515Y167560D01*
X272516Y167568D01*
X272521Y167575D01*
X272548Y167740D01*
X272548Y171406D01*
X272547Y171414D01*
X272548Y171423D01*
X272527Y171511D01*
X272509Y171601D01*
X272504Y171608D01*
X272502Y171616D01*
X272448Y171689D01*
X272396Y171765D01*
X272389Y171769D01*
X272384Y171776D01*
X272306Y171823D01*
X272229Y171872D01*
X272220Y171873D01*
X272213Y171878D01*
X272049Y171905D01*
X268382Y171905D01*
X268374Y171904D01*
X268366Y171905D01*
X268277Y171884D01*
X268188Y171866D01*
X268181Y171861D01*
X268172Y171859D01*
X268099Y171805D01*
X268024Y171753D01*
X268019Y171746D01*
X268012Y171741D01*
X267966Y171663D01*
X267917Y171586D01*
X267915Y171577D01*
X267911Y171570D01*
X267883Y171406D01*
X267883Y167740D01*
X267885Y167731D01*
X267883Y167723D01*
X267904Y167635D01*
X267923Y167545D01*
X267928Y167538D01*
X267929Y167530D01*
X267983Y167456D01*
X268035Y167381D01*
X268042Y167376D01*
X268047Y167369D01*
X268126Y167323D01*
X268203Y167274D01*
X268211Y167272D01*
X268218Y167268D01*
X268382Y167240D01*
X272049Y167240D01*
X272057Y167242D01*
G37*
G36*
X272057Y159909D02*
X272057Y159909D01*
X272066Y159907D01*
X272154Y159928D01*
X272244Y159947D01*
X272251Y159951D01*
X272259Y159953D01*
X272332Y160007D01*
X272408Y160059D01*
X272412Y160066D01*
X272419Y160071D01*
X272466Y160149D01*
X272515Y160227D01*
X272516Y160235D01*
X272521Y160242D01*
X272548Y160406D01*
X272548Y164073D01*
X272547Y164081D01*
X272548Y164089D01*
X272527Y164178D01*
X272509Y164268D01*
X272504Y164275D01*
X272502Y164283D01*
X272448Y164356D01*
X272396Y164432D01*
X272389Y164436D01*
X272384Y164443D01*
X272306Y164489D01*
X272229Y164539D01*
X272220Y164540D01*
X272213Y164544D01*
X272049Y164572D01*
X268382Y164572D01*
X268374Y164570D01*
X268366Y164572D01*
X268277Y164551D01*
X268188Y164533D01*
X268181Y164528D01*
X268172Y164526D01*
X268099Y164472D01*
X268024Y164420D01*
X268019Y164413D01*
X268012Y164408D01*
X267966Y164330D01*
X267917Y164252D01*
X267915Y164244D01*
X267911Y164237D01*
X267883Y164073D01*
X267883Y160406D01*
X267885Y160398D01*
X267883Y160390D01*
X267904Y160301D01*
X267923Y160211D01*
X267928Y160204D01*
X267929Y160196D01*
X267983Y160123D01*
X268035Y160047D01*
X268042Y160043D01*
X268047Y160036D01*
X268126Y159990D01*
X268203Y159940D01*
X268211Y159939D01*
X268218Y159935D01*
X268382Y159907D01*
X272049Y159907D01*
X272057Y159909D01*
G37*
G36*
X180392Y137909D02*
X180392Y137909D01*
X180400Y137908D01*
X180488Y137929D01*
X180578Y137947D01*
X180585Y137952D01*
X180593Y137954D01*
X180667Y138007D01*
X180742Y138059D01*
X180747Y138066D01*
X180753Y138071D01*
X180800Y138150D01*
X180849Y138227D01*
X180851Y138235D01*
X180855Y138242D01*
X180883Y138406D01*
X180883Y142073D01*
X180881Y142081D01*
X180882Y142090D01*
X180861Y142178D01*
X180843Y142268D01*
X180838Y142275D01*
X180836Y142283D01*
X180782Y142356D01*
X180730Y142432D01*
X180723Y142436D01*
X180718Y142443D01*
X180640Y142490D01*
X180563Y142539D01*
X180555Y142540D01*
X180547Y142545D01*
X180383Y142572D01*
X176717Y142572D01*
X176708Y142571D01*
X176700Y142572D01*
X176612Y142551D01*
X176522Y142533D01*
X176515Y142528D01*
X176507Y142526D01*
X176434Y142472D01*
X176358Y142420D01*
X176353Y142413D01*
X176347Y142408D01*
X176300Y142330D01*
X176251Y142253D01*
X176249Y142244D01*
X176245Y142237D01*
X176217Y142073D01*
X176217Y138406D01*
X176219Y138398D01*
X176218Y138390D01*
X176239Y138301D01*
X176257Y138212D01*
X176262Y138205D01*
X176264Y138197D01*
X176318Y138123D01*
X176370Y138048D01*
X176377Y138043D01*
X176382Y138036D01*
X176460Y137990D01*
X176537Y137941D01*
X176545Y137939D01*
X176553Y137935D01*
X176717Y137907D01*
X180383Y137907D01*
X180392Y137909D01*
G37*
G36*
X206058Y192908D02*
X206058Y192908D01*
X206066Y192907D01*
X206155Y192928D01*
X206245Y192946D01*
X206252Y192951D01*
X206260Y192953D01*
X206333Y193007D01*
X206409Y193059D01*
X206413Y193066D01*
X206420Y193071D01*
X206466Y193149D01*
X206516Y193226D01*
X206517Y193235D01*
X206521Y193242D01*
X206549Y193406D01*
X206549Y197072D01*
X206547Y197081D01*
X206549Y197089D01*
X206528Y197177D01*
X206510Y197267D01*
X206505Y197274D01*
X206503Y197282D01*
X206449Y197356D01*
X206397Y197431D01*
X206390Y197436D01*
X206385Y197443D01*
X206307Y197489D01*
X206229Y197538D01*
X206221Y197540D01*
X206214Y197544D01*
X206050Y197572D01*
X202383Y197572D01*
X202375Y197570D01*
X202367Y197571D01*
X202278Y197550D01*
X202188Y197532D01*
X202181Y197527D01*
X202173Y197525D01*
X202100Y197471D01*
X202024Y197420D01*
X202020Y197412D01*
X202013Y197407D01*
X201967Y197329D01*
X201917Y197252D01*
X201916Y197244D01*
X201912Y197236D01*
X201884Y197072D01*
X201884Y193406D01*
X201886Y193398D01*
X201884Y193389D01*
X201905Y193301D01*
X201924Y193211D01*
X201928Y193204D01*
X201930Y193196D01*
X201984Y193123D01*
X202036Y193047D01*
X202043Y193042D01*
X202048Y193036D01*
X202127Y192989D01*
X202204Y192940D01*
X202212Y192939D01*
X202219Y192934D01*
X202383Y192907D01*
X206050Y192907D01*
X206058Y192908D01*
G37*
G36*
X202391Y141576D02*
X202391Y141576D01*
X202400Y141574D01*
X202488Y141595D01*
X202578Y141614D01*
X202585Y141618D01*
X202593Y141620D01*
X202666Y141674D01*
X202742Y141726D01*
X202747Y141733D01*
X202753Y141738D01*
X202800Y141816D01*
X202849Y141894D01*
X202850Y141902D01*
X202855Y141909D01*
X202882Y142073D01*
X202882Y145740D01*
X202881Y145748D01*
X202882Y145756D01*
X202861Y145845D01*
X202843Y145935D01*
X202838Y145942D01*
X202836Y145950D01*
X202782Y146023D01*
X202730Y146099D01*
X202723Y146103D01*
X202718Y146110D01*
X202640Y146156D01*
X202563Y146206D01*
X202554Y146207D01*
X202547Y146211D01*
X202383Y146239D01*
X198717Y146239D01*
X198708Y146237D01*
X198700Y146239D01*
X198612Y146218D01*
X198522Y146199D01*
X198515Y146195D01*
X198507Y146193D01*
X198433Y146139D01*
X198358Y146087D01*
X198353Y146080D01*
X198346Y146075D01*
X198300Y145997D01*
X198251Y145919D01*
X198249Y145911D01*
X198245Y145904D01*
X198217Y145740D01*
X198217Y142073D01*
X198219Y142065D01*
X198218Y142057D01*
X198239Y141968D01*
X198257Y141878D01*
X198262Y141871D01*
X198264Y141863D01*
X198318Y141790D01*
X198369Y141714D01*
X198377Y141710D01*
X198382Y141703D01*
X198460Y141657D01*
X198537Y141607D01*
X198545Y141606D01*
X198553Y141602D01*
X198717Y141574D01*
X202383Y141574D01*
X202391Y141576D01*
G37*
%LPC*%
G36*
X235882Y124239D02*
X235882Y124239D01*
X235882Y130574D01*
X238550Y130574D01*
X238550Y124239D01*
X235882Y124239D01*
G37*
%LPD*%
%LPC*%
G36*
X213882Y138906D02*
X213882Y138906D01*
X213882Y145241D01*
X216550Y145241D01*
X216550Y138906D01*
X213882Y138906D01*
G37*
%LPD*%
%LPC*%
G36*
X217549Y186572D02*
X217549Y186572D01*
X217549Y192907D01*
X220217Y192907D01*
X220217Y186572D01*
X217549Y186572D01*
G37*
%LPD*%
%LPC*%
G36*
X191883Y153572D02*
X191883Y153572D01*
X191883Y156240D01*
X198217Y156240D01*
X198217Y153572D01*
X191883Y153572D01*
G37*
%LPD*%
%LPC*%
G36*
X224882Y160905D02*
X224882Y160905D01*
X224882Y167240D01*
X227550Y167240D01*
X227550Y160905D01*
X224882Y160905D01*
G37*
%LPD*%
%LPC*%
G36*
X188216Y168239D02*
X188216Y168239D01*
X188216Y174573D01*
X190884Y174573D01*
X190884Y168239D01*
X188216Y168239D01*
G37*
%LPD*%
%LPC*%
G36*
X246882Y142572D02*
X246882Y142572D01*
X246882Y145241D01*
X249550Y145241D01*
X249550Y142572D01*
X246882Y142572D01*
G37*
%LPD*%
%LPC*%
G36*
X213882Y149906D02*
X213882Y149906D01*
X213882Y152574D01*
X216550Y152574D01*
X216550Y149906D01*
X213882Y149906D01*
G37*
%LPD*%
%LPC*%
G36*
X213882Y157239D02*
X213882Y157239D01*
X213882Y159907D01*
X216550Y159907D01*
X216550Y157239D01*
X213882Y157239D01*
G37*
%LPD*%
%LPC*%
G36*
X224882Y201238D02*
X224882Y201238D01*
X224882Y203906D01*
X227550Y203906D01*
X227550Y201238D01*
X224882Y201238D01*
G37*
%LPD*%
%LPC*%
G36*
X206549Y160905D02*
X206549Y160905D01*
X206549Y163574D01*
X209217Y163574D01*
X209217Y160905D01*
X206549Y160905D01*
G37*
%LPD*%
%LPC*%
G36*
X188216Y160905D02*
X188216Y160905D01*
X188216Y163574D01*
X190884Y163574D01*
X190884Y160905D01*
X188216Y160905D01*
G37*
%LPD*%
%LPC*%
G36*
X191883Y164572D02*
X191883Y164572D01*
X191883Y167240D01*
X194551Y167240D01*
X194551Y164572D01*
X191883Y164572D01*
G37*
%LPD*%
D10*
X352206Y71428D02*
X349243Y59575D01*
X346280Y67477D01*
X343316Y59575D01*
X340353Y71428D01*
X334339Y71428D02*
X331376Y59575D01*
X328413Y67477D01*
X325449Y59575D01*
X322486Y71428D01*
X316472Y71428D02*
X313509Y59575D01*
X310545Y67477D01*
X307582Y59575D01*
X304619Y71428D01*
X298756Y60562D02*
X298756Y59575D01*
X298756Y60562D02*
X297768Y60562D01*
X297768Y59575D01*
X298756Y59575D01*
X287653Y59575D02*
X287653Y77355D01*
X292592Y77355D02*
X282714Y77355D01*
X276529Y77355D02*
X276529Y59575D01*
X276529Y71428D02*
X271590Y71428D01*
X271482Y71426D01*
X271374Y71420D01*
X271266Y71410D01*
X271159Y71396D01*
X271052Y71379D01*
X270946Y71357D01*
X270841Y71332D01*
X270736Y71302D01*
X270633Y71269D01*
X270532Y71232D01*
X270431Y71192D01*
X270332Y71148D01*
X270235Y71100D01*
X270140Y71049D01*
X270046Y70994D01*
X269955Y70936D01*
X269866Y70875D01*
X269779Y70810D01*
X269695Y70743D01*
X269613Y70672D01*
X269533Y70598D01*
X269457Y70522D01*
X269383Y70442D01*
X269313Y70360D01*
X269245Y70276D01*
X269180Y70189D01*
X269119Y70100D01*
X269061Y70009D01*
X269006Y69915D01*
X268955Y69820D01*
X268907Y69723D01*
X268863Y69624D01*
X268823Y69524D01*
X268786Y69422D01*
X268753Y69319D01*
X268723Y69214D01*
X268698Y69109D01*
X268676Y69003D01*
X268659Y68896D01*
X268645Y68789D01*
X268635Y68681D01*
X268629Y68573D01*
X268627Y68465D01*
X268627Y59575D01*
X258490Y59575D02*
X253551Y59575D01*
X258490Y59575D02*
X258596Y59577D01*
X258701Y59583D01*
X258807Y59592D01*
X258912Y59605D01*
X259016Y59622D01*
X259120Y59643D01*
X259223Y59667D01*
X259325Y59695D01*
X259426Y59727D01*
X259525Y59762D01*
X259624Y59801D01*
X259721Y59843D01*
X259816Y59888D01*
X259910Y59937D01*
X260002Y59990D01*
X260092Y60045D01*
X260180Y60104D01*
X260266Y60166D01*
X260349Y60231D01*
X260430Y60299D01*
X260509Y60369D01*
X260585Y60443D01*
X260659Y60519D01*
X260729Y60598D01*
X260797Y60679D01*
X260862Y60762D01*
X260924Y60848D01*
X260983Y60936D01*
X261038Y61026D01*
X261091Y61118D01*
X261140Y61212D01*
X261185Y61307D01*
X261227Y61404D01*
X261266Y61503D01*
X261301Y61602D01*
X261333Y61703D01*
X261361Y61805D01*
X261385Y61908D01*
X261406Y62012D01*
X261423Y62116D01*
X261436Y62221D01*
X261445Y62327D01*
X261451Y62432D01*
X261453Y62538D01*
X261454Y62538D02*
X261454Y67477D01*
X261453Y67477D02*
X261451Y67601D01*
X261445Y67725D01*
X261435Y67849D01*
X261422Y67972D01*
X261404Y68095D01*
X261383Y68217D01*
X261358Y68339D01*
X261329Y68460D01*
X261296Y68579D01*
X261260Y68698D01*
X261219Y68815D01*
X261176Y68931D01*
X261128Y69046D01*
X261077Y69159D01*
X261022Y69271D01*
X260964Y69380D01*
X260903Y69488D01*
X260838Y69594D01*
X260770Y69698D01*
X260698Y69799D01*
X260624Y69899D01*
X260546Y69995D01*
X260466Y70090D01*
X260382Y70182D01*
X260296Y70271D01*
X260207Y70357D01*
X260115Y70441D01*
X260020Y70521D01*
X259924Y70599D01*
X259824Y70673D01*
X259723Y70745D01*
X259619Y70813D01*
X259513Y70878D01*
X259405Y70939D01*
X259296Y70997D01*
X259184Y71052D01*
X259071Y71103D01*
X258956Y71151D01*
X258840Y71194D01*
X258723Y71235D01*
X258604Y71271D01*
X258485Y71304D01*
X258364Y71333D01*
X258242Y71358D01*
X258120Y71379D01*
X257997Y71397D01*
X257874Y71410D01*
X257750Y71420D01*
X257626Y71426D01*
X257502Y71428D01*
X257378Y71426D01*
X257254Y71420D01*
X257130Y71410D01*
X257007Y71397D01*
X256884Y71379D01*
X256762Y71358D01*
X256640Y71333D01*
X256519Y71304D01*
X256400Y71271D01*
X256281Y71235D01*
X256164Y71194D01*
X256048Y71151D01*
X255933Y71103D01*
X255820Y71052D01*
X255708Y70997D01*
X255599Y70939D01*
X255491Y70878D01*
X255385Y70813D01*
X255281Y70745D01*
X255180Y70673D01*
X255080Y70599D01*
X254984Y70521D01*
X254889Y70441D01*
X254797Y70357D01*
X254708Y70271D01*
X254622Y70182D01*
X254538Y70090D01*
X254458Y69995D01*
X254380Y69899D01*
X254306Y69799D01*
X254234Y69698D01*
X254166Y69594D01*
X254101Y69488D01*
X254040Y69380D01*
X253982Y69271D01*
X253927Y69159D01*
X253876Y69046D01*
X253828Y68931D01*
X253785Y68815D01*
X253744Y68698D01*
X253708Y68579D01*
X253675Y68460D01*
X253646Y68339D01*
X253621Y68217D01*
X253600Y68095D01*
X253582Y67972D01*
X253569Y67849D01*
X253559Y67725D01*
X253553Y67601D01*
X253551Y67477D01*
X253551Y65501D01*
X261454Y65501D01*
X246120Y59575D02*
X246120Y77355D01*
X240194Y67477D01*
X234267Y77355D01*
X234267Y59575D01*
X226836Y63526D02*
X226836Y67477D01*
X226834Y67601D01*
X226828Y67725D01*
X226818Y67849D01*
X226805Y67972D01*
X226787Y68095D01*
X226766Y68217D01*
X226741Y68339D01*
X226712Y68460D01*
X226679Y68579D01*
X226643Y68698D01*
X226602Y68815D01*
X226559Y68931D01*
X226511Y69046D01*
X226460Y69159D01*
X226405Y69271D01*
X226347Y69380D01*
X226286Y69488D01*
X226221Y69594D01*
X226153Y69698D01*
X226081Y69799D01*
X226007Y69899D01*
X225929Y69995D01*
X225849Y70090D01*
X225765Y70182D01*
X225679Y70271D01*
X225590Y70357D01*
X225498Y70441D01*
X225403Y70521D01*
X225307Y70599D01*
X225207Y70673D01*
X225106Y70745D01*
X225002Y70813D01*
X224896Y70878D01*
X224788Y70939D01*
X224679Y70997D01*
X224567Y71052D01*
X224454Y71103D01*
X224339Y71151D01*
X224223Y71194D01*
X224106Y71235D01*
X223987Y71271D01*
X223868Y71304D01*
X223747Y71333D01*
X223625Y71358D01*
X223503Y71379D01*
X223380Y71397D01*
X223257Y71410D01*
X223133Y71420D01*
X223009Y71426D01*
X222885Y71428D01*
X222761Y71426D01*
X222637Y71420D01*
X222513Y71410D01*
X222390Y71397D01*
X222267Y71379D01*
X222145Y71358D01*
X222023Y71333D01*
X221902Y71304D01*
X221783Y71271D01*
X221664Y71235D01*
X221547Y71194D01*
X221431Y71151D01*
X221316Y71103D01*
X221203Y71052D01*
X221091Y70997D01*
X220982Y70939D01*
X220874Y70878D01*
X220768Y70813D01*
X220664Y70745D01*
X220563Y70673D01*
X220463Y70599D01*
X220367Y70521D01*
X220272Y70441D01*
X220180Y70357D01*
X220091Y70271D01*
X220005Y70182D01*
X219921Y70090D01*
X219841Y69995D01*
X219763Y69899D01*
X219689Y69799D01*
X219617Y69698D01*
X219549Y69594D01*
X219484Y69488D01*
X219423Y69380D01*
X219365Y69271D01*
X219310Y69159D01*
X219259Y69046D01*
X219211Y68931D01*
X219168Y68815D01*
X219127Y68698D01*
X219091Y68579D01*
X219058Y68460D01*
X219029Y68339D01*
X219004Y68217D01*
X218983Y68095D01*
X218965Y67972D01*
X218952Y67849D01*
X218942Y67725D01*
X218936Y67601D01*
X218934Y67477D01*
X218934Y63526D01*
X218936Y63402D01*
X218942Y63278D01*
X218952Y63154D01*
X218965Y63031D01*
X218983Y62908D01*
X219004Y62786D01*
X219029Y62664D01*
X219058Y62543D01*
X219091Y62424D01*
X219127Y62305D01*
X219168Y62188D01*
X219211Y62072D01*
X219259Y61957D01*
X219310Y61844D01*
X219365Y61732D01*
X219423Y61623D01*
X219484Y61515D01*
X219549Y61409D01*
X219617Y61305D01*
X219689Y61204D01*
X219763Y61104D01*
X219841Y61008D01*
X219921Y60913D01*
X220005Y60821D01*
X220091Y60732D01*
X220180Y60646D01*
X220272Y60562D01*
X220367Y60482D01*
X220463Y60404D01*
X220563Y60330D01*
X220664Y60258D01*
X220768Y60190D01*
X220874Y60125D01*
X220982Y60064D01*
X221091Y60006D01*
X221203Y59951D01*
X221316Y59900D01*
X221431Y59852D01*
X221547Y59809D01*
X221664Y59768D01*
X221783Y59732D01*
X221902Y59699D01*
X222023Y59670D01*
X222145Y59645D01*
X222267Y59624D01*
X222390Y59606D01*
X222513Y59593D01*
X222637Y59583D01*
X222761Y59577D01*
X222885Y59575D01*
X223009Y59577D01*
X223133Y59583D01*
X223257Y59593D01*
X223380Y59606D01*
X223503Y59624D01*
X223625Y59645D01*
X223747Y59670D01*
X223868Y59699D01*
X223987Y59732D01*
X224106Y59768D01*
X224223Y59809D01*
X224339Y59852D01*
X224454Y59900D01*
X224567Y59951D01*
X224679Y60006D01*
X224788Y60064D01*
X224896Y60125D01*
X225002Y60190D01*
X225106Y60258D01*
X225207Y60330D01*
X225307Y60404D01*
X225403Y60482D01*
X225498Y60562D01*
X225590Y60646D01*
X225679Y60732D01*
X225765Y60821D01*
X225849Y60913D01*
X225929Y61008D01*
X226007Y61104D01*
X226081Y61204D01*
X226153Y61305D01*
X226221Y61409D01*
X226286Y61515D01*
X226347Y61623D01*
X226405Y61732D01*
X226460Y61844D01*
X226511Y61957D01*
X226559Y62072D01*
X226602Y62188D01*
X226643Y62305D01*
X226679Y62424D01*
X226712Y62543D01*
X226741Y62664D01*
X226766Y62786D01*
X226787Y62908D01*
X226805Y63031D01*
X226818Y63154D01*
X226828Y63278D01*
X226834Y63402D01*
X226836Y63526D01*
X204485Y59575D02*
X204485Y77355D01*
X204485Y59575D02*
X209424Y59575D01*
X209530Y59577D01*
X209635Y59583D01*
X209741Y59592D01*
X209846Y59605D01*
X209950Y59622D01*
X210054Y59643D01*
X210157Y59667D01*
X210259Y59695D01*
X210360Y59727D01*
X210459Y59762D01*
X210558Y59801D01*
X210655Y59843D01*
X210750Y59888D01*
X210844Y59937D01*
X210936Y59990D01*
X211026Y60045D01*
X211114Y60104D01*
X211200Y60166D01*
X211283Y60231D01*
X211364Y60299D01*
X211443Y60369D01*
X211519Y60443D01*
X211593Y60519D01*
X211663Y60598D01*
X211731Y60679D01*
X211796Y60762D01*
X211858Y60848D01*
X211917Y60936D01*
X211972Y61026D01*
X212025Y61118D01*
X212074Y61212D01*
X212119Y61307D01*
X212161Y61404D01*
X212200Y61503D01*
X212235Y61602D01*
X212267Y61703D01*
X212295Y61805D01*
X212319Y61908D01*
X212340Y62012D01*
X212357Y62116D01*
X212370Y62221D01*
X212379Y62327D01*
X212385Y62432D01*
X212387Y62538D01*
X212387Y68465D01*
X212385Y68571D01*
X212379Y68676D01*
X212370Y68782D01*
X212357Y68887D01*
X212340Y68991D01*
X212319Y69095D01*
X212295Y69198D01*
X212267Y69300D01*
X212235Y69401D01*
X212200Y69500D01*
X212161Y69599D01*
X212119Y69696D01*
X212074Y69791D01*
X212025Y69885D01*
X211972Y69977D01*
X211917Y70067D01*
X211858Y70155D01*
X211796Y70241D01*
X211731Y70324D01*
X211663Y70405D01*
X211593Y70484D01*
X211519Y70560D01*
X211443Y70634D01*
X211364Y70704D01*
X211283Y70772D01*
X211200Y70837D01*
X211114Y70899D01*
X211026Y70958D01*
X210936Y71013D01*
X210844Y71066D01*
X210750Y71115D01*
X210655Y71160D01*
X210558Y71202D01*
X210459Y71241D01*
X210360Y71276D01*
X210259Y71308D01*
X210157Y71336D01*
X210054Y71360D01*
X209950Y71381D01*
X209846Y71398D01*
X209741Y71411D01*
X209635Y71420D01*
X209530Y71426D01*
X209424Y71428D01*
X204485Y71428D01*
X191746Y59575D02*
X191622Y59577D01*
X191498Y59583D01*
X191374Y59593D01*
X191251Y59606D01*
X191128Y59624D01*
X191006Y59645D01*
X190884Y59670D01*
X190763Y59699D01*
X190644Y59732D01*
X190525Y59768D01*
X190408Y59809D01*
X190292Y59852D01*
X190177Y59900D01*
X190064Y59951D01*
X189952Y60006D01*
X189843Y60064D01*
X189735Y60125D01*
X189629Y60190D01*
X189525Y60258D01*
X189424Y60330D01*
X189324Y60404D01*
X189228Y60482D01*
X189133Y60562D01*
X189041Y60646D01*
X188952Y60732D01*
X188866Y60821D01*
X188782Y60913D01*
X188702Y61008D01*
X188624Y61104D01*
X188550Y61204D01*
X188478Y61305D01*
X188410Y61409D01*
X188345Y61515D01*
X188284Y61623D01*
X188226Y61732D01*
X188171Y61844D01*
X188120Y61957D01*
X188072Y62072D01*
X188029Y62188D01*
X187988Y62305D01*
X187952Y62424D01*
X187919Y62543D01*
X187890Y62664D01*
X187865Y62786D01*
X187844Y62908D01*
X187826Y63031D01*
X187813Y63154D01*
X187803Y63278D01*
X187797Y63402D01*
X187795Y63526D01*
X191746Y59574D02*
X191946Y59576D01*
X192145Y59584D01*
X192345Y59595D01*
X192544Y59612D01*
X192742Y59634D01*
X192940Y59660D01*
X193137Y59691D01*
X193334Y59726D01*
X193530Y59767D01*
X193724Y59812D01*
X193918Y59861D01*
X194110Y59916D01*
X194301Y59975D01*
X194490Y60038D01*
X194678Y60106D01*
X194864Y60178D01*
X195048Y60255D01*
X195231Y60336D01*
X195411Y60422D01*
X195590Y60512D01*
X195766Y60606D01*
X195940Y60704D01*
X196111Y60806D01*
X196280Y60913D01*
X196446Y61023D01*
X196610Y61138D01*
X196771Y61256D01*
X196929Y61378D01*
X197084Y61504D01*
X197236Y61634D01*
X197385Y61767D01*
X197531Y61903D01*
X197673Y62044D01*
X197179Y73404D02*
X197177Y73528D01*
X197171Y73652D01*
X197161Y73776D01*
X197148Y73899D01*
X197130Y74022D01*
X197109Y74144D01*
X197084Y74266D01*
X197055Y74387D01*
X197022Y74506D01*
X196986Y74625D01*
X196945Y74742D01*
X196902Y74858D01*
X196854Y74973D01*
X196803Y75086D01*
X196748Y75198D01*
X196690Y75307D01*
X196629Y75415D01*
X196564Y75521D01*
X196496Y75625D01*
X196424Y75726D01*
X196350Y75826D01*
X196272Y75922D01*
X196192Y76017D01*
X196108Y76109D01*
X196022Y76198D01*
X195933Y76284D01*
X195841Y76368D01*
X195746Y76448D01*
X195650Y76526D01*
X195550Y76600D01*
X195449Y76672D01*
X195345Y76740D01*
X195239Y76805D01*
X195131Y76866D01*
X195022Y76924D01*
X194910Y76979D01*
X194797Y77030D01*
X194682Y77078D01*
X194566Y77121D01*
X194449Y77162D01*
X194330Y77198D01*
X194211Y77231D01*
X194090Y77260D01*
X193968Y77285D01*
X193846Y77306D01*
X193723Y77324D01*
X193600Y77337D01*
X193476Y77347D01*
X193352Y77353D01*
X193228Y77355D01*
X193228Y77354D02*
X193051Y77352D01*
X192875Y77346D01*
X192699Y77335D01*
X192523Y77320D01*
X192347Y77301D01*
X192172Y77278D01*
X191998Y77251D01*
X191824Y77220D01*
X191651Y77184D01*
X191479Y77145D01*
X191308Y77101D01*
X191138Y77053D01*
X190969Y77001D01*
X190802Y76945D01*
X190636Y76886D01*
X190471Y76822D01*
X190308Y76754D01*
X190147Y76683D01*
X189987Y76607D01*
X189829Y76528D01*
X189673Y76445D01*
X189519Y76359D01*
X189367Y76269D01*
X189218Y76175D01*
X189071Y76077D01*
X188926Y75977D01*
X188783Y75872D01*
X195203Y69947D02*
X195308Y70010D01*
X195411Y70077D01*
X195511Y70148D01*
X195609Y70221D01*
X195706Y70297D01*
X195799Y70376D01*
X195890Y70458D01*
X195979Y70542D01*
X196065Y70629D01*
X196149Y70719D01*
X196229Y70811D01*
X196307Y70906D01*
X196382Y71003D01*
X196454Y71103D01*
X196522Y71204D01*
X196588Y71308D01*
X196650Y71413D01*
X196709Y71520D01*
X196765Y71629D01*
X196818Y71740D01*
X196867Y71852D01*
X196913Y71966D01*
X196955Y72081D01*
X196993Y72197D01*
X197028Y72315D01*
X197060Y72433D01*
X197088Y72553D01*
X197112Y72673D01*
X197132Y72794D01*
X197149Y72915D01*
X197162Y73037D01*
X197172Y73159D01*
X197177Y73281D01*
X197179Y73404D01*
X189771Y66983D02*
X189666Y66920D01*
X189563Y66853D01*
X189463Y66782D01*
X189365Y66709D01*
X189268Y66633D01*
X189175Y66554D01*
X189084Y66472D01*
X188995Y66388D01*
X188909Y66301D01*
X188825Y66211D01*
X188745Y66119D01*
X188667Y66024D01*
X188592Y65927D01*
X188521Y65827D01*
X188452Y65726D01*
X188386Y65622D01*
X188324Y65517D01*
X188265Y65410D01*
X188209Y65301D01*
X188156Y65190D01*
X188107Y65078D01*
X188061Y64964D01*
X188019Y64849D01*
X187981Y64733D01*
X187946Y64615D01*
X187914Y64497D01*
X187886Y64377D01*
X187862Y64257D01*
X187842Y64136D01*
X187825Y64015D01*
X187812Y63893D01*
X187802Y63771D01*
X187797Y63649D01*
X187795Y63526D01*
X189771Y66983D02*
X195203Y69946D01*
X181051Y77355D02*
X181051Y59575D01*
X181051Y71428D02*
X176112Y71428D01*
X176004Y71426D01*
X175896Y71420D01*
X175788Y71410D01*
X175681Y71396D01*
X175574Y71379D01*
X175468Y71357D01*
X175363Y71332D01*
X175258Y71302D01*
X175155Y71269D01*
X175054Y71232D01*
X174953Y71192D01*
X174854Y71148D01*
X174757Y71100D01*
X174662Y71049D01*
X174568Y70994D01*
X174477Y70936D01*
X174388Y70875D01*
X174301Y70810D01*
X174217Y70743D01*
X174135Y70672D01*
X174055Y70598D01*
X173979Y70522D01*
X173905Y70442D01*
X173835Y70360D01*
X173767Y70276D01*
X173702Y70189D01*
X173641Y70100D01*
X173583Y70009D01*
X173528Y69915D01*
X173477Y69820D01*
X173429Y69723D01*
X173385Y69624D01*
X173345Y69524D01*
X173308Y69422D01*
X173275Y69319D01*
X173245Y69214D01*
X173220Y69109D01*
X173198Y69003D01*
X173181Y68896D01*
X173167Y68789D01*
X173157Y68681D01*
X173151Y68573D01*
X173149Y68465D01*
X173149Y59575D01*
X165976Y63526D02*
X165976Y67477D01*
X165974Y67601D01*
X165968Y67725D01*
X165958Y67849D01*
X165945Y67972D01*
X165927Y68095D01*
X165906Y68217D01*
X165881Y68339D01*
X165852Y68460D01*
X165819Y68579D01*
X165783Y68698D01*
X165742Y68815D01*
X165699Y68931D01*
X165651Y69046D01*
X165600Y69159D01*
X165545Y69271D01*
X165487Y69380D01*
X165426Y69488D01*
X165361Y69594D01*
X165293Y69698D01*
X165221Y69799D01*
X165147Y69899D01*
X165069Y69995D01*
X164989Y70090D01*
X164905Y70182D01*
X164819Y70271D01*
X164730Y70357D01*
X164638Y70441D01*
X164543Y70521D01*
X164447Y70599D01*
X164347Y70673D01*
X164246Y70745D01*
X164142Y70813D01*
X164036Y70878D01*
X163928Y70939D01*
X163819Y70997D01*
X163707Y71052D01*
X163594Y71103D01*
X163479Y71151D01*
X163363Y71194D01*
X163246Y71235D01*
X163127Y71271D01*
X163008Y71304D01*
X162887Y71333D01*
X162765Y71358D01*
X162643Y71379D01*
X162520Y71397D01*
X162397Y71410D01*
X162273Y71420D01*
X162149Y71426D01*
X162025Y71428D01*
X161901Y71426D01*
X161777Y71420D01*
X161653Y71410D01*
X161530Y71397D01*
X161407Y71379D01*
X161285Y71358D01*
X161163Y71333D01*
X161042Y71304D01*
X160923Y71271D01*
X160804Y71235D01*
X160687Y71194D01*
X160571Y71151D01*
X160456Y71103D01*
X160343Y71052D01*
X160231Y70997D01*
X160122Y70939D01*
X160014Y70878D01*
X159908Y70813D01*
X159804Y70745D01*
X159703Y70673D01*
X159603Y70599D01*
X159507Y70521D01*
X159412Y70441D01*
X159320Y70357D01*
X159231Y70271D01*
X159145Y70182D01*
X159061Y70090D01*
X158981Y69995D01*
X158903Y69899D01*
X158829Y69799D01*
X158757Y69698D01*
X158689Y69594D01*
X158624Y69488D01*
X158563Y69380D01*
X158505Y69271D01*
X158450Y69159D01*
X158399Y69046D01*
X158351Y68931D01*
X158308Y68815D01*
X158267Y68698D01*
X158231Y68579D01*
X158198Y68460D01*
X158169Y68339D01*
X158144Y68217D01*
X158123Y68095D01*
X158105Y67972D01*
X158092Y67849D01*
X158082Y67725D01*
X158076Y67601D01*
X158074Y67477D01*
X158074Y63526D01*
X158076Y63402D01*
X158082Y63278D01*
X158092Y63154D01*
X158105Y63031D01*
X158123Y62908D01*
X158144Y62786D01*
X158169Y62664D01*
X158198Y62543D01*
X158231Y62424D01*
X158267Y62305D01*
X158308Y62188D01*
X158351Y62072D01*
X158399Y61957D01*
X158450Y61844D01*
X158505Y61732D01*
X158563Y61623D01*
X158624Y61515D01*
X158689Y61409D01*
X158757Y61305D01*
X158829Y61204D01*
X158903Y61104D01*
X158981Y61008D01*
X159061Y60913D01*
X159145Y60821D01*
X159231Y60732D01*
X159320Y60646D01*
X159412Y60562D01*
X159507Y60482D01*
X159603Y60404D01*
X159703Y60330D01*
X159804Y60258D01*
X159908Y60190D01*
X160014Y60125D01*
X160122Y60064D01*
X160231Y60006D01*
X160343Y59951D01*
X160456Y59900D01*
X160571Y59852D01*
X160687Y59809D01*
X160804Y59768D01*
X160923Y59732D01*
X161042Y59699D01*
X161163Y59670D01*
X161285Y59645D01*
X161407Y59624D01*
X161530Y59606D01*
X161653Y59593D01*
X161777Y59583D01*
X161901Y59577D01*
X162025Y59575D01*
X162149Y59577D01*
X162273Y59583D01*
X162397Y59593D01*
X162520Y59606D01*
X162643Y59624D01*
X162765Y59645D01*
X162887Y59670D01*
X163008Y59699D01*
X163127Y59732D01*
X163246Y59768D01*
X163363Y59809D01*
X163479Y59852D01*
X163594Y59900D01*
X163707Y59951D01*
X163819Y60006D01*
X163928Y60064D01*
X164036Y60125D01*
X164142Y60190D01*
X164246Y60258D01*
X164347Y60330D01*
X164447Y60404D01*
X164543Y60482D01*
X164638Y60562D01*
X164730Y60646D01*
X164819Y60732D01*
X164905Y60821D01*
X164989Y60913D01*
X165069Y61008D01*
X165147Y61104D01*
X165221Y61204D01*
X165293Y61305D01*
X165361Y61409D01*
X165426Y61515D01*
X165487Y61623D01*
X165545Y61732D01*
X165600Y61844D01*
X165651Y61957D01*
X165699Y62072D01*
X165742Y62188D01*
X165783Y62305D01*
X165819Y62424D01*
X165852Y62543D01*
X165881Y62664D01*
X165906Y62786D01*
X165927Y62908D01*
X165945Y63031D01*
X165958Y63154D01*
X165968Y63278D01*
X165974Y63402D01*
X165976Y63526D01*
X150832Y71428D02*
X150832Y53648D01*
X150832Y71428D02*
X145893Y71428D01*
X145785Y71426D01*
X145677Y71420D01*
X145569Y71410D01*
X145462Y71396D01*
X145355Y71379D01*
X145249Y71357D01*
X145144Y71332D01*
X145039Y71302D01*
X144936Y71269D01*
X144835Y71232D01*
X144734Y71192D01*
X144635Y71148D01*
X144538Y71100D01*
X144443Y71049D01*
X144349Y70994D01*
X144258Y70936D01*
X144169Y70875D01*
X144082Y70810D01*
X143998Y70743D01*
X143916Y70672D01*
X143836Y70598D01*
X143760Y70522D01*
X143686Y70442D01*
X143616Y70360D01*
X143548Y70276D01*
X143483Y70189D01*
X143422Y70100D01*
X143364Y70009D01*
X143309Y69915D01*
X143258Y69820D01*
X143210Y69723D01*
X143166Y69624D01*
X143126Y69524D01*
X143089Y69422D01*
X143056Y69319D01*
X143026Y69214D01*
X143001Y69109D01*
X142979Y69003D01*
X142962Y68896D01*
X142948Y68789D01*
X142938Y68681D01*
X142932Y68573D01*
X142930Y68465D01*
X142930Y62538D01*
X142932Y62432D01*
X142938Y62327D01*
X142947Y62221D01*
X142960Y62116D01*
X142977Y62012D01*
X142998Y61908D01*
X143022Y61805D01*
X143050Y61703D01*
X143082Y61602D01*
X143117Y61503D01*
X143156Y61404D01*
X143198Y61307D01*
X143243Y61212D01*
X143292Y61118D01*
X143345Y61026D01*
X143400Y60936D01*
X143459Y60848D01*
X143521Y60762D01*
X143586Y60679D01*
X143654Y60598D01*
X143724Y60519D01*
X143798Y60443D01*
X143874Y60369D01*
X143953Y60299D01*
X144034Y60231D01*
X144117Y60166D01*
X144203Y60104D01*
X144291Y60045D01*
X144381Y59990D01*
X144473Y59937D01*
X144567Y59888D01*
X144662Y59843D01*
X144759Y59801D01*
X144858Y59762D01*
X144957Y59727D01*
X145058Y59695D01*
X145160Y59667D01*
X145263Y59643D01*
X145367Y59622D01*
X145471Y59605D01*
X145576Y59592D01*
X145682Y59583D01*
X145787Y59577D01*
X145893Y59575D01*
X150832Y59575D01*
X136835Y59575D02*
X136835Y60562D01*
X135847Y60562D01*
X135847Y59575D01*
X136835Y59575D01*
X126703Y59575D02*
X122752Y59575D01*
X126703Y59575D02*
X126809Y59577D01*
X126914Y59583D01*
X127020Y59592D01*
X127125Y59605D01*
X127229Y59622D01*
X127333Y59643D01*
X127436Y59667D01*
X127538Y59695D01*
X127639Y59727D01*
X127738Y59762D01*
X127837Y59801D01*
X127934Y59843D01*
X128029Y59888D01*
X128123Y59937D01*
X128215Y59990D01*
X128305Y60045D01*
X128393Y60104D01*
X128479Y60166D01*
X128562Y60231D01*
X128643Y60299D01*
X128722Y60369D01*
X128798Y60443D01*
X128872Y60519D01*
X128942Y60598D01*
X129010Y60679D01*
X129075Y60762D01*
X129137Y60848D01*
X129196Y60936D01*
X129251Y61026D01*
X129304Y61118D01*
X129353Y61212D01*
X129398Y61307D01*
X129440Y61404D01*
X129479Y61503D01*
X129514Y61602D01*
X129546Y61703D01*
X129574Y61805D01*
X129598Y61908D01*
X129619Y62012D01*
X129636Y62116D01*
X129649Y62221D01*
X129658Y62327D01*
X129664Y62432D01*
X129666Y62538D01*
X129666Y68465D01*
X129664Y68571D01*
X129658Y68676D01*
X129649Y68782D01*
X129636Y68887D01*
X129619Y68991D01*
X129598Y69095D01*
X129574Y69198D01*
X129546Y69300D01*
X129514Y69401D01*
X129479Y69500D01*
X129440Y69599D01*
X129398Y69696D01*
X129353Y69791D01*
X129304Y69885D01*
X129251Y69977D01*
X129196Y70067D01*
X129137Y70155D01*
X129075Y70241D01*
X129010Y70324D01*
X128942Y70405D01*
X128872Y70484D01*
X128798Y70560D01*
X128722Y70634D01*
X128643Y70704D01*
X128562Y70772D01*
X128479Y70837D01*
X128393Y70899D01*
X128305Y70958D01*
X128215Y71013D01*
X128123Y71066D01*
X128029Y71115D01*
X127934Y71160D01*
X127837Y71202D01*
X127738Y71241D01*
X127639Y71276D01*
X127538Y71308D01*
X127436Y71336D01*
X127333Y71360D01*
X127229Y71381D01*
X127125Y71398D01*
X127020Y71411D01*
X126914Y71420D01*
X126809Y71426D01*
X126703Y71428D01*
X122752Y71428D01*
X116841Y67477D02*
X116841Y63526D01*
X116841Y67477D02*
X116839Y67601D01*
X116833Y67725D01*
X116823Y67849D01*
X116810Y67972D01*
X116792Y68095D01*
X116771Y68217D01*
X116746Y68339D01*
X116717Y68460D01*
X116684Y68579D01*
X116648Y68698D01*
X116607Y68815D01*
X116564Y68931D01*
X116516Y69046D01*
X116465Y69159D01*
X116410Y69271D01*
X116352Y69380D01*
X116291Y69488D01*
X116226Y69594D01*
X116158Y69698D01*
X116086Y69799D01*
X116012Y69899D01*
X115934Y69995D01*
X115854Y70090D01*
X115770Y70182D01*
X115684Y70271D01*
X115595Y70357D01*
X115503Y70441D01*
X115408Y70521D01*
X115312Y70599D01*
X115212Y70673D01*
X115111Y70745D01*
X115007Y70813D01*
X114901Y70878D01*
X114793Y70939D01*
X114684Y70997D01*
X114572Y71052D01*
X114459Y71103D01*
X114344Y71151D01*
X114228Y71194D01*
X114111Y71235D01*
X113992Y71271D01*
X113873Y71304D01*
X113752Y71333D01*
X113630Y71358D01*
X113508Y71379D01*
X113385Y71397D01*
X113262Y71410D01*
X113138Y71420D01*
X113014Y71426D01*
X112890Y71428D01*
X112766Y71426D01*
X112642Y71420D01*
X112518Y71410D01*
X112395Y71397D01*
X112272Y71379D01*
X112150Y71358D01*
X112028Y71333D01*
X111907Y71304D01*
X111788Y71271D01*
X111669Y71235D01*
X111552Y71194D01*
X111436Y71151D01*
X111321Y71103D01*
X111208Y71052D01*
X111096Y70997D01*
X110987Y70939D01*
X110879Y70878D01*
X110773Y70813D01*
X110669Y70745D01*
X110568Y70673D01*
X110468Y70599D01*
X110372Y70521D01*
X110277Y70441D01*
X110185Y70357D01*
X110096Y70271D01*
X110010Y70182D01*
X109926Y70090D01*
X109846Y69995D01*
X109768Y69899D01*
X109694Y69799D01*
X109622Y69698D01*
X109554Y69594D01*
X109489Y69488D01*
X109428Y69380D01*
X109370Y69271D01*
X109315Y69159D01*
X109264Y69046D01*
X109216Y68931D01*
X109173Y68815D01*
X109132Y68698D01*
X109096Y68579D01*
X109063Y68460D01*
X109034Y68339D01*
X109009Y68217D01*
X108988Y68095D01*
X108970Y67972D01*
X108957Y67849D01*
X108947Y67725D01*
X108941Y67601D01*
X108939Y67477D01*
X108939Y63526D01*
X108941Y63402D01*
X108947Y63278D01*
X108957Y63154D01*
X108970Y63031D01*
X108988Y62908D01*
X109009Y62786D01*
X109034Y62664D01*
X109063Y62543D01*
X109096Y62424D01*
X109132Y62305D01*
X109173Y62188D01*
X109216Y62072D01*
X109264Y61957D01*
X109315Y61844D01*
X109370Y61732D01*
X109428Y61623D01*
X109489Y61515D01*
X109554Y61409D01*
X109622Y61305D01*
X109694Y61204D01*
X109768Y61104D01*
X109846Y61008D01*
X109926Y60913D01*
X110010Y60821D01*
X110096Y60732D01*
X110185Y60646D01*
X110277Y60562D01*
X110372Y60482D01*
X110468Y60404D01*
X110568Y60330D01*
X110669Y60258D01*
X110773Y60190D01*
X110879Y60125D01*
X110987Y60064D01*
X111096Y60006D01*
X111208Y59951D01*
X111321Y59900D01*
X111436Y59852D01*
X111552Y59809D01*
X111669Y59768D01*
X111788Y59732D01*
X111907Y59699D01*
X112028Y59670D01*
X112150Y59645D01*
X112272Y59624D01*
X112395Y59606D01*
X112518Y59593D01*
X112642Y59583D01*
X112766Y59577D01*
X112890Y59575D01*
X113014Y59577D01*
X113138Y59583D01*
X113262Y59593D01*
X113385Y59606D01*
X113508Y59624D01*
X113630Y59645D01*
X113752Y59670D01*
X113873Y59699D01*
X113992Y59732D01*
X114111Y59768D01*
X114228Y59809D01*
X114344Y59852D01*
X114459Y59900D01*
X114572Y59951D01*
X114684Y60006D01*
X114793Y60064D01*
X114901Y60125D01*
X115007Y60190D01*
X115111Y60258D01*
X115212Y60330D01*
X115312Y60404D01*
X115408Y60482D01*
X115503Y60562D01*
X115595Y60646D01*
X115684Y60732D01*
X115770Y60821D01*
X115854Y60913D01*
X115934Y61008D01*
X116012Y61104D01*
X116086Y61204D01*
X116158Y61305D01*
X116226Y61409D01*
X116291Y61515D01*
X116352Y61623D01*
X116410Y61732D01*
X116465Y61844D01*
X116516Y61957D01*
X116564Y62072D01*
X116607Y62188D01*
X116648Y62305D01*
X116684Y62424D01*
X116717Y62543D01*
X116746Y62664D01*
X116771Y62786D01*
X116792Y62908D01*
X116810Y63031D01*
X116823Y63154D01*
X116833Y63278D01*
X116839Y63402D01*
X116841Y63526D01*
M02*
