%
M48
M72
T01C0.01378
T02C0.03543
T03C0.03740
%
T01
X54548Y138697
X70704Y133902
X69551Y123453
X82452Y110850
X89581Y115701
X95689Y106403
X95689Y102627
X110596Y100773
X118540Y96552
X131432Y80983
X127960Y79126
X123177Y67836
X131452Y54466
X131497Y47126
X143568Y36616
X164061Y41989
X163848Y47287
X144468Y63008
X140162Y61171
X150824Y70005
X164428Y76682
X152855Y85575
X145536Y98711
X160228Y123057
X140695Y130412
X162220Y158952
X181538Y124278
X90274Y63046
X80617Y56762
X71697Y54021
X70026Y60342
X62612Y55181
X61949Y60722
X56199Y50979
X56396Y45200
X51491Y42348
X22774Y52655
X55471Y77807
X66638Y75579
X74853Y72380
X77382Y69382
X77540Y75569
X77540Y79163
X73018Y84215
X66559Y84439
X72125Y107499
X36169Y137723
X19605Y127421
X76727Y40229
X93438Y34397
X69176Y15531
X48148Y25477
X28019Y23146
X122956Y15531
T02
X33909Y42349
X33909Y59671
T03
X46305Y158887
X58116Y158887
M30
