G75*
%MOIN*%
%OFA0B0*%
%FSLAX25Y25*%
%IPPOS*%
%LPD*%
%AMOC8*
5,1,8,0,0,1.08239X$1,22.5*
%
%ADD10C,0.00000*%
%ADD11C,0.01000*%
%ADD12C,0.02978*%
%ADD13C,0.01200*%
%ADD14C,0.00787*%
%ADD15C,0.00800*%
D10*
X0013086Y0010868D02*
X0012813Y0165237D01*
X0194882Y0164778D01*
X0194985Y0010987D01*
X0013086Y0010868D01*
X0032137Y0042349D02*
X0032139Y0042433D01*
X0032145Y0042516D01*
X0032155Y0042599D01*
X0032169Y0042682D01*
X0032186Y0042764D01*
X0032208Y0042845D01*
X0032233Y0042924D01*
X0032262Y0043003D01*
X0032295Y0043080D01*
X0032331Y0043155D01*
X0032371Y0043229D01*
X0032414Y0043301D01*
X0032461Y0043370D01*
X0032511Y0043437D01*
X0032564Y0043502D01*
X0032620Y0043564D01*
X0032678Y0043624D01*
X0032740Y0043681D01*
X0032804Y0043734D01*
X0032871Y0043785D01*
X0032940Y0043832D01*
X0033011Y0043877D01*
X0033084Y0043917D01*
X0033159Y0043954D01*
X0033236Y0043988D01*
X0033314Y0044018D01*
X0033393Y0044044D01*
X0033474Y0044067D01*
X0033556Y0044085D01*
X0033638Y0044100D01*
X0033721Y0044111D01*
X0033804Y0044118D01*
X0033888Y0044121D01*
X0033972Y0044120D01*
X0034055Y0044115D01*
X0034139Y0044106D01*
X0034221Y0044093D01*
X0034303Y0044077D01*
X0034384Y0044056D01*
X0034465Y0044032D01*
X0034543Y0044004D01*
X0034621Y0043972D01*
X0034697Y0043936D01*
X0034771Y0043897D01*
X0034843Y0043855D01*
X0034913Y0043809D01*
X0034981Y0043760D01*
X0035046Y0043708D01*
X0035109Y0043653D01*
X0035169Y0043595D01*
X0035227Y0043534D01*
X0035281Y0043470D01*
X0035333Y0043404D01*
X0035381Y0043336D01*
X0035426Y0043265D01*
X0035467Y0043192D01*
X0035506Y0043118D01*
X0035540Y0043042D01*
X0035571Y0042964D01*
X0035598Y0042885D01*
X0035622Y0042804D01*
X0035641Y0042723D01*
X0035657Y0042641D01*
X0035669Y0042558D01*
X0035677Y0042474D01*
X0035681Y0042391D01*
X0035681Y0042307D01*
X0035677Y0042224D01*
X0035669Y0042140D01*
X0035657Y0042057D01*
X0035641Y0041975D01*
X0035622Y0041894D01*
X0035598Y0041813D01*
X0035571Y0041734D01*
X0035540Y0041656D01*
X0035506Y0041580D01*
X0035467Y0041506D01*
X0035426Y0041433D01*
X0035381Y0041362D01*
X0035333Y0041294D01*
X0035281Y0041228D01*
X0035227Y0041164D01*
X0035169Y0041103D01*
X0035109Y0041045D01*
X0035046Y0040990D01*
X0034981Y0040938D01*
X0034913Y0040889D01*
X0034843Y0040843D01*
X0034771Y0040801D01*
X0034697Y0040762D01*
X0034621Y0040726D01*
X0034543Y0040694D01*
X0034465Y0040666D01*
X0034384Y0040642D01*
X0034303Y0040621D01*
X0034221Y0040605D01*
X0034139Y0040592D01*
X0034055Y0040583D01*
X0033972Y0040578D01*
X0033888Y0040577D01*
X0033804Y0040580D01*
X0033721Y0040587D01*
X0033638Y0040598D01*
X0033556Y0040613D01*
X0033474Y0040631D01*
X0033393Y0040654D01*
X0033314Y0040680D01*
X0033236Y0040710D01*
X0033159Y0040744D01*
X0033084Y0040781D01*
X0033011Y0040821D01*
X0032940Y0040866D01*
X0032871Y0040913D01*
X0032804Y0040964D01*
X0032740Y0041017D01*
X0032678Y0041074D01*
X0032620Y0041134D01*
X0032564Y0041196D01*
X0032511Y0041261D01*
X0032461Y0041328D01*
X0032414Y0041397D01*
X0032371Y0041469D01*
X0032331Y0041543D01*
X0032295Y0041618D01*
X0032262Y0041695D01*
X0032233Y0041774D01*
X0032208Y0041853D01*
X0032186Y0041934D01*
X0032169Y0042016D01*
X0032155Y0042099D01*
X0032145Y0042182D01*
X0032139Y0042265D01*
X0032137Y0042349D01*
X0032137Y0059671D02*
X0032139Y0059755D01*
X0032145Y0059838D01*
X0032155Y0059921D01*
X0032169Y0060004D01*
X0032186Y0060086D01*
X0032208Y0060167D01*
X0032233Y0060246D01*
X0032262Y0060325D01*
X0032295Y0060402D01*
X0032331Y0060477D01*
X0032371Y0060551D01*
X0032414Y0060623D01*
X0032461Y0060692D01*
X0032511Y0060759D01*
X0032564Y0060824D01*
X0032620Y0060886D01*
X0032678Y0060946D01*
X0032740Y0061003D01*
X0032804Y0061056D01*
X0032871Y0061107D01*
X0032940Y0061154D01*
X0033011Y0061199D01*
X0033084Y0061239D01*
X0033159Y0061276D01*
X0033236Y0061310D01*
X0033314Y0061340D01*
X0033393Y0061366D01*
X0033474Y0061389D01*
X0033556Y0061407D01*
X0033638Y0061422D01*
X0033721Y0061433D01*
X0033804Y0061440D01*
X0033888Y0061443D01*
X0033972Y0061442D01*
X0034055Y0061437D01*
X0034139Y0061428D01*
X0034221Y0061415D01*
X0034303Y0061399D01*
X0034384Y0061378D01*
X0034465Y0061354D01*
X0034543Y0061326D01*
X0034621Y0061294D01*
X0034697Y0061258D01*
X0034771Y0061219D01*
X0034843Y0061177D01*
X0034913Y0061131D01*
X0034981Y0061082D01*
X0035046Y0061030D01*
X0035109Y0060975D01*
X0035169Y0060917D01*
X0035227Y0060856D01*
X0035281Y0060792D01*
X0035333Y0060726D01*
X0035381Y0060658D01*
X0035426Y0060587D01*
X0035467Y0060514D01*
X0035506Y0060440D01*
X0035540Y0060364D01*
X0035571Y0060286D01*
X0035598Y0060207D01*
X0035622Y0060126D01*
X0035641Y0060045D01*
X0035657Y0059963D01*
X0035669Y0059880D01*
X0035677Y0059796D01*
X0035681Y0059713D01*
X0035681Y0059629D01*
X0035677Y0059546D01*
X0035669Y0059462D01*
X0035657Y0059379D01*
X0035641Y0059297D01*
X0035622Y0059216D01*
X0035598Y0059135D01*
X0035571Y0059056D01*
X0035540Y0058978D01*
X0035506Y0058902D01*
X0035467Y0058828D01*
X0035426Y0058755D01*
X0035381Y0058684D01*
X0035333Y0058616D01*
X0035281Y0058550D01*
X0035227Y0058486D01*
X0035169Y0058425D01*
X0035109Y0058367D01*
X0035046Y0058312D01*
X0034981Y0058260D01*
X0034913Y0058211D01*
X0034843Y0058165D01*
X0034771Y0058123D01*
X0034697Y0058084D01*
X0034621Y0058048D01*
X0034543Y0058016D01*
X0034465Y0057988D01*
X0034384Y0057964D01*
X0034303Y0057943D01*
X0034221Y0057927D01*
X0034139Y0057914D01*
X0034055Y0057905D01*
X0033972Y0057900D01*
X0033888Y0057899D01*
X0033804Y0057902D01*
X0033721Y0057909D01*
X0033638Y0057920D01*
X0033556Y0057935D01*
X0033474Y0057953D01*
X0033393Y0057976D01*
X0033314Y0058002D01*
X0033236Y0058032D01*
X0033159Y0058066D01*
X0033084Y0058103D01*
X0033011Y0058143D01*
X0032940Y0058188D01*
X0032871Y0058235D01*
X0032804Y0058286D01*
X0032740Y0058339D01*
X0032678Y0058396D01*
X0032620Y0058456D01*
X0032564Y0058518D01*
X0032511Y0058583D01*
X0032461Y0058650D01*
X0032414Y0058719D01*
X0032371Y0058791D01*
X0032331Y0058865D01*
X0032295Y0058940D01*
X0032262Y0059017D01*
X0032233Y0059096D01*
X0032208Y0059175D01*
X0032186Y0059256D01*
X0032169Y0059338D01*
X0032155Y0059421D01*
X0032145Y0059504D01*
X0032139Y0059587D01*
X0032137Y0059671D01*
X0044435Y0158887D02*
X0044437Y0158973D01*
X0044443Y0159060D01*
X0044453Y0159145D01*
X0044467Y0159231D01*
X0044485Y0159315D01*
X0044506Y0159399D01*
X0044532Y0159481D01*
X0044561Y0159563D01*
X0044594Y0159642D01*
X0044631Y0159721D01*
X0044671Y0159797D01*
X0044715Y0159871D01*
X0044762Y0159944D01*
X0044813Y0160014D01*
X0044866Y0160082D01*
X0044923Y0160147D01*
X0044983Y0160209D01*
X0045045Y0160269D01*
X0045110Y0160326D01*
X0045178Y0160379D01*
X0045248Y0160430D01*
X0045321Y0160477D01*
X0045395Y0160521D01*
X0045471Y0160561D01*
X0045550Y0160598D01*
X0045629Y0160631D01*
X0045711Y0160660D01*
X0045793Y0160686D01*
X0045877Y0160707D01*
X0045961Y0160725D01*
X0046047Y0160739D01*
X0046132Y0160749D01*
X0046219Y0160755D01*
X0046305Y0160757D01*
X0046391Y0160755D01*
X0046478Y0160749D01*
X0046563Y0160739D01*
X0046649Y0160725D01*
X0046733Y0160707D01*
X0046817Y0160686D01*
X0046899Y0160660D01*
X0046981Y0160631D01*
X0047060Y0160598D01*
X0047139Y0160561D01*
X0047215Y0160521D01*
X0047289Y0160477D01*
X0047362Y0160430D01*
X0047432Y0160379D01*
X0047500Y0160326D01*
X0047565Y0160269D01*
X0047627Y0160209D01*
X0047687Y0160147D01*
X0047744Y0160082D01*
X0047797Y0160014D01*
X0047848Y0159944D01*
X0047895Y0159871D01*
X0047939Y0159797D01*
X0047979Y0159721D01*
X0048016Y0159642D01*
X0048049Y0159563D01*
X0048078Y0159481D01*
X0048104Y0159399D01*
X0048125Y0159315D01*
X0048143Y0159231D01*
X0048157Y0159145D01*
X0048167Y0159060D01*
X0048173Y0158973D01*
X0048175Y0158887D01*
X0048173Y0158801D01*
X0048167Y0158714D01*
X0048157Y0158629D01*
X0048143Y0158543D01*
X0048125Y0158459D01*
X0048104Y0158375D01*
X0048078Y0158293D01*
X0048049Y0158211D01*
X0048016Y0158132D01*
X0047979Y0158053D01*
X0047939Y0157977D01*
X0047895Y0157903D01*
X0047848Y0157830D01*
X0047797Y0157760D01*
X0047744Y0157692D01*
X0047687Y0157627D01*
X0047627Y0157565D01*
X0047565Y0157505D01*
X0047500Y0157448D01*
X0047432Y0157395D01*
X0047362Y0157344D01*
X0047289Y0157297D01*
X0047215Y0157253D01*
X0047139Y0157213D01*
X0047060Y0157176D01*
X0046981Y0157143D01*
X0046899Y0157114D01*
X0046817Y0157088D01*
X0046733Y0157067D01*
X0046649Y0157049D01*
X0046563Y0157035D01*
X0046478Y0157025D01*
X0046391Y0157019D01*
X0046305Y0157017D01*
X0046219Y0157019D01*
X0046132Y0157025D01*
X0046047Y0157035D01*
X0045961Y0157049D01*
X0045877Y0157067D01*
X0045793Y0157088D01*
X0045711Y0157114D01*
X0045629Y0157143D01*
X0045550Y0157176D01*
X0045471Y0157213D01*
X0045395Y0157253D01*
X0045321Y0157297D01*
X0045248Y0157344D01*
X0045178Y0157395D01*
X0045110Y0157448D01*
X0045045Y0157505D01*
X0044983Y0157565D01*
X0044923Y0157627D01*
X0044866Y0157692D01*
X0044813Y0157760D01*
X0044762Y0157830D01*
X0044715Y0157903D01*
X0044671Y0157977D01*
X0044631Y0158053D01*
X0044594Y0158132D01*
X0044561Y0158211D01*
X0044532Y0158293D01*
X0044506Y0158375D01*
X0044485Y0158459D01*
X0044467Y0158543D01*
X0044453Y0158629D01*
X0044443Y0158714D01*
X0044437Y0158801D01*
X0044435Y0158887D01*
X0056246Y0158887D02*
X0056248Y0158973D01*
X0056254Y0159060D01*
X0056264Y0159145D01*
X0056278Y0159231D01*
X0056296Y0159315D01*
X0056317Y0159399D01*
X0056343Y0159481D01*
X0056372Y0159563D01*
X0056405Y0159642D01*
X0056442Y0159721D01*
X0056482Y0159797D01*
X0056526Y0159871D01*
X0056573Y0159944D01*
X0056624Y0160014D01*
X0056677Y0160082D01*
X0056734Y0160147D01*
X0056794Y0160209D01*
X0056856Y0160269D01*
X0056921Y0160326D01*
X0056989Y0160379D01*
X0057059Y0160430D01*
X0057132Y0160477D01*
X0057206Y0160521D01*
X0057282Y0160561D01*
X0057361Y0160598D01*
X0057440Y0160631D01*
X0057522Y0160660D01*
X0057604Y0160686D01*
X0057688Y0160707D01*
X0057772Y0160725D01*
X0057858Y0160739D01*
X0057943Y0160749D01*
X0058030Y0160755D01*
X0058116Y0160757D01*
X0058202Y0160755D01*
X0058289Y0160749D01*
X0058374Y0160739D01*
X0058460Y0160725D01*
X0058544Y0160707D01*
X0058628Y0160686D01*
X0058710Y0160660D01*
X0058792Y0160631D01*
X0058871Y0160598D01*
X0058950Y0160561D01*
X0059026Y0160521D01*
X0059100Y0160477D01*
X0059173Y0160430D01*
X0059243Y0160379D01*
X0059311Y0160326D01*
X0059376Y0160269D01*
X0059438Y0160209D01*
X0059498Y0160147D01*
X0059555Y0160082D01*
X0059608Y0160014D01*
X0059659Y0159944D01*
X0059706Y0159871D01*
X0059750Y0159797D01*
X0059790Y0159721D01*
X0059827Y0159642D01*
X0059860Y0159563D01*
X0059889Y0159481D01*
X0059915Y0159399D01*
X0059936Y0159315D01*
X0059954Y0159231D01*
X0059968Y0159145D01*
X0059978Y0159060D01*
X0059984Y0158973D01*
X0059986Y0158887D01*
X0059984Y0158801D01*
X0059978Y0158714D01*
X0059968Y0158629D01*
X0059954Y0158543D01*
X0059936Y0158459D01*
X0059915Y0158375D01*
X0059889Y0158293D01*
X0059860Y0158211D01*
X0059827Y0158132D01*
X0059790Y0158053D01*
X0059750Y0157977D01*
X0059706Y0157903D01*
X0059659Y0157830D01*
X0059608Y0157760D01*
X0059555Y0157692D01*
X0059498Y0157627D01*
X0059438Y0157565D01*
X0059376Y0157505D01*
X0059311Y0157448D01*
X0059243Y0157395D01*
X0059173Y0157344D01*
X0059100Y0157297D01*
X0059026Y0157253D01*
X0058950Y0157213D01*
X0058871Y0157176D01*
X0058792Y0157143D01*
X0058710Y0157114D01*
X0058628Y0157088D01*
X0058544Y0157067D01*
X0058460Y0157049D01*
X0058374Y0157035D01*
X0058289Y0157025D01*
X0058202Y0157019D01*
X0058116Y0157017D01*
X0058030Y0157019D01*
X0057943Y0157025D01*
X0057858Y0157035D01*
X0057772Y0157049D01*
X0057688Y0157067D01*
X0057604Y0157088D01*
X0057522Y0157114D01*
X0057440Y0157143D01*
X0057361Y0157176D01*
X0057282Y0157213D01*
X0057206Y0157253D01*
X0057132Y0157297D01*
X0057059Y0157344D01*
X0056989Y0157395D01*
X0056921Y0157448D01*
X0056856Y0157505D01*
X0056794Y0157565D01*
X0056734Y0157627D01*
X0056677Y0157692D01*
X0056624Y0157760D01*
X0056573Y0157830D01*
X0056526Y0157903D01*
X0056482Y0157977D01*
X0056442Y0158053D01*
X0056405Y0158132D01*
X0056372Y0158211D01*
X0056343Y0158293D01*
X0056317Y0158375D01*
X0056296Y0158459D01*
X0056278Y0158543D01*
X0056264Y0158629D01*
X0056254Y0158714D01*
X0056248Y0158801D01*
X0056246Y0158887D01*
D11*
X0005825Y0170571D02*
X0005825Y0007871D01*
X0197941Y0007871D01*
X0197941Y0170693D01*
X0005868Y0170693D01*
X0005825Y0170571D01*
X0005825Y0170129D02*
X0197941Y0170129D01*
X0197941Y0169131D02*
X0005825Y0169131D01*
X0005825Y0168132D02*
X0197941Y0168132D01*
X0197941Y0167134D02*
X0005825Y0167134D01*
X0005825Y0166135D02*
X0197941Y0166135D01*
X0197941Y0165137D02*
X0005825Y0165137D01*
X0005825Y0164138D02*
X0197941Y0164138D01*
X0197941Y0163140D02*
X0005825Y0163140D01*
X0005825Y0162141D02*
X0197941Y0162141D01*
X0197941Y0161143D02*
X0059213Y0161143D01*
X0059098Y0161257D02*
X0057135Y0161257D01*
X0055746Y0159869D01*
X0055746Y0157906D01*
X0057135Y0156517D01*
X0059098Y0156517D01*
X0060486Y0157906D01*
X0060486Y0159869D01*
X0059098Y0161257D01*
X0060211Y0160144D02*
X0197941Y0160144D01*
X0197941Y0159146D02*
X0060486Y0159146D01*
X0060486Y0158147D02*
X0197941Y0158147D01*
X0197941Y0157149D02*
X0059729Y0157149D01*
X0056503Y0157149D02*
X0047918Y0157149D01*
X0047287Y0156517D02*
X0045324Y0156517D01*
X0043935Y0157906D01*
X0043935Y0159869D01*
X0045324Y0161257D01*
X0047287Y0161257D01*
X0048675Y0159869D01*
X0048675Y0157906D01*
X0047287Y0156517D01*
X0048675Y0158147D02*
X0055746Y0158147D01*
X0055746Y0159146D02*
X0048675Y0159146D01*
X0048400Y0160144D02*
X0056021Y0160144D01*
X0057020Y0161143D02*
X0047402Y0161143D01*
X0045209Y0161143D02*
X0005825Y0161143D01*
X0005825Y0160144D02*
X0044210Y0160144D01*
X0043935Y0159146D02*
X0005825Y0159146D01*
X0005825Y0158147D02*
X0043935Y0158147D01*
X0044692Y0157149D02*
X0005825Y0157149D01*
X0005825Y0156150D02*
X0197941Y0156150D01*
X0197941Y0155152D02*
X0005825Y0155152D01*
X0005825Y0154153D02*
X0197941Y0154153D01*
X0197941Y0153154D02*
X0005825Y0153154D01*
X0005825Y0152156D02*
X0197941Y0152156D01*
X0197941Y0151157D02*
X0005825Y0151157D01*
X0005825Y0150159D02*
X0197941Y0150159D01*
X0197941Y0149160D02*
X0005825Y0149160D01*
X0005825Y0148162D02*
X0197941Y0148162D01*
X0197941Y0147163D02*
X0005825Y0147163D01*
X0005825Y0146165D02*
X0197941Y0146165D01*
X0197941Y0145166D02*
X0005825Y0145166D01*
X0005825Y0144168D02*
X0197941Y0144168D01*
X0197941Y0143169D02*
X0005825Y0143169D01*
X0005825Y0142171D02*
X0197941Y0142171D01*
X0197941Y0141172D02*
X0055339Y0141172D01*
X0055063Y0141286D02*
X0056015Y0140892D01*
X0056628Y0140279D01*
X0057921Y0140268D01*
X0058558Y0140283D01*
X0058580Y0140262D01*
X0058610Y0140262D01*
X0059056Y0139808D01*
X0060661Y0138276D01*
X0060684Y0138276D01*
X0061138Y0137821D01*
X0061604Y0137376D01*
X0061605Y0137354D01*
X0061621Y0137339D01*
X0061621Y0136695D01*
X0061636Y0136051D01*
X0061620Y0136035D01*
X0061613Y0092601D01*
X0072282Y0103269D01*
X0073219Y0104206D01*
X0093607Y0104206D01*
X0093916Y0104515D01*
X0093494Y0104937D01*
X0093100Y0105888D01*
X0093100Y0106918D01*
X0093494Y0107870D01*
X0094222Y0108598D01*
X0095174Y0108992D01*
X0096204Y0108992D01*
X0097155Y0108598D01*
X0097794Y0107959D01*
X0099048Y0107959D01*
X0099986Y0107022D01*
X0101479Y0105529D01*
X0101479Y0099602D01*
X0100541Y0098665D01*
X0098734Y0096857D01*
X0076063Y0096857D01*
X0071538Y0092332D01*
X0071538Y0086396D01*
X0071552Y0086410D01*
X0072503Y0086804D01*
X0073533Y0086804D01*
X0074485Y0086410D01*
X0075064Y0085830D01*
X0085511Y0085830D01*
X0087490Y0083851D01*
X0088369Y0082973D01*
X0088369Y0066311D01*
X0088372Y0066308D01*
X0088372Y0064806D01*
X0088808Y0065241D01*
X0089759Y0065635D01*
X0090789Y0065635D01*
X0091741Y0065241D01*
X0092469Y0064513D01*
X0092509Y0064416D01*
X0111311Y0064416D01*
X0117045Y0070150D01*
X0117045Y0094385D01*
X0116345Y0095085D01*
X0115951Y0096037D01*
X0115951Y0097067D01*
X0116345Y0098018D01*
X0117073Y0098747D01*
X0118025Y0099141D01*
X0119055Y0099141D01*
X0120006Y0098747D01*
X0120735Y0098018D01*
X0121129Y0097067D01*
X0121129Y0096037D01*
X0120735Y0095085D01*
X0120032Y0094383D01*
X0120032Y0068912D01*
X0119157Y0068037D01*
X0115536Y0064416D01*
X0117635Y0064416D01*
X0120588Y0067369D01*
X0120588Y0068351D01*
X0120983Y0069302D01*
X0121711Y0070030D01*
X0122662Y0070425D01*
X0123692Y0070425D01*
X0124644Y0070030D01*
X0125372Y0069302D01*
X0125766Y0068351D01*
X0125766Y0067321D01*
X0125372Y0066369D01*
X0124644Y0065641D01*
X0123692Y0065247D01*
X0122691Y0065247D01*
X0118872Y0061428D01*
X0112548Y0061428D01*
X0112543Y0061423D01*
X0111305Y0061423D01*
X0111300Y0061428D01*
X0092318Y0061428D01*
X0091741Y0060851D01*
X0090789Y0060457D01*
X0089759Y0060457D01*
X0088808Y0060851D01*
X0088079Y0061580D01*
X0087685Y0062531D01*
X0087685Y0062986D01*
X0084123Y0059424D01*
X0083244Y0058545D01*
X0082495Y0058545D01*
X0082684Y0058357D01*
X0129683Y0058357D01*
X0130986Y0057055D01*
X0131967Y0057055D01*
X0132919Y0056660D01*
X0133647Y0055932D01*
X0134041Y0054981D01*
X0134041Y0053951D01*
X0133647Y0052999D01*
X0132919Y0052271D01*
X0131967Y0051877D01*
X0130937Y0051877D01*
X0129986Y0052271D01*
X0129257Y0052999D01*
X0128863Y0053951D01*
X0128863Y0054652D01*
X0128358Y0055157D01*
X0082674Y0055157D01*
X0082389Y0054872D01*
X0082723Y0054538D01*
X0083602Y0053659D01*
X0083602Y0020624D01*
X0077869Y0014892D01*
X0076991Y0014013D01*
X0071320Y0014013D01*
X0070643Y0013336D01*
X0069691Y0012942D01*
X0068661Y0012942D01*
X0067710Y0013336D01*
X0066981Y0014065D01*
X0066587Y0015016D01*
X0066587Y0016046D01*
X0066981Y0016998D01*
X0067710Y0017726D01*
X0068661Y0018120D01*
X0069691Y0018120D01*
X0070643Y0017726D01*
X0071355Y0017013D01*
X0075748Y0017013D01*
X0080602Y0021867D01*
X0080602Y0052159D01*
X0077902Y0052159D01*
X0077024Y0053038D01*
X0075608Y0054454D01*
X0075608Y0054726D01*
X0074214Y0053333D01*
X0073892Y0052555D01*
X0073164Y0051826D01*
X0072212Y0051432D01*
X0071182Y0051432D01*
X0070230Y0051826D01*
X0069502Y0052555D01*
X0069108Y0053506D01*
X0069108Y0054536D01*
X0069319Y0055046D01*
X0065201Y0055046D01*
X0065201Y0054666D01*
X0064807Y0053714D01*
X0064078Y0052986D01*
X0063127Y0052592D01*
X0062097Y0052592D01*
X0061145Y0052986D01*
X0060417Y0053714D01*
X0060023Y0054666D01*
X0060023Y0055696D01*
X0060417Y0056647D01*
X0061145Y0057376D01*
X0062097Y0057770D01*
X0062934Y0057770D01*
X0063411Y0058246D01*
X0068461Y0058246D01*
X0067832Y0058876D01*
X0067437Y0059827D01*
X0067437Y0060719D01*
X0065501Y0062656D01*
X0063677Y0062656D01*
X0064143Y0062189D01*
X0064537Y0061237D01*
X0064537Y0060207D01*
X0064143Y0059256D01*
X0063415Y0058528D01*
X0062463Y0058133D01*
X0061434Y0058133D01*
X0060482Y0058528D01*
X0060014Y0058996D01*
X0057799Y0056781D01*
X0057799Y0053041D01*
X0058394Y0052446D01*
X0058788Y0051494D01*
X0058788Y0050464D01*
X0058394Y0049513D01*
X0057665Y0048784D01*
X0056714Y0048390D01*
X0055684Y0048390D01*
X0054732Y0048784D01*
X0054004Y0049513D01*
X0053654Y0050358D01*
X0053654Y0048357D01*
X0054773Y0047239D01*
X0054929Y0047395D01*
X0055881Y0047789D01*
X0056911Y0047789D01*
X0057862Y0047395D01*
X0058590Y0046667D01*
X0058985Y0045715D01*
X0058985Y0044685D01*
X0058590Y0043733D01*
X0057862Y0043005D01*
X0056911Y0042611D01*
X0055881Y0042611D01*
X0054929Y0043005D01*
X0054348Y0043586D01*
X0053899Y0043586D01*
X0051391Y0046094D01*
X0050454Y0047032D01*
X0050454Y0059090D01*
X0053887Y0062522D01*
X0053887Y0075731D01*
X0053277Y0076341D01*
X0052882Y0077292D01*
X0052882Y0078322D01*
X0053277Y0079274D01*
X0053869Y0079866D01*
X0053829Y0119133D01*
X0053829Y0119134D01*
X0053829Y0119793D01*
X0053828Y0120458D01*
X0053829Y0120459D01*
X0053829Y0127939D01*
X0051246Y0130531D01*
X0038881Y0130530D01*
X0038223Y0130529D01*
X0038223Y0130530D01*
X0038222Y0130530D01*
X0037753Y0130998D01*
X0035406Y0133341D01*
X0035377Y0133342D01*
X0034939Y0133806D01*
X0034488Y0134257D01*
X0034488Y0134285D01*
X0034468Y0134306D01*
X0034487Y0134944D01*
X0034486Y0135582D01*
X0034506Y0135603D01*
X0034510Y0135722D01*
X0033975Y0136257D01*
X0033580Y0137208D01*
X0033580Y0138238D01*
X0033975Y0139190D01*
X0034703Y0139918D01*
X0035654Y0140312D01*
X0036684Y0140312D01*
X0037636Y0139918D01*
X0038364Y0139190D01*
X0038758Y0138238D01*
X0038758Y0137208D01*
X0038364Y0136257D01*
X0037707Y0135600D01*
X0037706Y0135566D01*
X0039546Y0133730D01*
X0051250Y0133731D01*
X0051251Y0133732D01*
X0051907Y0133731D01*
X0052573Y0133731D01*
X0052575Y0133730D01*
X0052576Y0133730D01*
X0053040Y0133265D01*
X0053511Y0132794D01*
X0053511Y0132792D01*
X0056559Y0129732D01*
X0057029Y0129263D01*
X0057029Y0129262D01*
X0057030Y0129260D01*
X0057029Y0128599D01*
X0057029Y0119796D01*
X0057069Y0079871D01*
X0057666Y0079274D01*
X0058060Y0078322D01*
X0058060Y0077292D01*
X0057666Y0076341D01*
X0057087Y0075761D01*
X0057087Y0061197D01*
X0056149Y0060260D01*
X0053654Y0057764D01*
X0053654Y0051601D01*
X0054004Y0052446D01*
X0054599Y0053041D01*
X0054599Y0058106D01*
X0057847Y0061354D01*
X0058784Y0062291D01*
X0059856Y0062291D01*
X0060482Y0062917D01*
X0060555Y0062947D01*
X0059910Y0063593D01*
X0058417Y0065086D01*
X0058417Y0079179D01*
X0058420Y0079182D01*
X0058413Y0086551D01*
X0058413Y0086552D01*
X0058413Y0087224D01*
X0058412Y0087876D01*
X0058413Y0087877D01*
X0058420Y0135991D01*
X0057286Y0137073D01*
X0056592Y0137079D01*
X0056015Y0136503D01*
X0055063Y0136108D01*
X0054033Y0136108D01*
X0053082Y0136503D01*
X0052354Y0137231D01*
X0051959Y0138182D01*
X0051959Y0139212D01*
X0052354Y0140164D01*
X0053082Y0140892D01*
X0054033Y0141286D01*
X0055063Y0141286D01*
X0053758Y0141172D02*
X0005825Y0141172D01*
X0005825Y0140174D02*
X0035320Y0140174D01*
X0033969Y0139175D02*
X0005825Y0139175D01*
X0005825Y0138177D02*
X0033580Y0138177D01*
X0033593Y0137178D02*
X0005825Y0137178D01*
X0005825Y0136180D02*
X0034051Y0136180D01*
X0034487Y0135181D02*
X0005825Y0135181D01*
X0005825Y0134183D02*
X0034562Y0134183D01*
X0035563Y0133184D02*
X0005825Y0133184D01*
X0005825Y0132186D02*
X0036563Y0132186D01*
X0037564Y0131187D02*
X0005825Y0131187D01*
X0005825Y0130189D02*
X0051587Y0130189D01*
X0052582Y0129190D02*
X0005825Y0129190D01*
X0005825Y0128192D02*
X0053577Y0128192D01*
X0053829Y0127193D02*
X0005825Y0127193D01*
X0005825Y0126195D02*
X0053829Y0126195D01*
X0053829Y0125196D02*
X0005825Y0125196D01*
X0005825Y0124198D02*
X0053829Y0124198D01*
X0053829Y0123199D02*
X0005825Y0123199D01*
X0005825Y0122201D02*
X0053829Y0122201D01*
X0053829Y0121202D02*
X0005825Y0121202D01*
X0005825Y0120204D02*
X0053828Y0120204D01*
X0053829Y0119205D02*
X0005825Y0119205D01*
X0005825Y0118207D02*
X0053830Y0118207D01*
X0053831Y0117208D02*
X0005825Y0117208D01*
X0005825Y0116210D02*
X0053832Y0116210D01*
X0053833Y0115211D02*
X0005825Y0115211D01*
X0005825Y0114213D02*
X0053834Y0114213D01*
X0053835Y0113214D02*
X0005825Y0113214D01*
X0005825Y0112216D02*
X0053836Y0112216D01*
X0053837Y0111217D02*
X0005825Y0111217D01*
X0005825Y0110219D02*
X0053838Y0110219D01*
X0053839Y0109220D02*
X0005825Y0109220D01*
X0005825Y0108221D02*
X0053840Y0108221D01*
X0053841Y0107223D02*
X0005825Y0107223D01*
X0005825Y0106224D02*
X0053842Y0106224D01*
X0053843Y0105226D02*
X0005825Y0105226D01*
X0005825Y0104227D02*
X0053844Y0104227D01*
X0053845Y0103229D02*
X0005825Y0103229D01*
X0005825Y0102230D02*
X0053846Y0102230D01*
X0053848Y0101232D02*
X0005825Y0101232D01*
X0005825Y0100233D02*
X0053849Y0100233D01*
X0053850Y0099235D02*
X0005825Y0099235D01*
X0005825Y0098236D02*
X0053851Y0098236D01*
X0053852Y0097238D02*
X0005825Y0097238D01*
X0005825Y0096239D02*
X0053853Y0096239D01*
X0053854Y0095241D02*
X0005825Y0095241D01*
X0005825Y0094242D02*
X0053855Y0094242D01*
X0053856Y0093244D02*
X0005825Y0093244D01*
X0005825Y0092245D02*
X0053857Y0092245D01*
X0053858Y0091247D02*
X0005825Y0091247D01*
X0005825Y0090248D02*
X0053859Y0090248D01*
X0053860Y0089250D02*
X0005825Y0089250D01*
X0005825Y0088251D02*
X0053861Y0088251D01*
X0053862Y0087253D02*
X0005825Y0087253D01*
X0005825Y0086254D02*
X0053863Y0086254D01*
X0053864Y0085256D02*
X0005825Y0085256D01*
X0005825Y0084257D02*
X0053865Y0084257D01*
X0053866Y0083259D02*
X0005825Y0083259D01*
X0005825Y0082260D02*
X0053867Y0082260D01*
X0053868Y0081262D02*
X0005825Y0081262D01*
X0005825Y0080263D02*
X0053869Y0080263D01*
X0053273Y0079265D02*
X0005825Y0079265D01*
X0005825Y0078266D02*
X0052882Y0078266D01*
X0052893Y0077268D02*
X0005825Y0077268D01*
X0005825Y0076269D02*
X0053348Y0076269D01*
X0053887Y0075271D02*
X0005825Y0075271D01*
X0005825Y0074272D02*
X0053887Y0074272D01*
X0053887Y0073274D02*
X0005825Y0073274D01*
X0005825Y0072275D02*
X0053887Y0072275D01*
X0053887Y0071277D02*
X0005825Y0071277D01*
X0005825Y0070278D02*
X0053887Y0070278D01*
X0053887Y0069280D02*
X0005825Y0069280D01*
X0005825Y0068281D02*
X0053887Y0068281D01*
X0053887Y0067283D02*
X0005825Y0067283D01*
X0005825Y0066284D02*
X0053887Y0066284D01*
X0053887Y0065285D02*
X0005825Y0065285D01*
X0005825Y0064287D02*
X0053887Y0064287D01*
X0053887Y0063288D02*
X0005825Y0063288D01*
X0005825Y0062290D02*
X0053654Y0062290D01*
X0052656Y0061291D02*
X0035502Y0061291D01*
X0034850Y0061943D02*
X0036181Y0060612D01*
X0036181Y0058730D01*
X0034850Y0057400D01*
X0032968Y0057400D01*
X0031638Y0058730D01*
X0031638Y0060612D01*
X0032968Y0061943D01*
X0034850Y0061943D01*
X0036181Y0060293D02*
X0051657Y0060293D01*
X0050659Y0059294D02*
X0036181Y0059294D01*
X0035747Y0058296D02*
X0050454Y0058296D01*
X0050454Y0057297D02*
X0005825Y0057297D01*
X0005825Y0056299D02*
X0050454Y0056299D01*
X0050454Y0055300D02*
X0005825Y0055300D01*
X0005825Y0054302D02*
X0050454Y0054302D01*
X0050454Y0053303D02*
X0005825Y0053303D01*
X0005825Y0052305D02*
X0050454Y0052305D01*
X0050454Y0051306D02*
X0005825Y0051306D01*
X0005825Y0050308D02*
X0050454Y0050308D01*
X0050454Y0049309D02*
X0005825Y0049309D01*
X0005825Y0048311D02*
X0050454Y0048311D01*
X0050454Y0047312D02*
X0005825Y0047312D01*
X0005825Y0046314D02*
X0051172Y0046314D01*
X0052170Y0045315D02*
X0005825Y0045315D01*
X0005825Y0044317D02*
X0032665Y0044317D01*
X0032968Y0044620D02*
X0031638Y0043290D01*
X0031638Y0041408D01*
X0032968Y0040077D01*
X0034850Y0040077D01*
X0036181Y0041408D01*
X0036181Y0043290D01*
X0034850Y0044620D01*
X0032968Y0044620D01*
X0031666Y0043318D02*
X0005825Y0043318D01*
X0005825Y0042320D02*
X0031638Y0042320D01*
X0031724Y0041321D02*
X0005825Y0041321D01*
X0005825Y0040323D02*
X0032723Y0040323D01*
X0035096Y0040323D02*
X0080602Y0040323D01*
X0080602Y0041321D02*
X0036095Y0041321D01*
X0036181Y0042320D02*
X0080602Y0042320D01*
X0080602Y0043318D02*
X0058175Y0043318D01*
X0058832Y0044317D02*
X0080602Y0044317D01*
X0080602Y0045315D02*
X0058985Y0045315D01*
X0058737Y0046314D02*
X0080602Y0046314D01*
X0080602Y0047312D02*
X0057945Y0047312D01*
X0058190Y0049309D02*
X0080602Y0049309D01*
X0080602Y0048311D02*
X0053700Y0048311D01*
X0053654Y0049309D02*
X0054208Y0049309D01*
X0053675Y0050308D02*
X0053654Y0050308D01*
X0053654Y0052305D02*
X0053946Y0052305D01*
X0053654Y0053303D02*
X0054599Y0053303D01*
X0054599Y0054302D02*
X0053654Y0054302D01*
X0053654Y0055300D02*
X0054599Y0055300D01*
X0054599Y0056299D02*
X0053654Y0056299D01*
X0053654Y0057297D02*
X0054599Y0057297D01*
X0054789Y0058296D02*
X0054186Y0058296D01*
X0055184Y0059294D02*
X0055787Y0059294D01*
X0056183Y0060293D02*
X0056786Y0060293D01*
X0057087Y0061291D02*
X0057784Y0061291D01*
X0057087Y0062290D02*
X0058783Y0062290D01*
X0059447Y0060691D02*
X0061905Y0060691D01*
X0059447Y0060691D02*
X0056199Y0057443D01*
X0056199Y0051027D01*
X0057799Y0053303D02*
X0060828Y0053303D01*
X0060173Y0054302D02*
X0057799Y0054302D01*
X0057799Y0055300D02*
X0060023Y0055300D01*
X0060273Y0056299D02*
X0057799Y0056299D01*
X0058316Y0057297D02*
X0061067Y0057297D01*
X0061041Y0058296D02*
X0059314Y0058296D01*
X0062856Y0058296D02*
X0068411Y0058296D01*
X0067658Y0059294D02*
X0064159Y0059294D01*
X0064537Y0060293D02*
X0067437Y0060293D01*
X0066865Y0061291D02*
X0064515Y0061291D01*
X0064042Y0062290D02*
X0065866Y0062290D01*
X0066163Y0064256D02*
X0069997Y0060422D01*
X0073191Y0059327D02*
X0073191Y0064159D01*
X0070914Y0066403D01*
X0063517Y0066426D01*
X0062376Y0067566D01*
X0062376Y0091101D01*
X0073882Y0102606D01*
X0095608Y0102606D01*
X0093628Y0104227D02*
X0061615Y0104227D01*
X0061615Y0103229D02*
X0072242Y0103229D01*
X0071243Y0102230D02*
X0061615Y0102230D01*
X0061615Y0101232D02*
X0070245Y0101232D01*
X0069246Y0100233D02*
X0061615Y0100233D01*
X0061615Y0099235D02*
X0068248Y0099235D01*
X0067249Y0098236D02*
X0061614Y0098236D01*
X0061614Y0097238D02*
X0066251Y0097238D01*
X0065252Y0096239D02*
X0061614Y0096239D01*
X0061614Y0095241D02*
X0064254Y0095241D01*
X0063255Y0094242D02*
X0061614Y0094242D01*
X0061614Y0093244D02*
X0062257Y0093244D01*
X0058414Y0093244D02*
X0057056Y0093244D01*
X0057055Y0094242D02*
X0058414Y0094242D01*
X0058414Y0095241D02*
X0057054Y0095241D01*
X0057053Y0096239D02*
X0058414Y0096239D01*
X0058414Y0097238D02*
X0057052Y0097238D01*
X0057051Y0098236D02*
X0058414Y0098236D01*
X0058415Y0099235D02*
X0057050Y0099235D01*
X0057049Y0100233D02*
X0058415Y0100233D01*
X0058415Y0101232D02*
X0057048Y0101232D01*
X0057046Y0102230D02*
X0058415Y0102230D01*
X0058415Y0103229D02*
X0057045Y0103229D01*
X0057044Y0104227D02*
X0058415Y0104227D01*
X0058416Y0105226D02*
X0057043Y0105226D01*
X0057042Y0106224D02*
X0058416Y0106224D01*
X0058416Y0107223D02*
X0057041Y0107223D01*
X0057040Y0108221D02*
X0058416Y0108221D01*
X0058416Y0109220D02*
X0057039Y0109220D01*
X0057038Y0110219D02*
X0058416Y0110219D01*
X0058416Y0111217D02*
X0057037Y0111217D01*
X0057036Y0112216D02*
X0058417Y0112216D01*
X0058417Y0113214D02*
X0057035Y0113214D01*
X0057034Y0114213D02*
X0058417Y0114213D01*
X0058417Y0115211D02*
X0057033Y0115211D01*
X0057032Y0116210D02*
X0058417Y0116210D01*
X0058417Y0117208D02*
X0057031Y0117208D01*
X0057030Y0118207D02*
X0058418Y0118207D01*
X0058418Y0119205D02*
X0057029Y0119205D01*
X0057029Y0120204D02*
X0058418Y0120204D01*
X0058418Y0121202D02*
X0057029Y0121202D01*
X0057029Y0122201D02*
X0058418Y0122201D01*
X0058418Y0123199D02*
X0057029Y0123199D01*
X0057029Y0124198D02*
X0058419Y0124198D01*
X0058419Y0125196D02*
X0057029Y0125196D01*
X0057029Y0126195D02*
X0058419Y0126195D01*
X0058419Y0127193D02*
X0057029Y0127193D01*
X0057029Y0128192D02*
X0058419Y0128192D01*
X0058419Y0129190D02*
X0057030Y0129190D01*
X0056105Y0130189D02*
X0058420Y0130189D01*
X0058420Y0131187D02*
X0055110Y0131187D01*
X0054115Y0132186D02*
X0058420Y0132186D01*
X0058420Y0133184D02*
X0053120Y0133184D01*
X0051911Y0132131D02*
X0055429Y0128601D01*
X0055429Y0119797D01*
X0055471Y0077807D01*
X0055487Y0077793D02*
X0055487Y0061860D01*
X0052054Y0058427D01*
X0052054Y0047694D01*
X0054562Y0045186D01*
X0056377Y0045186D01*
X0054616Y0043318D02*
X0036152Y0043318D01*
X0035154Y0044317D02*
X0053169Y0044317D01*
X0054699Y0047312D02*
X0054846Y0047312D01*
X0058723Y0050308D02*
X0080602Y0050308D01*
X0080602Y0051306D02*
X0058788Y0051306D01*
X0058452Y0052305D02*
X0069752Y0052305D01*
X0069192Y0053303D02*
X0064396Y0053303D01*
X0065050Y0054302D02*
X0069108Y0054302D01*
X0071690Y0054069D02*
X0072687Y0054069D01*
X0075253Y0056635D01*
X0075253Y0066716D01*
X0070299Y0071670D01*
X0070299Y0075369D01*
X0074080Y0079151D01*
X0077455Y0079151D01*
X0077520Y0075619D02*
X0077520Y0069599D01*
X0077322Y0069401D01*
X0086989Y0062290D02*
X0087785Y0062290D01*
X0088368Y0061291D02*
X0085990Y0061291D01*
X0084992Y0060293D02*
X0137723Y0060293D01*
X0137573Y0060656D02*
X0137967Y0059704D01*
X0138696Y0058976D01*
X0139647Y0058582D01*
X0140677Y0058582D01*
X0141629Y0058976D01*
X0142357Y0059704D01*
X0142751Y0060656D01*
X0142751Y0061063D01*
X0143001Y0060813D01*
X0143953Y0060419D01*
X0144983Y0060419D01*
X0145934Y0060813D01*
X0146663Y0061541D01*
X0147057Y0062493D01*
X0147057Y0063523D01*
X0146663Y0064475D01*
X0146066Y0065071D01*
X0146064Y0067850D01*
X0146064Y0068509D01*
X0146064Y0068510D01*
X0146064Y0068510D01*
X0145595Y0068979D01*
X0134021Y0080552D01*
X0134021Y0081498D01*
X0133627Y0082450D01*
X0132899Y0083178D01*
X0131947Y0083572D01*
X0130917Y0083572D01*
X0129966Y0083178D01*
X0129238Y0082450D01*
X0128866Y0081553D01*
X0128475Y0081715D01*
X0127445Y0081715D01*
X0126493Y0081321D01*
X0125765Y0080593D01*
X0125371Y0079641D01*
X0125371Y0078611D01*
X0125765Y0077660D01*
X0126493Y0076932D01*
X0127445Y0076537D01*
X0127912Y0076537D01*
X0138562Y0065887D01*
X0138562Y0063232D01*
X0137967Y0062637D01*
X0137573Y0061686D01*
X0137573Y0060656D01*
X0137573Y0061291D02*
X0092181Y0061291D01*
X0091633Y0065285D02*
X0112180Y0065285D01*
X0113179Y0066284D02*
X0088372Y0066284D01*
X0088372Y0065285D02*
X0088915Y0065285D01*
X0088369Y0067283D02*
X0114178Y0067283D01*
X0115176Y0068281D02*
X0088369Y0068281D01*
X0088369Y0069280D02*
X0116175Y0069280D01*
X0117045Y0070278D02*
X0088369Y0070278D01*
X0088369Y0071277D02*
X0117045Y0071277D01*
X0117045Y0072275D02*
X0088369Y0072275D01*
X0088369Y0073274D02*
X0117045Y0073274D01*
X0117045Y0074272D02*
X0088369Y0074272D01*
X0088369Y0075271D02*
X0117045Y0075271D01*
X0117045Y0076269D02*
X0088369Y0076269D01*
X0088369Y0077268D02*
X0117045Y0077268D01*
X0117045Y0078266D02*
X0088369Y0078266D01*
X0088369Y0079265D02*
X0117045Y0079265D01*
X0117045Y0080263D02*
X0088369Y0080263D01*
X0088369Y0081262D02*
X0117045Y0081262D01*
X0117045Y0082260D02*
X0088369Y0082260D01*
X0088082Y0083259D02*
X0117045Y0083259D01*
X0117045Y0084257D02*
X0087084Y0084257D01*
X0086085Y0085256D02*
X0117045Y0085256D01*
X0117045Y0086254D02*
X0074640Y0086254D01*
X0071538Y0087253D02*
X0117045Y0087253D01*
X0117045Y0088251D02*
X0071538Y0088251D01*
X0071538Y0089250D02*
X0117045Y0089250D01*
X0117045Y0090248D02*
X0071538Y0090248D01*
X0071538Y0091247D02*
X0117045Y0091247D01*
X0117045Y0092245D02*
X0071538Y0092245D01*
X0072450Y0093244D02*
X0117045Y0093244D01*
X0117045Y0094242D02*
X0073448Y0094242D01*
X0074447Y0095241D02*
X0116280Y0095241D01*
X0115951Y0096239D02*
X0075445Y0096239D01*
X0075400Y0098457D02*
X0098071Y0098457D01*
X0099879Y0100265D01*
X0099879Y0104867D01*
X0098386Y0106360D01*
X0095731Y0106360D01*
X0097532Y0108221D02*
X0174137Y0108221D01*
X0174137Y0107223D02*
X0099785Y0107223D01*
X0100783Y0106224D02*
X0174137Y0106224D01*
X0174137Y0105226D02*
X0101479Y0105226D01*
X0101479Y0104227D02*
X0174137Y0104227D01*
X0174137Y0103229D02*
X0111433Y0103229D01*
X0111111Y0103362D02*
X0112063Y0102968D01*
X0112791Y0102240D01*
X0113185Y0101288D01*
X0113185Y0100258D01*
X0112791Y0099306D01*
X0112063Y0098578D01*
X0111111Y0098184D01*
X0110081Y0098184D01*
X0109130Y0098578D01*
X0108402Y0099306D01*
X0108008Y0100258D01*
X0108008Y0101288D01*
X0108402Y0102240D01*
X0109130Y0102968D01*
X0110081Y0103362D01*
X0111111Y0103362D01*
X0109760Y0103229D02*
X0101479Y0103229D01*
X0101479Y0102230D02*
X0108398Y0102230D01*
X0108008Y0101232D02*
X0101479Y0101232D01*
X0101479Y0100233D02*
X0108018Y0100233D01*
X0108473Y0099235D02*
X0101112Y0099235D01*
X0100113Y0098236D02*
X0109955Y0098236D01*
X0111238Y0098236D02*
X0116563Y0098236D01*
X0116022Y0097238D02*
X0099115Y0097238D01*
X0093374Y0105226D02*
X0061615Y0105226D01*
X0061616Y0106224D02*
X0093100Y0106224D01*
X0093226Y0107223D02*
X0061616Y0107223D01*
X0061616Y0108221D02*
X0093846Y0108221D01*
X0085041Y0110335D02*
X0084647Y0109384D01*
X0083919Y0108655D01*
X0082967Y0108261D01*
X0081937Y0108261D01*
X0080986Y0108655D01*
X0080485Y0109156D01*
X0073528Y0109156D01*
X0072533Y0110152D01*
X0068556Y0114128D01*
X0068059Y0114616D01*
X0068059Y0114625D01*
X0068053Y0114632D01*
X0068053Y0115328D01*
X0067999Y0121344D01*
X0067356Y0121986D01*
X0066962Y0122938D01*
X0066962Y0123968D01*
X0067356Y0124919D01*
X0068085Y0125647D01*
X0069036Y0126042D01*
X0070066Y0126042D01*
X0071018Y0125647D01*
X0071746Y0124919D01*
X0072140Y0123968D01*
X0072140Y0122938D01*
X0071746Y0121986D01*
X0071396Y0121636D01*
X0071447Y0116046D01*
X0074937Y0112556D01*
X0080497Y0112556D01*
X0080986Y0113045D01*
X0081937Y0113439D01*
X0082967Y0113439D01*
X0083919Y0113045D01*
X0084647Y0112317D01*
X0085041Y0111365D01*
X0085041Y0110335D01*
X0084993Y0110219D02*
X0174137Y0110219D01*
X0174137Y0111217D02*
X0085041Y0111217D01*
X0084689Y0112216D02*
X0174137Y0112216D01*
X0174137Y0113214D02*
X0083511Y0113214D01*
X0081394Y0113214D02*
X0074279Y0113214D01*
X0073280Y0114213D02*
X0174137Y0114213D01*
X0174137Y0114814D02*
X0174137Y0091289D01*
X0170024Y0087176D01*
X0154916Y0087176D01*
X0154322Y0087770D01*
X0153370Y0088164D01*
X0152340Y0088164D01*
X0151389Y0087770D01*
X0150660Y0087042D01*
X0150266Y0086090D01*
X0150266Y0085060D01*
X0150660Y0084109D01*
X0151389Y0083381D01*
X0152340Y0082986D01*
X0153370Y0082986D01*
X0154322Y0083381D01*
X0154917Y0083976D01*
X0171349Y0083976D01*
X0176399Y0089026D01*
X0177336Y0089964D01*
X0177336Y0113489D01*
X0183136Y0119289D01*
X0183136Y0122215D01*
X0183733Y0122812D01*
X0184127Y0123763D01*
X0184127Y0124793D01*
X0183733Y0125745D01*
X0183005Y0126473D01*
X0182053Y0126867D01*
X0181023Y0126867D01*
X0180072Y0126473D01*
X0179343Y0125745D01*
X0178949Y0124793D01*
X0178949Y0123763D01*
X0179343Y0122812D01*
X0179937Y0122218D01*
X0179937Y0120614D01*
X0174137Y0114814D01*
X0174534Y0115211D02*
X0072282Y0115211D01*
X0071445Y0116210D02*
X0175532Y0116210D01*
X0176531Y0117208D02*
X0071436Y0117208D01*
X0071427Y0118207D02*
X0177529Y0118207D01*
X0178528Y0119205D02*
X0071418Y0119205D01*
X0071409Y0120204D02*
X0179526Y0120204D01*
X0179937Y0121202D02*
X0071400Y0121202D01*
X0071835Y0122201D02*
X0179937Y0122201D01*
X0179183Y0123199D02*
X0072140Y0123199D01*
X0072045Y0124198D02*
X0178949Y0124198D01*
X0179116Y0125196D02*
X0071469Y0125196D01*
X0067633Y0125196D02*
X0061619Y0125196D01*
X0061619Y0124198D02*
X0067057Y0124198D01*
X0066962Y0123199D02*
X0061618Y0123199D01*
X0061618Y0122201D02*
X0067267Y0122201D01*
X0068000Y0121202D02*
X0061618Y0121202D01*
X0061618Y0120204D02*
X0068009Y0120204D01*
X0068018Y0119205D02*
X0061618Y0119205D01*
X0061618Y0118207D02*
X0068027Y0118207D01*
X0068036Y0117208D02*
X0061617Y0117208D01*
X0061617Y0116210D02*
X0068045Y0116210D01*
X0068053Y0115211D02*
X0061617Y0115211D01*
X0061617Y0114213D02*
X0068470Y0114213D01*
X0069470Y0113214D02*
X0061617Y0113214D01*
X0061617Y0112216D02*
X0070469Y0112216D01*
X0071467Y0111217D02*
X0061616Y0111217D01*
X0061616Y0110219D02*
X0072466Y0110219D01*
X0073464Y0109220D02*
X0061616Y0109220D01*
X0075400Y0098457D02*
X0069938Y0092995D01*
X0069938Y0078952D01*
X0066652Y0075666D01*
X0060017Y0078516D02*
X0060017Y0065749D01*
X0061510Y0064256D01*
X0066163Y0064256D01*
X0060214Y0063288D02*
X0057087Y0063288D01*
X0057087Y0064287D02*
X0059216Y0064287D01*
X0058417Y0065285D02*
X0057087Y0065285D01*
X0057087Y0066284D02*
X0058417Y0066284D01*
X0058417Y0067283D02*
X0057087Y0067283D01*
X0057087Y0068281D02*
X0058417Y0068281D01*
X0058417Y0069280D02*
X0057087Y0069280D01*
X0057087Y0070278D02*
X0058417Y0070278D01*
X0058417Y0071277D02*
X0057087Y0071277D01*
X0057087Y0072275D02*
X0058417Y0072275D01*
X0058417Y0073274D02*
X0057087Y0073274D01*
X0057087Y0074272D02*
X0058417Y0074272D01*
X0058417Y0075271D02*
X0057087Y0075271D01*
X0057595Y0076269D02*
X0058417Y0076269D01*
X0058417Y0077268D02*
X0058050Y0077268D01*
X0058060Y0078266D02*
X0058417Y0078266D01*
X0058420Y0079265D02*
X0057670Y0079265D01*
X0057069Y0080263D02*
X0058419Y0080263D01*
X0058418Y0081262D02*
X0057068Y0081262D01*
X0057067Y0082260D02*
X0058417Y0082260D01*
X0058416Y0083259D02*
X0057066Y0083259D01*
X0057065Y0084257D02*
X0058415Y0084257D01*
X0058414Y0085256D02*
X0057064Y0085256D01*
X0057063Y0086254D02*
X0058413Y0086254D01*
X0058413Y0087253D02*
X0057062Y0087253D01*
X0057061Y0088251D02*
X0058413Y0088251D01*
X0058413Y0089250D02*
X0057060Y0089250D01*
X0057059Y0090248D02*
X0058413Y0090248D01*
X0058413Y0091247D02*
X0057058Y0091247D01*
X0057057Y0092245D02*
X0058413Y0092245D01*
X0060013Y0087215D02*
X0060020Y0078540D01*
X0060013Y0087215D02*
X0060021Y0136676D01*
X0057933Y0138668D01*
X0054548Y0138697D01*
X0053861Y0136180D02*
X0038287Y0136180D01*
X0038092Y0135181D02*
X0058420Y0135181D01*
X0058420Y0134183D02*
X0039092Y0134183D01*
X0038884Y0132130D02*
X0036087Y0134921D01*
X0036169Y0137723D01*
X0038758Y0138177D02*
X0051962Y0138177D01*
X0051959Y0139175D02*
X0038370Y0139175D01*
X0037018Y0140174D02*
X0052364Y0140174D01*
X0052406Y0137178D02*
X0038746Y0137178D01*
X0038884Y0132130D02*
X0051911Y0132131D01*
X0055236Y0136180D02*
X0058223Y0136180D01*
X0059719Y0139175D02*
X0197941Y0139175D01*
X0197941Y0138177D02*
X0060783Y0138177D01*
X0061621Y0137178D02*
X0197941Y0137178D01*
X0197941Y0136180D02*
X0061633Y0136180D01*
X0061620Y0135181D02*
X0197941Y0135181D01*
X0197941Y0134183D02*
X0061620Y0134183D01*
X0061620Y0133184D02*
X0197941Y0133184D01*
X0197941Y0132186D02*
X0061620Y0132186D01*
X0061620Y0131187D02*
X0197941Y0131187D01*
X0197941Y0130189D02*
X0061619Y0130189D01*
X0061619Y0129190D02*
X0197941Y0129190D01*
X0197941Y0128192D02*
X0061619Y0128192D01*
X0061619Y0127193D02*
X0197941Y0127193D01*
X0197941Y0126195D02*
X0183283Y0126195D01*
X0183960Y0125196D02*
X0197941Y0125196D01*
X0197941Y0124198D02*
X0184127Y0124198D01*
X0183894Y0123199D02*
X0197941Y0123199D01*
X0197941Y0122201D02*
X0183136Y0122201D01*
X0183136Y0121202D02*
X0197941Y0121202D01*
X0197941Y0120204D02*
X0183136Y0120204D01*
X0183053Y0119205D02*
X0197941Y0119205D01*
X0197941Y0118207D02*
X0182055Y0118207D01*
X0181056Y0117208D02*
X0197941Y0117208D01*
X0197941Y0116210D02*
X0180058Y0116210D01*
X0179059Y0115211D02*
X0197941Y0115211D01*
X0197941Y0114213D02*
X0178060Y0114213D01*
X0177336Y0113214D02*
X0197941Y0113214D01*
X0197941Y0112216D02*
X0177336Y0112216D01*
X0177336Y0111217D02*
X0197941Y0111217D01*
X0197941Y0110219D02*
X0177336Y0110219D01*
X0177336Y0109220D02*
X0197941Y0109220D01*
X0197941Y0108221D02*
X0177336Y0108221D01*
X0177336Y0107223D02*
X0197941Y0107223D01*
X0197941Y0106224D02*
X0177336Y0106224D01*
X0177336Y0105226D02*
X0197941Y0105226D01*
X0197941Y0104227D02*
X0177336Y0104227D01*
X0177336Y0103229D02*
X0197941Y0103229D01*
X0197941Y0102230D02*
X0177336Y0102230D01*
X0177336Y0101232D02*
X0197941Y0101232D01*
X0197941Y0100233D02*
X0177336Y0100233D01*
X0177336Y0099235D02*
X0197941Y0099235D01*
X0197941Y0098236D02*
X0177336Y0098236D01*
X0177336Y0097238D02*
X0197941Y0097238D01*
X0197941Y0096239D02*
X0177336Y0096239D01*
X0177336Y0095241D02*
X0197941Y0095241D01*
X0197941Y0094242D02*
X0177336Y0094242D01*
X0177336Y0093244D02*
X0197941Y0093244D01*
X0197941Y0092245D02*
X0177336Y0092245D01*
X0177336Y0091247D02*
X0197941Y0091247D01*
X0197941Y0090248D02*
X0177336Y0090248D01*
X0176623Y0089250D02*
X0197941Y0089250D01*
X0197941Y0088251D02*
X0175624Y0088251D01*
X0174626Y0087253D02*
X0197941Y0087253D01*
X0197941Y0086254D02*
X0173627Y0086254D01*
X0172629Y0085256D02*
X0197941Y0085256D01*
X0197941Y0084257D02*
X0171630Y0084257D01*
X0170687Y0085576D02*
X0175737Y0090626D01*
X0175737Y0114151D01*
X0181537Y0119951D01*
X0181537Y0124226D01*
X0179794Y0126195D02*
X0061619Y0126195D01*
X0058696Y0140174D02*
X0197941Y0140174D01*
X0174137Y0109220D02*
X0084483Y0109220D01*
X0112795Y0102230D02*
X0174137Y0102230D01*
X0174137Y0101232D02*
X0113185Y0101232D01*
X0113175Y0100233D02*
X0174137Y0100233D01*
X0174137Y0099235D02*
X0112720Y0099235D01*
X0120516Y0098236D02*
X0174137Y0098236D01*
X0174137Y0097238D02*
X0121058Y0097238D01*
X0121129Y0096239D02*
X0174137Y0096239D01*
X0174137Y0095241D02*
X0120799Y0095241D01*
X0120032Y0094242D02*
X0174137Y0094242D01*
X0174137Y0093244D02*
X0120032Y0093244D01*
X0120032Y0092245D02*
X0174137Y0092245D01*
X0174094Y0091247D02*
X0120032Y0091247D01*
X0120032Y0090248D02*
X0173096Y0090248D01*
X0172097Y0089250D02*
X0120032Y0089250D01*
X0120032Y0088251D02*
X0171099Y0088251D01*
X0170100Y0087253D02*
X0154839Y0087253D01*
X0152837Y0085576D02*
X0170687Y0085576D01*
X0154028Y0083259D02*
X0197941Y0083259D01*
X0197941Y0082260D02*
X0133706Y0082260D01*
X0134021Y0081262D02*
X0197941Y0081262D01*
X0197941Y0080263D02*
X0134310Y0080263D01*
X0135309Y0079265D02*
X0197941Y0079265D01*
X0197941Y0078266D02*
X0136307Y0078266D01*
X0137306Y0077268D02*
X0197941Y0077268D01*
X0197941Y0076269D02*
X0138304Y0076269D01*
X0139303Y0075271D02*
X0197941Y0075271D01*
X0197941Y0074272D02*
X0140301Y0074272D01*
X0141300Y0073274D02*
X0197941Y0073274D01*
X0197941Y0072275D02*
X0152108Y0072275D01*
X0152290Y0072200D02*
X0151339Y0072594D01*
X0150309Y0072594D01*
X0149357Y0072200D01*
X0148629Y0071471D01*
X0148235Y0070520D01*
X0148235Y0069490D01*
X0148629Y0068538D01*
X0149357Y0067810D01*
X0150309Y0067416D01*
X0151150Y0067416D01*
X0162300Y0056266D01*
X0162260Y0049360D01*
X0161654Y0048753D01*
X0161259Y0047802D01*
X0161259Y0046772D01*
X0161654Y0045820D01*
X0162382Y0045092D01*
X0163333Y0044698D01*
X0164363Y0044698D01*
X0165315Y0045092D01*
X0166043Y0045820D01*
X0166437Y0046772D01*
X0166437Y0047802D01*
X0166043Y0048753D01*
X0165460Y0049336D01*
X0165500Y0056259D01*
X0165503Y0056263D01*
X0165503Y0056921D01*
X0165507Y0057579D01*
X0165503Y0057583D01*
X0165503Y0057588D01*
X0165038Y0058054D01*
X0164575Y0058522D01*
X0164570Y0058522D01*
X0153413Y0069679D01*
X0153413Y0070520D01*
X0153019Y0071471D01*
X0152290Y0072200D01*
X0153099Y0071277D02*
X0197941Y0071277D01*
X0197941Y0070278D02*
X0153413Y0070278D01*
X0153812Y0069280D02*
X0197941Y0069280D01*
X0197941Y0068281D02*
X0154810Y0068281D01*
X0155809Y0067283D02*
X0197941Y0067283D01*
X0197941Y0066284D02*
X0156807Y0066284D01*
X0157806Y0065285D02*
X0197941Y0065285D01*
X0197941Y0064287D02*
X0158805Y0064287D01*
X0159803Y0063288D02*
X0197941Y0063288D01*
X0197941Y0062290D02*
X0160802Y0062290D01*
X0161800Y0061291D02*
X0197941Y0061291D01*
X0197941Y0060293D02*
X0162799Y0060293D01*
X0163797Y0059294D02*
X0197941Y0059294D01*
X0197941Y0058296D02*
X0164798Y0058296D01*
X0165506Y0057297D02*
X0197941Y0057297D01*
X0197941Y0056299D02*
X0165503Y0056299D01*
X0165494Y0055300D02*
X0197941Y0055300D01*
X0197941Y0054302D02*
X0165488Y0054302D01*
X0165483Y0053303D02*
X0197941Y0053303D01*
X0197941Y0052305D02*
X0165477Y0052305D01*
X0165471Y0051306D02*
X0197941Y0051306D01*
X0197941Y0050308D02*
X0165466Y0050308D01*
X0165487Y0049309D02*
X0197941Y0049309D01*
X0197941Y0048311D02*
X0166227Y0048311D01*
X0166437Y0047312D02*
X0197941Y0047312D01*
X0197941Y0046314D02*
X0166248Y0046314D01*
X0165538Y0045315D02*
X0197941Y0045315D01*
X0197941Y0044317D02*
X0133117Y0044317D01*
X0133117Y0045085D02*
X0133117Y0042151D01*
X0132180Y0041213D01*
X0123668Y0032702D01*
X0122343Y0032702D01*
X0095404Y0032702D01*
X0094905Y0032203D01*
X0093953Y0031808D01*
X0092923Y0031808D01*
X0091972Y0032203D01*
X0091243Y0032931D01*
X0090849Y0033882D01*
X0090849Y0034912D01*
X0091243Y0035864D01*
X0091972Y0036592D01*
X0092923Y0036986D01*
X0093953Y0036986D01*
X0094905Y0036592D01*
X0095595Y0035902D01*
X0122343Y0035902D01*
X0129917Y0043476D01*
X0129917Y0045044D01*
X0129302Y0045659D01*
X0128908Y0046611D01*
X0128908Y0047641D01*
X0129302Y0048592D01*
X0130030Y0049321D01*
X0130982Y0049715D01*
X0132012Y0049715D01*
X0132963Y0049321D01*
X0133691Y0048592D01*
X0134086Y0047641D01*
X0134086Y0046611D01*
X0133691Y0045659D01*
X0133117Y0045085D01*
X0133347Y0045315D02*
X0162159Y0045315D01*
X0161449Y0046314D02*
X0133962Y0046314D01*
X0134086Y0047312D02*
X0161259Y0047312D01*
X0161470Y0048311D02*
X0133808Y0048311D01*
X0132975Y0049309D02*
X0162209Y0049309D01*
X0162266Y0050308D02*
X0083602Y0050308D01*
X0083602Y0051306D02*
X0162271Y0051306D01*
X0162277Y0052305D02*
X0132953Y0052305D01*
X0133773Y0053303D02*
X0162283Y0053303D01*
X0162288Y0054302D02*
X0134041Y0054302D01*
X0133909Y0055300D02*
X0162294Y0055300D01*
X0162267Y0056299D02*
X0133280Y0056299D01*
X0131349Y0054429D02*
X0129021Y0056757D01*
X0080718Y0056757D01*
X0082959Y0054302D02*
X0128863Y0054302D01*
X0129131Y0053303D02*
X0083602Y0053303D01*
X0083602Y0052305D02*
X0129952Y0052305D01*
X0130019Y0049309D02*
X0083602Y0049309D01*
X0083602Y0048311D02*
X0129185Y0048311D01*
X0128908Y0047312D02*
X0083602Y0047312D01*
X0083602Y0046314D02*
X0129031Y0046314D01*
X0129646Y0045315D02*
X0083602Y0045315D01*
X0083602Y0044317D02*
X0129917Y0044317D01*
X0129759Y0043318D02*
X0083602Y0043318D01*
X0083602Y0042320D02*
X0128761Y0042320D01*
X0127762Y0041321D02*
X0083602Y0041321D01*
X0083602Y0040323D02*
X0126764Y0040323D01*
X0125765Y0039324D02*
X0083602Y0039324D01*
X0083602Y0038326D02*
X0124767Y0038326D01*
X0123768Y0037327D02*
X0083602Y0037327D01*
X0083602Y0036329D02*
X0091708Y0036329D01*
X0091022Y0035330D02*
X0083602Y0035330D01*
X0083602Y0034332D02*
X0090849Y0034332D01*
X0091077Y0033333D02*
X0083602Y0033333D01*
X0083602Y0032335D02*
X0091840Y0032335D01*
X0093466Y0034302D02*
X0123006Y0034302D01*
X0131517Y0042813D01*
X0131517Y0047167D01*
X0133117Y0043318D02*
X0197941Y0043318D01*
X0197941Y0042320D02*
X0133117Y0042320D01*
X0132288Y0041321D02*
X0197941Y0041321D01*
X0197941Y0040323D02*
X0131289Y0040323D01*
X0130291Y0039324D02*
X0197941Y0039324D01*
X0197941Y0038326D02*
X0129292Y0038326D01*
X0128294Y0037327D02*
X0197941Y0037327D01*
X0197941Y0036329D02*
X0127295Y0036329D01*
X0126297Y0035330D02*
X0197941Y0035330D01*
X0197941Y0034332D02*
X0125298Y0034332D01*
X0124300Y0033333D02*
X0197941Y0033333D01*
X0197941Y0032335D02*
X0095037Y0032335D01*
X0095168Y0036329D02*
X0122770Y0036329D01*
X0130743Y0057297D02*
X0161269Y0057297D01*
X0160270Y0058296D02*
X0129745Y0058296D01*
X0138377Y0059294D02*
X0083993Y0059294D01*
X0077756Y0052305D02*
X0073642Y0052305D01*
X0074202Y0053303D02*
X0076758Y0053303D01*
X0075759Y0054302D02*
X0075183Y0054302D01*
X0070511Y0056646D02*
X0073191Y0059327D01*
X0070511Y0056646D02*
X0064073Y0056646D01*
X0062653Y0055225D01*
X0080602Y0039324D02*
X0005825Y0039324D01*
X0005825Y0038326D02*
X0080602Y0038326D01*
X0080602Y0037327D02*
X0005825Y0037327D01*
X0005825Y0036329D02*
X0080602Y0036329D01*
X0080602Y0035330D02*
X0005825Y0035330D01*
X0005825Y0034332D02*
X0080602Y0034332D01*
X0080602Y0033333D02*
X0005825Y0033333D01*
X0005825Y0032335D02*
X0080602Y0032335D01*
X0080602Y0031336D02*
X0005825Y0031336D01*
X0005825Y0030338D02*
X0080602Y0030338D01*
X0080602Y0029339D02*
X0005825Y0029339D01*
X0005825Y0028341D02*
X0080602Y0028341D01*
X0080602Y0027342D02*
X0005825Y0027342D01*
X0005825Y0026344D02*
X0080602Y0026344D01*
X0080602Y0025345D02*
X0005825Y0025345D01*
X0005825Y0024347D02*
X0080602Y0024347D01*
X0080602Y0023348D02*
X0005825Y0023348D01*
X0005825Y0022350D02*
X0080602Y0022350D01*
X0080086Y0021351D02*
X0005825Y0021351D01*
X0005825Y0020352D02*
X0079087Y0020352D01*
X0078089Y0019354D02*
X0005825Y0019354D01*
X0005825Y0018355D02*
X0077090Y0018355D01*
X0076092Y0017357D02*
X0071012Y0017357D01*
X0067340Y0017357D02*
X0005825Y0017357D01*
X0005825Y0016358D02*
X0066716Y0016358D01*
X0066587Y0015360D02*
X0005825Y0015360D01*
X0005825Y0014361D02*
X0066858Y0014361D01*
X0067683Y0013363D02*
X0005825Y0013363D01*
X0005825Y0012364D02*
X0197941Y0012364D01*
X0197941Y0011366D02*
X0005825Y0011366D01*
X0005825Y0010367D02*
X0197941Y0010367D01*
X0197941Y0009369D02*
X0005825Y0009369D01*
X0005825Y0008370D02*
X0197941Y0008370D01*
X0197941Y0013363D02*
X0070669Y0013363D01*
X0077339Y0014361D02*
X0197941Y0014361D01*
X0197941Y0015360D02*
X0078337Y0015360D01*
X0079336Y0016358D02*
X0197941Y0016358D01*
X0197941Y0017357D02*
X0080334Y0017357D01*
X0081333Y0018355D02*
X0197941Y0018355D01*
X0197941Y0019354D02*
X0082331Y0019354D01*
X0083330Y0020352D02*
X0197941Y0020352D01*
X0197941Y0021351D02*
X0083602Y0021351D01*
X0083602Y0022350D02*
X0197941Y0022350D01*
X0197941Y0023348D02*
X0083602Y0023348D01*
X0083602Y0024347D02*
X0197941Y0024347D01*
X0197941Y0025345D02*
X0083602Y0025345D01*
X0083602Y0026344D02*
X0197941Y0026344D01*
X0197941Y0027342D02*
X0083602Y0027342D01*
X0083602Y0028341D02*
X0197941Y0028341D01*
X0197941Y0029339D02*
X0083602Y0029339D01*
X0083602Y0030338D02*
X0197941Y0030338D01*
X0197941Y0031336D02*
X0083602Y0031336D01*
X0119734Y0062290D02*
X0137824Y0062290D01*
X0138562Y0063288D02*
X0120733Y0063288D01*
X0121731Y0064287D02*
X0138562Y0064287D01*
X0138562Y0065285D02*
X0123786Y0065285D01*
X0125287Y0066284D02*
X0138166Y0066284D01*
X0137167Y0067283D02*
X0125751Y0067283D01*
X0125766Y0068281D02*
X0136169Y0068281D01*
X0135170Y0069280D02*
X0125382Y0069280D01*
X0124046Y0070278D02*
X0134171Y0070278D01*
X0133173Y0071277D02*
X0120032Y0071277D01*
X0120032Y0072275D02*
X0132174Y0072275D01*
X0131176Y0073274D02*
X0120032Y0073274D01*
X0120032Y0074272D02*
X0130177Y0074272D01*
X0129179Y0075271D02*
X0120032Y0075271D01*
X0120032Y0076269D02*
X0128180Y0076269D01*
X0126157Y0077268D02*
X0120032Y0077268D01*
X0120032Y0078266D02*
X0125514Y0078266D01*
X0125371Y0079265D02*
X0120032Y0079265D01*
X0120032Y0080263D02*
X0125628Y0080263D01*
X0126434Y0081262D02*
X0120032Y0081262D01*
X0120032Y0082260D02*
X0129159Y0082260D01*
X0130161Y0083259D02*
X0120032Y0083259D01*
X0120032Y0084257D02*
X0150599Y0084257D01*
X0150266Y0085256D02*
X0120032Y0085256D01*
X0120032Y0086254D02*
X0150334Y0086254D01*
X0150871Y0087253D02*
X0120032Y0087253D01*
X0127735Y0078978D02*
X0140162Y0066550D01*
X0140162Y0061171D01*
X0141947Y0059294D02*
X0159272Y0059294D01*
X0158273Y0060293D02*
X0142601Y0060293D01*
X0144468Y0063008D02*
X0144464Y0067846D01*
X0131490Y0080820D01*
X0132704Y0083259D02*
X0151683Y0083259D01*
X0149540Y0072275D02*
X0142298Y0072275D01*
X0143297Y0071277D02*
X0148548Y0071277D01*
X0148235Y0070278D02*
X0144295Y0070278D01*
X0145294Y0069280D02*
X0148322Y0069280D01*
X0148886Y0068281D02*
X0146064Y0068281D01*
X0146065Y0067283D02*
X0151284Y0067283D01*
X0152282Y0066284D02*
X0146065Y0066284D01*
X0146066Y0065285D02*
X0153281Y0065285D01*
X0154279Y0064287D02*
X0146740Y0064287D01*
X0147057Y0063288D02*
X0155278Y0063288D01*
X0156276Y0062290D02*
X0146973Y0062290D01*
X0146413Y0061291D02*
X0157275Y0061291D01*
X0163903Y0056925D02*
X0163848Y0047287D01*
X0163903Y0056925D02*
X0150784Y0070045D01*
X0122309Y0070278D02*
X0120032Y0070278D01*
X0120032Y0069280D02*
X0120973Y0069280D01*
X0120588Y0068281D02*
X0119401Y0068281D01*
X0118402Y0067283D02*
X0120502Y0067283D01*
X0119503Y0066284D02*
X0117404Y0066284D01*
X0116405Y0065285D02*
X0118505Y0065285D01*
X0032317Y0061291D02*
X0005825Y0061291D01*
X0005825Y0060293D02*
X0031638Y0060293D01*
X0031638Y0059294D02*
X0005825Y0059294D01*
X0005825Y0058296D02*
X0032072Y0058296D01*
D12*
X0022774Y0052655D03*
X0051491Y0042348D03*
X0056396Y0045200D03*
X0056199Y0050979D03*
X0062612Y0055181D03*
X0061949Y0060722D03*
X0070026Y0060342D03*
X0071697Y0054021D03*
X0080617Y0056762D03*
X0090274Y0063046D03*
X0077382Y0069382D03*
X0074853Y0072380D03*
X0077540Y0075569D03*
X0077540Y0079163D03*
X0073018Y0084215D03*
X0066559Y0084439D03*
X0055471Y0077807D03*
X0066638Y0075579D03*
X0095689Y0102627D03*
X0095689Y0106403D03*
X0089581Y0115701D03*
X0082452Y0110850D03*
X0072125Y0107499D03*
X0069551Y0123453D03*
X0070704Y0133902D03*
X0054548Y0138697D03*
X0036169Y0137723D03*
X0019605Y0127421D03*
X0110596Y0100773D03*
X0118540Y0096552D03*
X0131432Y0080983D03*
X0127960Y0079126D03*
X0123177Y0067836D03*
X0131452Y0054466D03*
X0131497Y0047126D03*
X0143568Y0036616D03*
X0164061Y0041989D03*
X0163848Y0047287D03*
X0144468Y0063008D03*
X0140162Y0061171D03*
X0150824Y0070005D03*
X0164428Y0076682D03*
X0152855Y0085575D03*
X0145536Y0098711D03*
X0160228Y0123057D03*
X0140695Y0130412D03*
X0162220Y0158952D03*
X0181538Y0124278D03*
X0076727Y0040229D03*
X0093438Y0034397D03*
X0069176Y0015531D03*
X0048148Y0025477D03*
X0028019Y0023146D03*
X0122956Y0015531D03*
D13*
X0082381Y0110856D02*
X0074233Y0110856D01*
X0069753Y0115336D01*
X0069680Y0123450D01*
D14*
X0118538Y0096558D02*
X0118538Y0069531D01*
X0111924Y0062917D01*
X0118254Y0062922D02*
X0123162Y0067831D01*
X0118254Y0062922D02*
X0090297Y0062922D01*
D15*
X0086872Y0064295D02*
X0086872Y0065687D01*
X0086869Y0065638D02*
X0086869Y0082351D01*
X0084889Y0084330D01*
X0072977Y0084330D01*
X0086872Y0064295D02*
X0082623Y0060045D01*
X0078897Y0060045D01*
X0077108Y0058256D01*
X0077108Y0055075D01*
X0078524Y0053659D01*
X0081480Y0053659D01*
X0082102Y0053038D01*
X0082102Y0021246D01*
X0076369Y0015513D01*
X0069147Y0015513D01*
M02*
