G75*
%MOIN*%
%OFA0B0*%
%FSLAX25Y25*%
%IPPOS*%
%LPD*%
%AMOC8*
5,1,8,0,0,1.08239X$1,22.5*
%
%ADD10C,0.00000*%
D10*
X0013086Y0010868D02*
X0012813Y0165237D01*
X0194882Y0164778D01*
X0194985Y0010987D01*
X0013086Y0010868D01*
X0032137Y0042349D02*
X0032139Y0042433D01*
X0032145Y0042516D01*
X0032155Y0042599D01*
X0032169Y0042682D01*
X0032186Y0042764D01*
X0032208Y0042845D01*
X0032233Y0042924D01*
X0032262Y0043003D01*
X0032295Y0043080D01*
X0032331Y0043155D01*
X0032371Y0043229D01*
X0032414Y0043301D01*
X0032461Y0043370D01*
X0032511Y0043437D01*
X0032564Y0043502D01*
X0032620Y0043564D01*
X0032678Y0043624D01*
X0032740Y0043681D01*
X0032804Y0043734D01*
X0032871Y0043785D01*
X0032940Y0043832D01*
X0033011Y0043877D01*
X0033084Y0043917D01*
X0033159Y0043954D01*
X0033236Y0043988D01*
X0033314Y0044018D01*
X0033393Y0044044D01*
X0033474Y0044067D01*
X0033556Y0044085D01*
X0033638Y0044100D01*
X0033721Y0044111D01*
X0033804Y0044118D01*
X0033888Y0044121D01*
X0033972Y0044120D01*
X0034055Y0044115D01*
X0034139Y0044106D01*
X0034221Y0044093D01*
X0034303Y0044077D01*
X0034384Y0044056D01*
X0034465Y0044032D01*
X0034543Y0044004D01*
X0034621Y0043972D01*
X0034697Y0043936D01*
X0034771Y0043897D01*
X0034843Y0043855D01*
X0034913Y0043809D01*
X0034981Y0043760D01*
X0035046Y0043708D01*
X0035109Y0043653D01*
X0035169Y0043595D01*
X0035227Y0043534D01*
X0035281Y0043470D01*
X0035333Y0043404D01*
X0035381Y0043336D01*
X0035426Y0043265D01*
X0035467Y0043192D01*
X0035506Y0043118D01*
X0035540Y0043042D01*
X0035571Y0042964D01*
X0035598Y0042885D01*
X0035622Y0042804D01*
X0035641Y0042723D01*
X0035657Y0042641D01*
X0035669Y0042558D01*
X0035677Y0042474D01*
X0035681Y0042391D01*
X0035681Y0042307D01*
X0035677Y0042224D01*
X0035669Y0042140D01*
X0035657Y0042057D01*
X0035641Y0041975D01*
X0035622Y0041894D01*
X0035598Y0041813D01*
X0035571Y0041734D01*
X0035540Y0041656D01*
X0035506Y0041580D01*
X0035467Y0041506D01*
X0035426Y0041433D01*
X0035381Y0041362D01*
X0035333Y0041294D01*
X0035281Y0041228D01*
X0035227Y0041164D01*
X0035169Y0041103D01*
X0035109Y0041045D01*
X0035046Y0040990D01*
X0034981Y0040938D01*
X0034913Y0040889D01*
X0034843Y0040843D01*
X0034771Y0040801D01*
X0034697Y0040762D01*
X0034621Y0040726D01*
X0034543Y0040694D01*
X0034465Y0040666D01*
X0034384Y0040642D01*
X0034303Y0040621D01*
X0034221Y0040605D01*
X0034139Y0040592D01*
X0034055Y0040583D01*
X0033972Y0040578D01*
X0033888Y0040577D01*
X0033804Y0040580D01*
X0033721Y0040587D01*
X0033638Y0040598D01*
X0033556Y0040613D01*
X0033474Y0040631D01*
X0033393Y0040654D01*
X0033314Y0040680D01*
X0033236Y0040710D01*
X0033159Y0040744D01*
X0033084Y0040781D01*
X0033011Y0040821D01*
X0032940Y0040866D01*
X0032871Y0040913D01*
X0032804Y0040964D01*
X0032740Y0041017D01*
X0032678Y0041074D01*
X0032620Y0041134D01*
X0032564Y0041196D01*
X0032511Y0041261D01*
X0032461Y0041328D01*
X0032414Y0041397D01*
X0032371Y0041469D01*
X0032331Y0041543D01*
X0032295Y0041618D01*
X0032262Y0041695D01*
X0032233Y0041774D01*
X0032208Y0041853D01*
X0032186Y0041934D01*
X0032169Y0042016D01*
X0032155Y0042099D01*
X0032145Y0042182D01*
X0032139Y0042265D01*
X0032137Y0042349D01*
X0032137Y0059671D02*
X0032139Y0059755D01*
X0032145Y0059838D01*
X0032155Y0059921D01*
X0032169Y0060004D01*
X0032186Y0060086D01*
X0032208Y0060167D01*
X0032233Y0060246D01*
X0032262Y0060325D01*
X0032295Y0060402D01*
X0032331Y0060477D01*
X0032371Y0060551D01*
X0032414Y0060623D01*
X0032461Y0060692D01*
X0032511Y0060759D01*
X0032564Y0060824D01*
X0032620Y0060886D01*
X0032678Y0060946D01*
X0032740Y0061003D01*
X0032804Y0061056D01*
X0032871Y0061107D01*
X0032940Y0061154D01*
X0033011Y0061199D01*
X0033084Y0061239D01*
X0033159Y0061276D01*
X0033236Y0061310D01*
X0033314Y0061340D01*
X0033393Y0061366D01*
X0033474Y0061389D01*
X0033556Y0061407D01*
X0033638Y0061422D01*
X0033721Y0061433D01*
X0033804Y0061440D01*
X0033888Y0061443D01*
X0033972Y0061442D01*
X0034055Y0061437D01*
X0034139Y0061428D01*
X0034221Y0061415D01*
X0034303Y0061399D01*
X0034384Y0061378D01*
X0034465Y0061354D01*
X0034543Y0061326D01*
X0034621Y0061294D01*
X0034697Y0061258D01*
X0034771Y0061219D01*
X0034843Y0061177D01*
X0034913Y0061131D01*
X0034981Y0061082D01*
X0035046Y0061030D01*
X0035109Y0060975D01*
X0035169Y0060917D01*
X0035227Y0060856D01*
X0035281Y0060792D01*
X0035333Y0060726D01*
X0035381Y0060658D01*
X0035426Y0060587D01*
X0035467Y0060514D01*
X0035506Y0060440D01*
X0035540Y0060364D01*
X0035571Y0060286D01*
X0035598Y0060207D01*
X0035622Y0060126D01*
X0035641Y0060045D01*
X0035657Y0059963D01*
X0035669Y0059880D01*
X0035677Y0059796D01*
X0035681Y0059713D01*
X0035681Y0059629D01*
X0035677Y0059546D01*
X0035669Y0059462D01*
X0035657Y0059379D01*
X0035641Y0059297D01*
X0035622Y0059216D01*
X0035598Y0059135D01*
X0035571Y0059056D01*
X0035540Y0058978D01*
X0035506Y0058902D01*
X0035467Y0058828D01*
X0035426Y0058755D01*
X0035381Y0058684D01*
X0035333Y0058616D01*
X0035281Y0058550D01*
X0035227Y0058486D01*
X0035169Y0058425D01*
X0035109Y0058367D01*
X0035046Y0058312D01*
X0034981Y0058260D01*
X0034913Y0058211D01*
X0034843Y0058165D01*
X0034771Y0058123D01*
X0034697Y0058084D01*
X0034621Y0058048D01*
X0034543Y0058016D01*
X0034465Y0057988D01*
X0034384Y0057964D01*
X0034303Y0057943D01*
X0034221Y0057927D01*
X0034139Y0057914D01*
X0034055Y0057905D01*
X0033972Y0057900D01*
X0033888Y0057899D01*
X0033804Y0057902D01*
X0033721Y0057909D01*
X0033638Y0057920D01*
X0033556Y0057935D01*
X0033474Y0057953D01*
X0033393Y0057976D01*
X0033314Y0058002D01*
X0033236Y0058032D01*
X0033159Y0058066D01*
X0033084Y0058103D01*
X0033011Y0058143D01*
X0032940Y0058188D01*
X0032871Y0058235D01*
X0032804Y0058286D01*
X0032740Y0058339D01*
X0032678Y0058396D01*
X0032620Y0058456D01*
X0032564Y0058518D01*
X0032511Y0058583D01*
X0032461Y0058650D01*
X0032414Y0058719D01*
X0032371Y0058791D01*
X0032331Y0058865D01*
X0032295Y0058940D01*
X0032262Y0059017D01*
X0032233Y0059096D01*
X0032208Y0059175D01*
X0032186Y0059256D01*
X0032169Y0059338D01*
X0032155Y0059421D01*
X0032145Y0059504D01*
X0032139Y0059587D01*
X0032137Y0059671D01*
X0044435Y0158887D02*
X0044437Y0158973D01*
X0044443Y0159060D01*
X0044453Y0159145D01*
X0044467Y0159231D01*
X0044485Y0159315D01*
X0044506Y0159399D01*
X0044532Y0159481D01*
X0044561Y0159563D01*
X0044594Y0159642D01*
X0044631Y0159721D01*
X0044671Y0159797D01*
X0044715Y0159871D01*
X0044762Y0159944D01*
X0044813Y0160014D01*
X0044866Y0160082D01*
X0044923Y0160147D01*
X0044983Y0160209D01*
X0045045Y0160269D01*
X0045110Y0160326D01*
X0045178Y0160379D01*
X0045248Y0160430D01*
X0045321Y0160477D01*
X0045395Y0160521D01*
X0045471Y0160561D01*
X0045550Y0160598D01*
X0045629Y0160631D01*
X0045711Y0160660D01*
X0045793Y0160686D01*
X0045877Y0160707D01*
X0045961Y0160725D01*
X0046047Y0160739D01*
X0046132Y0160749D01*
X0046219Y0160755D01*
X0046305Y0160757D01*
X0046391Y0160755D01*
X0046478Y0160749D01*
X0046563Y0160739D01*
X0046649Y0160725D01*
X0046733Y0160707D01*
X0046817Y0160686D01*
X0046899Y0160660D01*
X0046981Y0160631D01*
X0047060Y0160598D01*
X0047139Y0160561D01*
X0047215Y0160521D01*
X0047289Y0160477D01*
X0047362Y0160430D01*
X0047432Y0160379D01*
X0047500Y0160326D01*
X0047565Y0160269D01*
X0047627Y0160209D01*
X0047687Y0160147D01*
X0047744Y0160082D01*
X0047797Y0160014D01*
X0047848Y0159944D01*
X0047895Y0159871D01*
X0047939Y0159797D01*
X0047979Y0159721D01*
X0048016Y0159642D01*
X0048049Y0159563D01*
X0048078Y0159481D01*
X0048104Y0159399D01*
X0048125Y0159315D01*
X0048143Y0159231D01*
X0048157Y0159145D01*
X0048167Y0159060D01*
X0048173Y0158973D01*
X0048175Y0158887D01*
X0048173Y0158801D01*
X0048167Y0158714D01*
X0048157Y0158629D01*
X0048143Y0158543D01*
X0048125Y0158459D01*
X0048104Y0158375D01*
X0048078Y0158293D01*
X0048049Y0158211D01*
X0048016Y0158132D01*
X0047979Y0158053D01*
X0047939Y0157977D01*
X0047895Y0157903D01*
X0047848Y0157830D01*
X0047797Y0157760D01*
X0047744Y0157692D01*
X0047687Y0157627D01*
X0047627Y0157565D01*
X0047565Y0157505D01*
X0047500Y0157448D01*
X0047432Y0157395D01*
X0047362Y0157344D01*
X0047289Y0157297D01*
X0047215Y0157253D01*
X0047139Y0157213D01*
X0047060Y0157176D01*
X0046981Y0157143D01*
X0046899Y0157114D01*
X0046817Y0157088D01*
X0046733Y0157067D01*
X0046649Y0157049D01*
X0046563Y0157035D01*
X0046478Y0157025D01*
X0046391Y0157019D01*
X0046305Y0157017D01*
X0046219Y0157019D01*
X0046132Y0157025D01*
X0046047Y0157035D01*
X0045961Y0157049D01*
X0045877Y0157067D01*
X0045793Y0157088D01*
X0045711Y0157114D01*
X0045629Y0157143D01*
X0045550Y0157176D01*
X0045471Y0157213D01*
X0045395Y0157253D01*
X0045321Y0157297D01*
X0045248Y0157344D01*
X0045178Y0157395D01*
X0045110Y0157448D01*
X0045045Y0157505D01*
X0044983Y0157565D01*
X0044923Y0157627D01*
X0044866Y0157692D01*
X0044813Y0157760D01*
X0044762Y0157830D01*
X0044715Y0157903D01*
X0044671Y0157977D01*
X0044631Y0158053D01*
X0044594Y0158132D01*
X0044561Y0158211D01*
X0044532Y0158293D01*
X0044506Y0158375D01*
X0044485Y0158459D01*
X0044467Y0158543D01*
X0044453Y0158629D01*
X0044443Y0158714D01*
X0044437Y0158801D01*
X0044435Y0158887D01*
X0056246Y0158887D02*
X0056248Y0158973D01*
X0056254Y0159060D01*
X0056264Y0159145D01*
X0056278Y0159231D01*
X0056296Y0159315D01*
X0056317Y0159399D01*
X0056343Y0159481D01*
X0056372Y0159563D01*
X0056405Y0159642D01*
X0056442Y0159721D01*
X0056482Y0159797D01*
X0056526Y0159871D01*
X0056573Y0159944D01*
X0056624Y0160014D01*
X0056677Y0160082D01*
X0056734Y0160147D01*
X0056794Y0160209D01*
X0056856Y0160269D01*
X0056921Y0160326D01*
X0056989Y0160379D01*
X0057059Y0160430D01*
X0057132Y0160477D01*
X0057206Y0160521D01*
X0057282Y0160561D01*
X0057361Y0160598D01*
X0057440Y0160631D01*
X0057522Y0160660D01*
X0057604Y0160686D01*
X0057688Y0160707D01*
X0057772Y0160725D01*
X0057858Y0160739D01*
X0057943Y0160749D01*
X0058030Y0160755D01*
X0058116Y0160757D01*
X0058202Y0160755D01*
X0058289Y0160749D01*
X0058374Y0160739D01*
X0058460Y0160725D01*
X0058544Y0160707D01*
X0058628Y0160686D01*
X0058710Y0160660D01*
X0058792Y0160631D01*
X0058871Y0160598D01*
X0058950Y0160561D01*
X0059026Y0160521D01*
X0059100Y0160477D01*
X0059173Y0160430D01*
X0059243Y0160379D01*
X0059311Y0160326D01*
X0059376Y0160269D01*
X0059438Y0160209D01*
X0059498Y0160147D01*
X0059555Y0160082D01*
X0059608Y0160014D01*
X0059659Y0159944D01*
X0059706Y0159871D01*
X0059750Y0159797D01*
X0059790Y0159721D01*
X0059827Y0159642D01*
X0059860Y0159563D01*
X0059889Y0159481D01*
X0059915Y0159399D01*
X0059936Y0159315D01*
X0059954Y0159231D01*
X0059968Y0159145D01*
X0059978Y0159060D01*
X0059984Y0158973D01*
X0059986Y0158887D01*
X0059984Y0158801D01*
X0059978Y0158714D01*
X0059968Y0158629D01*
X0059954Y0158543D01*
X0059936Y0158459D01*
X0059915Y0158375D01*
X0059889Y0158293D01*
X0059860Y0158211D01*
X0059827Y0158132D01*
X0059790Y0158053D01*
X0059750Y0157977D01*
X0059706Y0157903D01*
X0059659Y0157830D01*
X0059608Y0157760D01*
X0059555Y0157692D01*
X0059498Y0157627D01*
X0059438Y0157565D01*
X0059376Y0157505D01*
X0059311Y0157448D01*
X0059243Y0157395D01*
X0059173Y0157344D01*
X0059100Y0157297D01*
X0059026Y0157253D01*
X0058950Y0157213D01*
X0058871Y0157176D01*
X0058792Y0157143D01*
X0058710Y0157114D01*
X0058628Y0157088D01*
X0058544Y0157067D01*
X0058460Y0157049D01*
X0058374Y0157035D01*
X0058289Y0157025D01*
X0058202Y0157019D01*
X0058116Y0157017D01*
X0058030Y0157019D01*
X0057943Y0157025D01*
X0057858Y0157035D01*
X0057772Y0157049D01*
X0057688Y0157067D01*
X0057604Y0157088D01*
X0057522Y0157114D01*
X0057440Y0157143D01*
X0057361Y0157176D01*
X0057282Y0157213D01*
X0057206Y0157253D01*
X0057132Y0157297D01*
X0057059Y0157344D01*
X0056989Y0157395D01*
X0056921Y0157448D01*
X0056856Y0157505D01*
X0056794Y0157565D01*
X0056734Y0157627D01*
X0056677Y0157692D01*
X0056624Y0157760D01*
X0056573Y0157830D01*
X0056526Y0157903D01*
X0056482Y0157977D01*
X0056442Y0158053D01*
X0056405Y0158132D01*
X0056372Y0158211D01*
X0056343Y0158293D01*
X0056317Y0158375D01*
X0056296Y0158459D01*
X0056278Y0158543D01*
X0056264Y0158629D01*
X0056254Y0158714D01*
X0056248Y0158801D01*
X0056246Y0158887D01*
M02*
